<svg width="0" height="0" class="hidden">
	
	<!-- Placeholder on map icon -->
	<symbol xmlns="http://www.w3.org/2000/svg" viewBox="0 0 430.114 430.114" id="mark-icon">
		<path d="M356.208 107.051c-1.531-5.738-4.64-11.852-6.94-17.205C321.746 23.704 261.611 0 213.055 0 148.054 0 76.463 43.586 66.905 133.427v18.355c0 .766.264 7.647.639 11.089 5.358 42.816 39.143 88.32 64.375 131.136 27.146 45.873 55.314 90.999 83.221 136.106 17.208-29.436 34.354-59.259 51.17-87.933 4.583-8.415 9.903-16.825 14.491-24.857 3.058-5.348 8.9-10.696 11.569-15.672 27.145-49.699 70.838-99.782 70.838-149.104v-20.262c.001-5.347-6.627-24.081-7-25.234zm-141.963 92.142c-19.107 0-40.021-9.554-50.344-35.939-1.538-4.2-1.414-12.617-1.414-13.388v-11.852c0-33.636 28.56-48.932 53.406-48.932 30.588 0 54.245 24.472 54.245 55.06 0 30.587-25.305 55.051-55.893 55.051z">
		</path>
	</symbol>

	<!-- Telephone icon -->
	<symbol xmlns="http://www.w3.org/2000/svg" viewBox="0 0 348.077 348.077" id="tel-icon">
		<path d="M340.273 275.083l-53.755-53.761c-10.707-10.664-28.438-10.34-39.518.744l-27.082 27.076a792.327 792.327 0 0 1-5.344-2.973c-17.102-9.476-40.509-22.464-65.14-47.113-24.704-24.701-37.704-48.144-47.209-65.257-1.003-1.813-1.964-3.561-2.913-5.221l18.176-18.149 8.936-8.947c11.097-11.1 11.403-28.826.721-39.521L73.39 8.194c-10.682-10.68-28.421-10.356-39.518.744l-15.15 15.237.414.411c-5.08 6.482-9.325 13.958-12.484 22.02C3.74 54.28 1.927 61.603 1.098 68.941-6 127.785 20.89 181.564 93.866 254.541c100.875 100.868 182.167 93.248 185.674 92.876 7.638-.913 14.958-2.738 22.397-5.627 7.992-3.122 15.463-7.361 21.941-12.43l.331.294 15.348-15.029c11.074-11.098 11.393-28.83.716-39.542z">
		</path>
	</symbol>

</svg>