<svg xmlns="http://www.w3.org/2000/svg" xmlns:xlink="http://www.w3.org/1999/xlink" viewBox="0.6153793334960938 0.8461538553237915 198.69232177734375 242.3076934814453" version="1.1" preserveAspectRatio="xMidYMid meet">
    <!-- Generator: Sketch 51.2 (57519) - http://www.bohemiancoding.com/sketch -->

    <desc>Created with Sketch.</desc>
    <defs></defs>
    <g id="76bd4573-7b69-47c3-b51b-b27752af5db4" stroke="none" stroke-width="1" fill="none" fill-rule="evenodd">
        <g id="7619a9f9-f41b-41b1-ba5c-820f29396159" fill-rule="nonzero">
            <circle id="036ff3c2-85be-4920-8182-b76bda84895b" fill="#FFCC00" cx="97.5384615" cy="146.230769" r="96.9230769"></circle>
            <path d="M97.5384615,194.692308 C119.697115,194.692308 138.379808,179.822115 144.153846,159.519231 C145.355769,155.293269 146,147.019231 146,138.153846 C146,129.283654 143.139423,129.076923 140.971154,124.706731 C138.305873,119.343686 134.672798,114.519145 130.254808,110.475962 C121.329115,102.286846 109.651648,97.7514244 97.5384615,97.7692308 C70.7740385,97.7692308 49.0769231,119.466346 49.0769231,146.230769 C49.0769231,172.995192 70.7740385,194.692308 97.5384615,194.692308 Z" id="74fa9ccb-0cb8-4504-995d-ff3e8719b80b" fill="#FF3333"></path>
            <polygon id="74fa9ccb-0cb8-4504-995d-ff3e8719b80b" fill="#FF3333" points="146 47.4423077 146 138.139423 136.307692 141.384615 138.730769 124.423077 136.307692 109.884615 136.307692 0.846153846 199.307692 20.2307692 199.307692 63.8461538"></polygon>
        </g>
    </g>
</svg>