<?xml version="1.0" encoding="UTF-8"?>
<svg width="96px" height="17px" viewBox="0 0 96 17" version="1.1" xmlns="http://www.w3.org/2000/svg" xmlns:xlink="http://www.w3.org/1999/xlink">
    <!-- Generator: Sketch 52.6 (67491) - http://www.bohemiancoding.com/sketch -->
    <title>Group 2</title>
    <desc>Created with Sketch.</desc>
    <defs>
        <linearGradient x1="11.7573328%" y1="33.0304333%" x2="102.170788%" y2="120.432841%" id="linearGradient-1">
            <stop stop-color="#E53322" offset="0%"></stop>
            <stop stop-color="#E73B21" offset="5.173087%"></stop>
            <stop stop-color="#EF7916" offset="38.13%"></stop>
            <stop stop-color="#F7A613" offset="66.05%"></stop>
            <stop stop-color="#FDC207" offset="87.53%"></stop>
            <stop stop-color="#FFCC07" offset="100%"></stop>
        </linearGradient>
    </defs>
    <g id="Page-1" stroke="none" stroke-width="1" fill="none" fill-rule="evenodd">
        <g id="Group-2">
            <g id="Group" transform="translate(28.525785, 1.775637)" fill="#010202">
                <path d="M3.88420648,8.14573588 L1.64246445,13.1619111 L0,13.1619111 L2.44150122,7.81280389 C1.28733701,7.23572179 0.510495709,6.17033944 0.510495709,4.194943 C0.510495709,1.44270526 2.24174203,0.0665863968 4.30592033,0.0665863968 L6.41448956,0.0665863968 L6.41448956,13.1619111 L5.01617523,13.1619111 L5.01617523,8.14573588 L3.88420648,8.14573588 Z M5.06056616,1.26514154 L4.30592033,1.26514154 C3.17395158,1.26514154 2.0641783,2.01978737 2.0641783,4.194943 C2.0641783,6.30351223 3.06297425,6.9693762 4.30592033,6.9693762 L5.06056616,6.9693762 L5.06056616,1.26514154 Z" id="Shape" fill-rule="nonzero"></path>
                <polygon id="Path" points="13.250693 3.92859741 13.250693 13.1619111 11.8301832 13.1619111 11.8301832 9.01135904 9.72161394 9.01135904 9.72161394 13.1619111 8.30110414 13.1619111 8.30110414 3.92859741 9.72161394 3.92859741 9.72161394 7.83499936 11.8301832 7.83499936 11.8301832 3.92859741"></polygon>
                <path d="M19.8649417,11.9855514 L19.8649417,3.92859741 L15.5812169,3.92859741 L15.5812169,4.72763417 C15.5812169,7.16913539 15.492435,10.0323505 14.6490073,12.0077469 L14.0941207,12.0077469 L14.0941207,15.0041348 L15.3592622,15.0041348 L15.3592622,13.1841066 L19.3100551,13.1841066 L19.3100551,15.0041348 L20.5751966,15.0041348 L20.5751966,11.9855514 L19.8649417,11.9855514 Z M18.4444319,11.9855514 L16.0029307,11.9855514 C16.7575765,10.010155 16.8685539,7.19133086 16.8685539,5.23812988 L16.8685539,5.08276162 L18.4666274,5.08276162 L18.4666274,11.9855514 L18.4444319,11.9855514 Z" id="Shape" fill-rule="nonzero"></path>
                <path d="M26.4791905,11.4306648 C26.1018676,11.6748149 25.4803945,12.0521378 24.6591623,12.0521378 C23.5271935,12.0521378 22.927916,10.96456 22.927916,8.85599078 L26.7677315,8.85599078 L26.7677315,8.05695402 C26.7677315,4.92739336 25.7689356,3.77322915 24.2374484,3.77322915 C22.262052,3.77322915 21.4630152,5.92618932 21.4630152,8.90038171 C21.4630152,11.7414013 22.6393749,13.250693 24.548185,13.250693 C25.4581991,13.250693 26.2350403,12.9621519 26.8121225,12.4960471 L26.4791905,11.4306648 Z M24.2374484,4.9717843 C25.0586807,4.9717843 25.3250263,6.12594851 25.3250263,7.70182657 L22.9723069,7.70182657 C23.0388933,6.05936211 23.3718253,4.9717843 24.2374484,4.9717843 Z" id="Shape" fill-rule="nonzero"></path>
                <polygon id="Path" points="29.6753375 8.56744972 29.6753375 13.1619111 28.2548277 13.1619111 28.2548277 3.92859741 29.6753375 3.92859741 29.6753375 8.19012681 31.8948841 3.92859741 33.3375893 3.92859741 31.0514564 8.25671321 33.6705213 13.1619111 32.0946433 13.1619111"></polygon>
                <path d="M33.8480851,8.54525426 C33.8480851,5.63764826 34.9800538,3.79542462 37.133014,3.79542462 C37.9542462,3.79542462 38.4425464,4.01737928 38.8198693,4.2615294 L38.6201102,5.6154528 C38.2427872,5.28252081 37.6879006,4.9717843 37.1108185,4.9717843 C36.0898271,4.9717843 35.3573767,6.12594851 35.3573767,8.4564724 C35.3573767,10.7648008 35.9122634,12.0743333 37.0442321,12.0743333 C37.754487,12.0743333 38.2649827,11.7857922 38.5979147,11.5194467 L38.9308467,12.584829 C38.4425464,13.0065428 37.8432689,13.2950839 36.9998412,13.2950839 C35.0466402,13.2728884 33.8480851,11.6970104 33.8480851,8.54525426 Z" id="Path"></path>
                <path d="M47.2541463,9.1001409 L44.1689766,9.1001409 L43.3255489,13.1619111 L42.5265121,13.1619111 L45.3009453,0.0665863968 L46.2553503,0.0665863968 L49.0297835,13.1619111 L48.1419649,13.1619111 L47.2541463,9.1001409 Z M44.3243448,8.34549507 L47.1209735,8.34549507 L45.9890047,2.95199693 C45.8780274,2.39711029 45.7892455,1.64246445 45.7670501,1.22075061 L45.7226592,1.22075061 C45.6782682,1.66465992 45.5450954,2.35271935 45.4341181,2.95199693 L44.3243448,8.34549507 Z" id="Shape" fill-rule="nonzero"></path>
                <path d="M50.3837069,13.1619111 L50.3837069,3.92859741 L52.3147124,3.92859741 C53.9571769,3.92859741 54.8228001,4.68324324 54.8228001,6.17033944 C54.8228001,7.10254899 54.4232817,7.85719483 53.5132676,8.27890867 C54.6896273,8.63403612 55.2445139,9.41087742 55.2445139,10.5206507 C55.2445139,12.3406789 54.0903497,13.1841066 52.3369079,13.1841066 L50.3837069,13.1619111 Z M51.2271346,4.59446138 L51.2271346,8.01256308 L52.292517,8.01256308 C53.2913129,8.01256308 54.0237633,7.45767644 54.0237633,6.1925349 C54.0237633,5.01617523 53.3578993,4.59446138 52.292517,4.59446138 C52.292517,4.59446138 51.2271346,4.59446138 51.2271346,4.59446138 Z M51.2271346,8.67842705 L51.2271346,12.4960471 L52.3591034,12.4960471 C53.535463,12.4960471 54.3788907,11.9855514 54.3788907,10.5650416 C54.3788907,9.23331369 53.6686358,8.67842705 52.3147124,8.67842705 C52.3369079,8.67842705 51.2271346,8.67842705 51.2271346,8.67842705 Z" id="Shape" fill-rule="nonzero"></path>
                <polygon id="Path" points="59.0399385 4.63885231 59.0399385 13.1397156 58.1743154 13.1397156 58.1743154 4.63885231 56.0213552 4.63885231 56.0213552 3.92859741 61.1485077 3.92859741 61.1485077 4.63885231"></polygon>
                <path d="M61.7033944,8.58964519 C61.7033944,5.50447547 62.924145,3.75103369 64.5222185,3.75103369 C66.120292,3.75103369 67.3410427,5.32691175 67.3410427,8.50086333 C67.3410427,11.5638376 66.120292,13.3394748 64.5222185,13.3394748 C62.924145,13.3394748 61.7033944,11.7414013 61.7033944,8.58964519 Z M66.497615,8.54525426 C66.497615,5.63764826 65.6097963,4.46128859 64.5222185,4.46128859 C63.4346407,4.46128859 62.5468221,5.72643013 62.5468221,8.54525426 C62.5468221,11.4084693 63.4346407,12.6514154 64.5222185,12.6514154 C65.6097963,12.6514154 66.497615,11.3196875 66.497615,8.54525426 Z" id="Shape" fill-rule="nonzero"></path>
            </g>
            <g id="Group" transform="translate(-0.000000, -0.000000)">
                <path d="M11.2087101,10.2543051 C11.2087101,10.2543051 3.08516972,10.2543051 3.08516972,16.7131856 C3.72883822,16.3358627 4.88300243,15.6699987 6.14814397,15.0041348 C7.59084924,14.2716844 9.27770462,13.5170386 11.2309056,13.5170386 C13.1841066,13.5170386 14.9819393,14.2494889 16.4024491,15.0041348 C17.6675906,15.6699987 18.8217548,16.3136672 19.4654233,16.7131856 C19.4432279,10.4540643 11.2752965,10.2543051 11.2087101,10.2543051 Z" id="Path" fill="#FFCC07"></path>
                <path d="M22.0400973,14.0053388 L12.8289791,0.887818624 C12.4516562,0.310736519 11.8523786,0.0665863968 11.2752965,0.0665863968 C10.6982144,0.0665863968 10.1211323,0.310736519 9.69941847,0.887818624 L0.488300243,14.0053388 C-0.110977328,14.870962 0.110977328,16.0473216 0.954405021,16.6687947 C1.84222365,17.2902677 3.01858332,17.0683131 3.64005636,16.2026899 C6.34790316,12.3406789 8.74501345,10.4762598 11.2531011,10.6094326 C13.7611887,10.4540643 16.158299,12.3184834 18.8661458,16.2026899 C19.4654233,17.0905085 20.6861739,17.2680722 21.5517971,16.6687947 C22.4396157,16.0695171 22.6393749,14.8931574 22.0400973,14.0053388 Z" id="Path" fill="url(#linearGradient-1)"></path>
            </g>
        </g>
    </g>
</svg>