<svg width="1024" height="1024" viewBox="0 0 1024 1024" xmlns="http://www.w3.org/2000/svg"><g transform="translate(102 102)" fill="none" fill-rule="evenodd"><path d="M.003 410c0-225.92 184.08-410 410-410 225.921 0 410 184.08 410 410h-820z" fill="#F33"/><ellipse fill="#E00000" cx="410" cy="410" rx="410" ry="51.25"/><path d="M427.167 358.794v321.247c0 18.126.593 41.22 1.814 49.277 5.54 36.577 25.948 56.525 58.54 56.525 32.593 0 59.229-25.635 59.229-68.343v-17.083h34.167V717.5c0 47.075-26.203 102.5-93.959 102.5-43.518 0-75.05-23.16-87.434-62.066-3.767-11.832-6.524-44.886-6.524-59.408V358.793a3334.888 3334.888 0 0 1 34.167.001z" fill="#000" fill-rule="nonzero"/></g></svg>