<svg xmlns="http://www.w3.org/2000/svg" viewBox="0 0 22 22"><defs><style>.cls-1{fill:#4452c4;}.cls-2{fill:#fff;}</style></defs><title>Внимание</title><g id="Слой_2" data-name="Слой 2"><g id="Слой_1-2" data-name="Слой 1"><g id="Внимание"><circle class="cls-1" cx="11" cy="11" r="11"/><path class="cls-2" d="M11,16.35a1.42,1.42,0,0,1-.55-.11,1.44,1.44,0,0,1-.77-.74,1.31,1.31,0,0,1,0-1.05A1.48,1.48,0,0,1,10,14a1.31,1.31,0,0,1,.46-.3,1.56,1.56,0,0,1,1.1,0A1.19,1.19,0,0,1,12,14a1.28,1.28,0,0,1,.3.43,1.17,1.17,0,0,1,.11.53,1.16,1.16,0,0,1-.11.52,1.43,1.43,0,0,1-.3.44,1.48,1.48,0,0,1-.45.3A1.42,1.42,0,0,1,11,16.35Z"/><polygon class="cls-2" points="12.12 5.23 11.84 11.96 10.15 11.96 9.88 5.23 12.12 5.23"/></g></g></g></svg>