<svg xmlns="http://www.w3.org/2000/svg" width="16.938" height="16.81" viewBox="0 0 16.938 16.81">
  <metadata><?xpacket begin="﻿" id="W5M0MpCehiHzreSzNTczkc9d"?>
<x:xmpmeta xmlns:x="adobe:ns:meta/" x:xmptk="Adobe XMP Core 5.6-c138 79.159824, 2016/09/14-01:09:01        ">
   <rdf:RDF xmlns:rdf="http://www.w3.org/1999/02/22-rdf-syntax-ns#">
      <rdf:Description rdf:about=""/>
   </rdf:RDF>
</x:xmpmeta>
                                                                                                    
                                                                                                    
                                                                                                    
                                                                                                    
                                                                                                    
                                                                                                    
                                                                                                    
                                                                                                    
                                                                                                    
                                                                                                    
                                                                                                    
                                                                                                    
                                                                                                    
                                                                                                    
                                                                                                    
                                                                                                    
                                                                                                    
                                                                                                    
                                                                                                    
                                                                                                    
                           
<?xpacket end="w"?></metadata>
<defs>
    <style>
      .cls-1 {
        fill: #9d221a;
        fill-rule: evenodd;
      }
    </style>
  </defs>
  <path class="cls-1" d="M669.46,6864.77a8.415,8.415,0,1,0,8.471,8.42A8.445,8.445,0,0,0,669.46,6864.77Zm0,2.96,5.013,3.1H664.447Zm5.075,8.06h0a0.9,0.9,0,0,1-.908.9h-8.334a0.9,0.9,0,0,1-.908-0.9v-4.76a0.846,0.846,0,0,1,.014-0.15l4.79,2.96a0.017,0.017,0,0,0,.018.01,0.019,0.019,0,0,0,.019.01,0.42,0.42,0,0,0,.105.04c0,0.01.007,0.01,0.011,0.01a0.467,0.467,0,0,0,.118.01h0a0.471,0.471,0,0,0,.118-0.01s0.007,0,.011-0.01a0.429,0.429,0,0,0,.1-0.04,0.018,0.018,0,0,0,.019-0.01,0.019,0.019,0,0,0,.019-0.01l4.789-2.96a0.846,0.846,0,0,1,.014.15v4.76h0Z" transform="translate(-661 -6864.78)"/>
</svg>
