<svg xmlns="http://www.w3.org/2000/svg" viewBox="0 0 119.09 16"><defs><style>.cls-1{fill:#40444d;}</style></defs><title>logo</title><g id="Слой_2" data-name="Слой 2"><g id="Слой_1-2" data-name="Слой 1"><g id="logo"><path class="cls-1" d="M3.8,11C3.8,12,5,12.53,6.23,12.53S8.57,12,8.57,11.08c0-1.46-1.71-1.53-2.82-1.59C3,9.31.15,8.2.15,5S3,0,6.1,0c3,0,6,1.68,5.88,5H8.24c0-1-1-1.49-2.07-1.49-.9,0-2.08.24-2.08,1.4S5,6.19,6.43,6.34c3.25.28,6.1,1,6.1,4.76,0,3.22-3.13,4.9-6.26,4.9S-.06,14.38,0,11Z"/><path class="cls-1" d="M14.6,10.6V.35h4V10.51c0,1.27,1.12,1.82,2.25,1.82s2.21-.55,2.21-1.82V.35h4V10.6c0,3.43-3,5.25-6.19,5.25S14.6,14,14.6,10.6Z"/><path class="cls-1" d="M30,15.63V.33c2.27,0,4.48,0,6.75,0a5.35,5.35,0,0,1,5.49,5.75,5.35,5.35,0,0,1-5.49,5.59H34v4ZM36.72,8.2c1.05,0,1.67-1.12,1.67-2.23S37.82,3.8,36.72,3.8H33.9V8.2Z"/><path class="cls-1" d="M53.67,3.83H48.11V6h5.12v3.5H48.11V12h5.75v3.65H44.11V.35h9.56Z"/><path class="cls-1" d="M69.38,15.06v.57H65.14l-2.62-4.79h-2.1v4.79h-4V.33c2.27,0,4.48,0,6.73,0a5.24,5.24,0,0,1,5.51,5.42,5.36,5.36,0,0,1-2.27,4.46ZM63.13,7.58a1.73,1.73,0,0,0,1.66-1.92A1.67,1.67,0,0,0,63.13,3.8H60.36V7.58Z"/><path class="cls-1" d="M70.83,7.8a2.17,2.17,0,0,1,4.32,0,2.17,2.17,0,0,1-4.32,0Z"/><path class="cls-1" d="M84.66,15.93A7.48,7.48,0,0,1,76.84,8,7.85,7.85,0,1,1,92.53,8,7.55,7.55,0,0,1,84.66,15.93Zm0-3.78A3.87,3.87,0,0,0,88.53,8a3.86,3.86,0,1,0-7.69,0A3.84,3.84,0,0,0,84.68,12.15Z"/><path class="cls-1" d="M94.81,15.63V.33c2.27,0,4.48,0,6.75,0a5.36,5.36,0,0,1,5.49,5.75,5.35,5.35,0,0,1-5.49,5.59H98.81v4Zm6.75-7.43c1,0,1.66-1.12,1.66-2.23s-.57-2.17-1.66-2.17H98.74V8.2Z"/><path class="cls-1" d="M107.73,3.85V.35h11.36v3.5h-3.74v11.8h-3.87V3.85Z"/></g></g></g></svg>