<svg width="0" height="0" class="hidden">

	<symbol xmlns="http://www.w3.org/2000/svg" viewBox="0 0 15.23 13.58" id="tg-icon">
		<path d="M15 .16a.69.69 0 0 0-.7-.16L.44 5.24a.69.69 0 0 0 0 1.28L4.42 8a.12.12 0 0 1 .08.09l1 3.55a.7.7 0 0 0 .54.48.65.65 0 0 0 .66-.26l1.2-1.58a.14.14 0 0 1 .1 0 .16.16 0 0 1 .1 0l3.67 3.15a.7.7 0 0 0 .45.17.85.85 0 0 0 .22 0 .68.68 0 0 0 .45-.52L15.21.81A.67.67 0 0 0 15 .16zM6 11.5L5 8a.19.19 0 0 0 0-.07.53.53 0 0 1 .22-.64L14.36.72 6.73 8.35l-.62 3.23A.1.1 0 0 1 6 11.5z">
		</path>
	</symbol>

	<symbol xmlns="http://www.w3.org/2000/svg" viewBox="0 0 25.04 14.24" id="vk-icon">
		<path d="M.69.23H4a1.39 1.39 0 0 1 1.29.88c.32.84 1 2.13 1.41 3.2a24 24 0 0 0 1.88 3.8.46.46 0 0 0 .82-.3l-.05-6c0-.39-.08-.69-.44-.84S8.18.9 8.18.69c0-.38 1-.69 1.87-.69h2.75a1.62 1.62 0 0 1 1.62 1.62v4a.92.92 0 0 0 1.62.6 10.3 10.3 0 0 0 1.12-1.54A37.72 37.72 0 0 0 18.92 1a.45.45 0 0 1 .42-.29h4.48c1.1 0 1.31.51.8 1.37S23.6 3.78 23 4.69c-.76 1.07-1.43 1.95-2 2.74a1 1 0 0 0 .1 1.32 19.62 19.62 0 0 1 2.16 2.12c.51.6 1.23 1.46 1.69 2.13a.69.69 0 0 1-.57 1.08h-4.66a1.15 1.15 0 0 1-.79-.31l-3.12-2.9a.69.69 0 0 0-1.16.5V13a1.15 1.15 0 0 1-1.13 1.15c-2.14 0-6.21 1-9.46-5.3C1.93 4.72.61 2.41.06 1.21A.69.69 0 0 1 .69.23z">
		</path>
	</symbol>

	<symbol xmlns="http://www.w3.org/2000/svg" viewBox="0 0 477.175 477.175" id="next-icon">
		<path d="M360.731 229.075l-225.1-225.1c-5.3-5.3-13.8-5.3-19.1 0s-5.3 13.8 0 19.1l215.5 215.5-215.5 215.5c-5.3 5.3-5.3 13.8 0 19.1 2.6 2.6 6.1 4 9.5 4 3.4 0 6.9-1.3 9.5-4l225.1-225.1c5.3-5.2 5.3-13.8.1-19z">
		</path>
	</symbol>

	<symbol xmlns="http://www.w3.org/2000/svg" viewBox="0 0 510 510" id="heart-icon">
		<path d="M255 489.6l-35.7-35.7C86.7 336.6 0 257.55 0 160.65 0 81.6 61.2 20.4 140.25 20.4c43.35 0 86.7 20.4 114.75 53.55C283.05 40.8 326.4 20.4 369.75 20.4 448.8 20.4 510 81.6 510 160.65c0 96.9-86.7 175.95-219.3 293.25L255 489.6z">
		</path>
	</symbol>

	<symbol xmlns="http://www.w3.org/2000/svg" viewBox="0 0 14.71 14.71" id="inst-icon">
		<path d="M6.28 14.71c-2.93 0-4.45-.05-5.35-1S0 10.89 0 7.35C0 .27.27 0 7.35 0s7.36.27 7.36 7.35-.28 7.36-7.36 7.36H6.28zM7.35 1.18c-3.11 0-4.82 0-5.5.67s-.67 2.39-.67 5.5 0 4.85.62 5.52 2.16.65 5 .65h.57c3.12 0 4.83 0 5.5-.67s.67-2.38.67-5.5 0-4.82-.67-5.5-2.4-.67-5.52-.67z"></path>
		<path d="M7.35 11.32a4 4 0 1 1 4-4 4 4 0 0 1-4 4zm0-6.75a2.79 2.79 0 1 0 2.79 2.78 2.79 2.79 0 0 0-2.79-2.78z"></path>
		<circle cx="11.54" cy="3.16" r=".77"></circle>
	</symbol>

	<symbol xmlns="http://www.w3.org/2000/svg" viewBox="0 0 17.13 12.73" id="yt-icon">
		<path d="M11.41 0H5.78C.22 0 0 .44 0 6.36c0 3.06 0 4.64.8 5.47s2.1.9 4.64.9h5.33c6.13 0 6.36-.24 6.36-6.37 0-5.9-.22-6.36-5.72-6.36zM6 9.33V3.39l5.94 3z">
		</path>
	</symbol>

	<symbol xmlns="http://www.w3.org/2000/svg" viewBox="0 0 16.5 15" id="like-icon">
		<path d="M3 15H0V6h3m13.5.75h-.07v1.5a1.18 1.18 0 0 1-.08.52L14.1 14.1a1.48 1.48 0 0 1-1.35.9H6a1.5 1.5 0 0 1-1.5-1.5V6A1.25 1.25 0 0 1 5 5l4.9-5 .83.75a1.54 1.54 0 0 1 .3.82v.23l-.75 3.45H15a1.5 1.5 0 0 1 1.5 1.5z">
		</path>
	</symbol>

	<symbol xmlns="http://www.w3.org/2000/svg" viewBox="0 0 20.73 12" id="view-icon">
		<path d="M20.73 6s-4.37-6-10.37-6S0 6 0 6s4.36 6 10.36 6 10.37-6 10.37-6z"></path>
		<circle cx="10.36" cy="6" r="4.91" fill="#fff"></circle>
		<circle cx="10.36" cy="6" r="2.73"></circle>
	</symbol>

</svg>