<svg xmlns="http://www.w3.org/2000/svg" xmlns:xlink="http://www.w3.org/1999/xlink" viewBox="0 0 94.74 71"><defs><style>.cls-1{isolation:isolate;}.cls-2{fill:url(#Безымянный_градиент_2);}.cls-3{opacity:0.1;mix-blend-mode:multiply;}.cls-4{fill:url(#Безымянный_градиент_32);}.cls-5{fill:url(#Безымянный_градиент_40);}.cls-6{fill:url(#Безымянный_градиент_40-2);}.cls-7{fill:#fff;}.cls-8{fill:#759900;}</style><linearGradient id="Безымянный_градиент_2" x1="41.74" y1="36.34" x2="94.74" y2="36.34" gradientUnits="userSpaceOnUse"><stop offset="0" stop-color="#297bfb"/><stop offset="0.13" stop-color="#3e72fb"/><stop offset="0.37" stop-color="#5d64fc"/><stop offset="0.6" stop-color="#7459fd"/><stop offset="0.81" stop-color="#8253fd"/><stop offset="1" stop-color="#8751fd"/></linearGradient><linearGradient id="Безымянный_градиент_32" x1="74.88" y1="77.29" x2="-2.79" y2="-4.04" gradientUnits="userSpaceOnUse"><stop offset="0" stop-color="#f7bf33"/><stop offset="0.31" stop-color="#f7ba33"/><stop offset="0.67" stop-color="#f7ac33"/><stop offset="1" stop-color="#f79833"/></linearGradient><linearGradient id="Безымянный_градиент_40" x1="42.99" y1="13.75" x2="28.49" y2="-0.75" gradientUnits="userSpaceOnUse"><stop offset="0" stop-color="#fff"/><stop offset="0.45" stop-color="#fff" stop-opacity="0.79"/><stop offset="0.81" stop-color="#fff" stop-opacity="0.65"/><stop offset="1" stop-color="#fff" stop-opacity="0.6"/></linearGradient><linearGradient id="Безымянный_градиент_40-2" x1="-173.25" y1="-430.08" x2="-184.75" y2="-441.58" gradientTransform="translate(-143.26 -368.33) rotate(180)" xlink:href="#Безымянный_градиент_40"/></defs><title>имг 7</title><g class="cls-1"><g id="Слой_2" data-name="Слой 2"><g id="Категории"><g id="имг_7" data-name="имг 7"><rect class="cls-2" x="41.74" y="9.84" width="53" height="53" rx="3" ry="3"/><rect class="cls-3" x="21.74" y="9.84" width="53" height="53"/><rect class="cls-4" y="0.53" width="70" height="70" rx="4" ry="4"/><polygon class="cls-5" points="43.74 13 41.08 11 38.41 13 35.75 11 33.08 13 30.41 11 27.74 13 27.74 0 43.74 0 43.74 13"/><polygon class="cls-6" points="27.74 64 30.4 66 33.07 64 35.73 66 38.4 64 41.07 66 43.74 64 43.74 71 27.74 71 27.74 64"/><circle class="cls-7" cx="69.37" cy="36.84" r="16"/><path class="cls-8" d="M61,36.87a8.49,8.49,0,0,1,1.08-4.55,8.65,8.65,0,0,1,3.43-3.38,9,9,0,0,1,9.57.62L74,31a7.52,7.52,0,0,0-3.79-1.77,7.88,7.88,0,0,0-4.28.54,8,8,0,0,0-3.43,2.8A8.26,8.26,0,0,0,61,36.87Z"/><path class="cls-8" d="M77.75,36.87a8.57,8.57,0,0,1-.94,4.31,8.71,8.71,0,0,1-3.06,3.35,9,9,0,0,1-4.43,1.39,9.15,9.15,0,0,1-4.65-1.05l.91-1.55a7.55,7.55,0,0,0,3.75,1.25,7.78,7.78,0,0,0,4-.83A8,8,0,0,0,76.42,41,8.37,8.37,0,0,0,77.75,36.87Z"/><polygon class="cls-8" points="75.4 27.84 75.71 31.38 72.17 31.69 75.4 27.84"/><polygon class="cls-8" points="67.41 42.28 63.81 42.6 64.12 46.2 67.41 42.28"/></g></g></g></g></svg>