<svg xmlns="http://www.w3.org/2000/svg" xmlns:xlink="http://www.w3.org/1999/xlink" viewBox="0 0 110.48 70"><defs><style>.cls-1{isolation:isolate;}.cls-2{fill:url(#Безымянный_градиент_52);}.cls-3{opacity:0.5;mix-blend-mode:soft-light;}.cls-4{fill:#fff;}.cls-5{fill:#750000;opacity:0.1;}.cls-6{fill:url(#Безымянный_градиент_2);}</style><linearGradient id="Безымянный_градиент_52" x1="123.35" y1="8.52" x2="34.84" y2="75.98" gradientUnits="userSpaceOnUse"><stop offset="0" stop-color="#f79833"/><stop offset="0.71" stop-color="#f7b333"/><stop offset="1" stop-color="#f7bf33"/></linearGradient><linearGradient id="Безымянный_градиент_2" y1="25" x2="79.79" y2="25" gradientUnits="userSpaceOnUse"><stop offset="0" stop-color="#297bfb"/><stop offset="0.13" stop-color="#3e72fb"/><stop offset="0.37" stop-color="#5d64fc"/><stop offset="0.6" stop-color="#7459fd"/><stop offset="0.81" stop-color="#8253fd"/><stop offset="1" stop-color="#8751fd"/></linearGradient></defs><title>имг 9</title><g class="cls-1"><g id="Слой_2" data-name="Слой 2"><g id="Категории"><g id="имг_9" data-name="имг 9"><path class="cls-2" d="M102.48,20h-54a8,8,0,0,0-8,8l-.17,30.31a4,4,0,0,1-1.39,3l-7.87,6.75a1,1,0,0,0,.64,1.76l70.79.17a8,8,0,0,0,8-8V28A8,8,0,0,0,102.48,20Z"/><g class="cls-3"><rect class="cls-4" x="53.58" y="38.36" width="43.92" height="3.85" rx="1.92" ry="1.92"/><rect class="cls-4" x="53.58" y="30.59" width="43.92" height="3.85" rx="1.92" ry="1.92"/><rect class="cls-4" x="53.58" y="53.9" width="21.92" height="3.85" rx="1.92" ry="1.92"/><rect class="cls-4" x="53.58" y="46.13" width="43.92" height="3.85" rx="1.92" ry="1.92"/></g><path class="cls-5" d="M75,44.13V20H48.48a8,8,0,0,0-8,8V53.93l43.31-.1a1,1,0,0,0,.65-1.76l-9.26-7.94Z"/><path class="cls-6" d="M78.79,49.83a1,1,0,0,0,.65-1.76l-8-6.74A4,4,0,0,1,70,38.27V8a8,8,0,0,0-8-8H8A8,8,0,0,0,0,8V42a8,8,0,0,0,8,8Z"/><rect class="cls-4" x="13.58" y="19.36" width="43.92" height="3.85" rx="1.92" ry="1.92"/><rect class="cls-4" x="13.58" y="11.59" width="43.92" height="3.85" rx="1.92" ry="1.92"/><rect class="cls-4" x="13.58" y="34.9" width="21.92" height="3.85" rx="1.92" ry="1.92"/><rect class="cls-4" x="13.58" y="27.13" width="43.92" height="3.85" rx="1.92" ry="1.92"/></g></g></g></g></svg>