<svg xmlns="http://www.w3.org/2000/svg" xmlns:xlink="http://www.w3.org/1999/xlink" viewBox="0 0 125.13 69.56"><defs><style>.cls-1{isolation:isolate;}.cls-2{fill:#e6a35c;}.cls-3{fill:#222c34;}.cls-4{fill:#2a3640;}.cls-5,.cls-6,.cls-7{fill:#f7c998;}.cls-6,.cls-7{opacity:0.3;}.cls-6{mix-blend-mode:multiply;}.cls-8{fill:url(#Безымянный_градиент_32);}</style><linearGradient id="Безымянный_градиент_32" x1="103.39" y1="33.64" x2="108.66" y2="33.64" gradientTransform="translate(6.43 -15.9) rotate(8.85)" gradientUnits="userSpaceOnUse"><stop offset="0" stop-color="#f7bf33"/><stop offset="0.31" stop-color="#f7ba33"/><stop offset="0.67" stop-color="#f7ac33"/><stop offset="1" stop-color="#f79833"/></linearGradient></defs><title>имг 6</title><g class="cls-1"><g id="Слой_2" data-name="Слой 2"><g id="Категории"><g id="имг_6" data-name="имг 6"><path class="cls-2" d="M34.74,41.89c6.37,5.22,26.19,16,31.37,21.22S87.79,38,87.79,38L58,22.48Z"/><path class="cls-3" d="M124.54,31.33a3,3,0,0,1-1,4.43l-15.61,8.33A5,5,0,0,1,101,42.35L83.69,12.76a3.36,3.36,0,0,1,1.08-4.54L98.31.4a3,3,0,0,1,3.92.81Z"/><path class="cls-4" d="M113.06,15.84l11.48,15.49a3,3,0,0,1-1,4.43l-15.61,8.33A5,5,0,0,1,101,42.35L91.91,26.78Z"/><path class="cls-5" d="M68.11,69.56a3.92,3.92,0,0,1-3.22-1.67c-1.71-2.44-1.83-4.44-.33-5.49l1.22-1.23.07,0a1.62,1.62,0,0,0-.94-.47c-2.2,1.62-7.08,5.83-7.13,5.88a4.66,4.66,0,0,1-5.91-7.21l4.62-3.91a.66.66,0,0,0,.24-.49.69.69,0,0,0-.19-.51.68.68,0,0,0-.49-.2.65.65,0,0,0-.44.16l-8.31,7a5.35,5.35,0,0,1-3.41,1.25,4.76,4.76,0,0,1-3-1,5.06,5.06,0,0,1-.24-7.74l7-6a.69.69,0,0,0,.12-.88l-.12-.19a.7.7,0,0,0-.58-.31.66.66,0,0,0-.43.16l-4.94,4.35A4.71,4.71,0,0,1,38.4,52.5a5.32,5.32,0,0,1-4.89-3.6c-.8-2.32.08-4.72,2.44-6.58L52,29.7,73.49,13.09a.48.48,0,0,1,.12-.16,1.16,1.16,0,0,1,.9-.31A13.77,13.77,0,0,1,79,14c4.87,2.09,6.14,3.12,7.47,5.17,2.25,3.44,8.82,13.62,13.06,20.18a7.71,7.71,0,0,1-2.07,10.52l-27.09,19A3.91,3.91,0,0,1,68.11,69.56Z"/><path class="cls-6" d="M52.34,30.09l19.38-15a40.42,40.42,0,0,1,3.79,1.61c.57.3,3.63,3.94,5.94,6.74a4,4,0,0,1-.7,5.72h0a3.89,3.89,0,0,1-5.34-.67L72.55,25a6,6,0,0,0-8.36-.88L38.52,44.7a1.49,1.49,0,0,1-1,.32c-.79,0-2.31-.12-3.95-.12Z"/><path class="cls-2" d="M36.11,43.11,64.19,21.53a6,6,0,0,1,8.36.88l2.86,3.49a3.89,3.89,0,0,0,5.34.67h0a4,4,0,0,0,.7-5.72c-2.31-2.8-5.37-6.43-5.94-6.74-.94-.51-7.84-3.54-11.41-3.42S50.42,16,47.48,16.51a39.65,39.65,0,0,1-5.56.39A3.93,3.93,0,0,0,38.49,19L26,43.2a27.64,27.64,0,0,1,5.81-.87C34,42.26,35.82,43.34,36.11,43.11Z"/><path class="cls-2" d="M85,53.28l2.94,4.47a4.07,4.07,0,0,0,5.67,1.14h0a4.14,4.14,0,0,0,1.14-5.71l-2.95-4.47a4.08,4.08,0,0,0-5.67-1.15h0A4.16,4.16,0,0,0,85,53.28Z"/><path class="cls-7" d="M88.72,54.41a2.74,2.74,0,0,0,1.54-.47A2.85,2.85,0,0,0,91,50l-.36-.58a2.78,2.78,0,0,0-2.33-1.26,2.71,2.71,0,0,0-1.53.47A2.84,2.84,0,0,0,86,52.56l.36.59A2.75,2.75,0,0,0,88.72,54.41Z"/><path class="cls-2" d="M76.8,57.78l3,4.62a4.21,4.21,0,0,0,5.86,1.19h0a4.28,4.28,0,0,0,1.18-5.9l-3-4.62A4.21,4.21,0,0,0,78,51.88h0A4.28,4.28,0,0,0,76.8,57.78Z"/><path class="cls-2" d="M71.23,62l2.07,3.15a2.87,2.87,0,0,0,4,.81h0a2.92,2.92,0,0,0,.81-4L76,58.79A2.87,2.87,0,0,0,72,58h0A2.91,2.91,0,0,0,71.23,62Z"/><path class="cls-7" d="M74.85,61.3c.65-.6.09-1.8.09-1.8a1.6,1.6,0,0,0-1.32-.71,1.52,1.52,0,0,0-.87.27,1.62,1.62,0,0,0-.44,2.23S73.13,62.89,74.85,61.3Z"/><path class="cls-2" d="M92.61,49.08l.39.6a3.65,3.65,0,0,0,5.08,1h0a3.72,3.72,0,0,0,1-5.13l-.4-.6a3.64,3.64,0,0,0-5.08-1h0A3.71,3.71,0,0,0,92.61,49.08Z"/><path class="cls-7" d="M96.06,50a2.27,2.27,0,0,0,1.3-.4A2.42,2.42,0,0,0,98,46.29l-.4-.59A2.35,2.35,0,0,0,94.35,45a2.42,2.42,0,0,0-.66,3.34l.39.59A2.36,2.36,0,0,0,96.06,50Z"/><path class="cls-3" d="M.57,33.87a3,3,0,0,0,1.07,4.44L20,47.63c2.19,1.16,3.64-.22,4.78-2.44L41.06,13.44a2.88,2.88,0,0,0-1.3-3.9c-4-1.94-10.06-5.13-13.33-6.87a3,3,0,0,0-3.83.89Z"/><path class="cls-4" d="M10.64,20l21.88,10.1L24.79,45.19c-1.14,2.22-2.59,3.6-4.78,2.44L1.64,38.31A3,3,0,0,1,.57,33.87Z"/><ellipse class="cls-8" cx="106.03" cy="33.64" rx="2.63" ry="2.66" transform="translate(-3.91 16.7) rotate(-8.85)"/><path class="cls-7" d="M81,59.13a2.71,2.71,0,0,0,1.53-.47,2.85,2.85,0,0,0,.78-3.93l-.36-.58a2.76,2.76,0,0,0-3.86-.79,2.84,2.84,0,0,0-.78,3.92l.36.59A2.78,2.78,0,0,0,81,59.13Z"/></g></g></g></g></svg>