<svg xmlns="http://www.w3.org/2000/svg" xmlns:xlink="http://www.w3.org/1999/xlink" viewBox="0 0 92 70"><defs><style>.cls-1{fill:url(#Безымянный_градиент_24);}.cls-2{fill:#93ba12;}.cls-3{fill:#fff;}.cls-4{fill:#f1f2f1;}.cls-5{fill:#fce1ae;}.cls-6{fill:#a76a4a;}.cls-7{fill:#f9ce86;}.cls-8{fill:#fcc295;}.cls-10,.cls-11,.cls-9{fill:none;stroke-miterlimit:10;}.cls-9{stroke:#000;}.cls-10{stroke:#a76a4a;}.cls-10,.cls-11{stroke-linecap:round;}.cls-11{stroke:#f9cc84;}.cls-12{fill:#524758;}.cls-13{fill:#ee7e64;}.cls-14{fill:#f6c5a0;}.cls-15{fill:#ebebeb;}.cls-16{fill:#aaabae;}.cls-17{fill:#e0e2e6;}.cls-18{fill:#eb625e;}</style><radialGradient id="Безымянный_градиент_24" cx="86.4" cy="-43.91" r="22.24" gradientTransform="translate(-9.56 49.43) scale(0.97 0.71)" gradientUnits="userSpaceOnUse"><stop offset="0" stop-color="#f29b79"/><stop offset="0.14" stop-color="#f18e73"/><stop offset="0.46" stop-color="#ef7768"/><stop offset="0.75" stop-color="#ee6861"/><stop offset="1" stop-color="#ee635f"/></radialGradient></defs><title>имг 1</title><g id="Слой_2" data-name="Слой 2"><g id="Категории"><g id="имг_1" data-name="имг 1"><path class="cls-1" d="M86,36.13H61.89a6,6,0,0,1-6-6V6a6,6,0,0,1,6-6H86a6,6,0,0,1,6,6V30.11A6,6,0,0,1,86,36.13Z"/><path class="cls-2" d="M78.45,70H60.39a4.52,4.52,0,0,1-4.52-4.52V47.42a4.52,4.52,0,0,1,4.52-4.52H78.45A4.52,4.52,0,0,1,83,47.42V65.48A4.52,4.52,0,0,1,78.45,70Z"/><path class="cls-3" d="M76.08,53.32l-3.4-3.39a1.8,1.8,0,0,0-2.54,0L67.7,52.37a1.8,1.8,0,0,0,0,2.54l.43.43-1.08,1.07V57.9H65.56v1.48H64.08v1.49L62.51,61V63.5h.11l5.82-5.83.43.42L63.46,63.5h1.59l5.62-5.62.42.42a1.81,1.81,0,0,0,2.55,0l2.44-2.43A1.83,1.83,0,0,0,76.08,53.32Zm-5.15,1.87a1.69,1.69,0,1,1,2.39,0A1.7,1.7,0,0,1,70.93,55.19Z"/><path class="cls-3" d="M77.33,13.1c0,2.87-1.6,6-3.58,6s-3.57-3.15-3.57-6S71.78,9,73.75,9,77.33,10.22,77.33,13.1Z"/><path class="cls-3" d="M80.37,21.38c-1-.27-2.2-.59-3.34-.84a.77.77,0,0,0-.89.5L74.9,24.43a19.82,19.82,0,0,1-.59-2.2.15.15,0,0,1,0-.13l.28-.28a.13.13,0,0,0,0-.13L74.55,21a.15.15,0,0,0-.15-.13H73.11A.15.15,0,0,0,73,21l-.12.73a.13.13,0,0,0,0,.13l.28.28a.15.15,0,0,1,0,.13l-.29,2.17a.16.16,0,0,1-.3,0L71.37,21a.77.77,0,0,0-.89-.5c-1.14.25-2.34.57-3.34.84a3.27,3.27,0,0,0-2.39,3.15v1.16a.77.77,0,0,0,.56.74,34.92,34.92,0,0,0,8.44,1.39,34.83,34.83,0,0,0,8.45-1.39.77.77,0,0,0,.56-.74V24.53A3.27,3.27,0,0,0,80.37,21.38Z"/><path class="cls-4" d="M45.9,65.73C45.9,68.09,35.63,70,23,70S0,68.09,0,65.73a66.42,66.42,0,0,1,23-4.27A66.35,66.35,0,0,1,45.9,65.73Z"/><rect class="cls-5" x="17.08" y="28.9" width="11.74" height="25.29"/><path class="cls-6" d="M11.9,17.47a16.92,16.92,0,0,1-3.57,4.37,25.16,25.16,0,0,1-1.19-6.75C7.14,11.91,10.71,0,23,0S11.9,17.47,11.9,17.47Z"/><path class="cls-6" d="M34.14,17.47a17,17,0,0,0,3.58,4.37,25.16,25.16,0,0,0,1.19-6.75C38.91,11.91,35.33,0,23,0S34.14,17.47,34.14,17.47Z"/><circle class="cls-7" cx="35.33" cy="23.03" r="2.78"/><circle class="cls-7" cx="10.71" cy="23.03" r="2.78"/><path class="cls-8" d="M23,41.71a17.82,17.82,0,0,0,5.87-1V28.45H17.08V40.7A17.82,17.82,0,0,0,23,41.71Z"/><path class="cls-5" d="M17.36,7.44a7.44,7.44,0,0,0-7.44,7.44V25.7c.29,7,6,13.75,13.09,13.75S35.83,32.68,36.11,25.7V14.88a7.44,7.44,0,0,0-7.43-7.44Z"/><path class="cls-5" d="M17.36,7.44a7.44,7.44,0,0,0-7.44,7.44V25.7c.29,7,6,13.75,13.09,13.75S35.83,32.68,36.11,25.7V14.88a7.44,7.44,0,0,0-7.43-7.44Z"/><circle class="cls-9" cx="29.38" cy="22.63" r="3.57"/><circle class="cls-9" cx="16.67" cy="22.63" r="3.57"/><circle cx="16.67" cy="22.63" r="0.79"/><path class="cls-10" d="M12.56,18.32a5.94,5.94,0,0,1,4.11-1.64,5.71,5.71,0,0,1,1.5.19"/><path class="cls-9" d="M20.24,22.37a3.57,3.57,0,0,1,5.56,0"/><path class="cls-11" d="M21.43,26.59a8.5,8.5,0,0,0,3.18,0"/><path class="cls-12" d="M27.39,31a4.22,4.22,0,0,1-4.37,4,4.23,4.23,0,0,1-4.37-4c0-1.31,2-.79,4.37-.79S27.39,29.66,27.39,31Z"/><path class="cls-13" d="M23,34.94a4.46,4.46,0,0,0,2.38-.63,2.77,2.77,0,0,0-4.76,0A4.48,4.48,0,0,0,23,34.94Z"/><path class="cls-3" d="M25,31.77a1.6,1.6,0,0,0,1.59-1.59s0,0,0-.05a29.67,29.67,0,0,0-3.57.05,29.66,29.66,0,0,0-3.57-.05v.05A1.59,1.59,0,0,0,21,31.77Z"/><ellipse class="cls-14" cx="14.68" cy="28.59" rx="1.59" ry="0.79"/><circle cx="29.24" cy="22.63" r="0.79"/><path class="cls-10" d="M33.35,18.32a5.94,5.94,0,0,0-4.11-1.64,5.71,5.71,0,0,0-1.5.19"/><ellipse class="cls-14" cx="31.22" cy="28.59" rx="1.59" ry="0.79"/><path class="cls-15" d="M23,31c1.37,0,2.59-.17,3.39-.07a1.49,1.49,0,0,0,.19-.72s0,0,0-.05a29.67,29.67,0,0,0-3.57.05,29.66,29.66,0,0,0-3.57-.05v.05a1.6,1.6,0,0,0,.18.72C20.43,30.8,21.65,31,23,31Z"/><path class="cls-4" d="M28.82,40.65h-.14l.05.15c1.18,2.47.41,5.94-2.31,7.1A19.53,19.53,0,0,0,23,57.19v8.54h23A45.65,45.65,0,0,1,44.3,54C44.3,47.58,37.36,40.65,28.82,40.65Z"/><path class="cls-6" d="M36.83,3.89a12.68,12.68,0,0,1-5.77,1.37A12.72,12.72,0,0,1,21.73,1.2c-.28.78-.61,1.52-.9,2.21-.82,2-6.48,1.82-7.56.83a3.64,3.64,0,0,1-1.79,1.62l-.52.5c-.31.35-.64.7-.93,1.08A6.32,6.32,0,0,0,8.92,9.85a8.08,8.08,0,0,0-.4,2.84,11.11,11.11,0,0,0,.22,1.15,6.83,6.83,0,0,0,.78.06,5.56,5.56,0,0,0,5.54-5.11,13.79,13.79,0,0,0,11.64,6.4A13.81,13.81,0,0,0,39.59,6.31C40.62,3.61,39.41,2.58,36.83,3.89Z"/><path class="cls-16" d="M28.82,40.65v3.73c0,1-1.13,2.31-1.92,3.07a1.06,1.06,0,0,0-.07,1.45l1.91,2.23a1,1,0,0,0,1.47.13A6.68,6.68,0,0,0,32.56,46,5.45,5.45,0,0,0,28.82,40.65Z"/><path class="cls-4" d="M17.08,40.65h.14c0,.05,0,.1,0,.15-1.18,2.47-.41,5.94,2.32,7.1A19.61,19.61,0,0,1,23,57.19v8.54H0A45.65,45.65,0,0,0,1.6,54C1.6,47.58,8.54,40.65,17.08,40.65Z"/><path class="cls-16" d="M17.08,40.65v3.73c0,1,1.13,2.31,1.92,3.07a1.06,1.06,0,0,1,.07,1.45l-1.9,2.23a1.06,1.06,0,0,1-1.48.13A6.68,6.68,0,0,1,13.34,46,5.45,5.45,0,0,1,17.08,40.65Z"/><circle class="cls-16" cx="22.95" cy="56.66" r="1.07"/><circle class="cls-16" cx="22.95" cy="61.46" r="1.07"/><path class="cls-17" d="M36.29,61.46a37.24,37.24,0,0,0,1,3.8c.39,1.24.82,2.49,1.27,3.68l-3,.52c0-1.37.08-2.69.18-4A39.85,39.85,0,0,1,36.29,61.46Z"/><path class="cls-17" d="M9.87,61.46a34.71,34.71,0,0,1,.49,4c.1,1.34.17,2.66.19,4l-3-.52c.45-1.19.88-2.44,1.27-3.68A34.78,34.78,0,0,0,9.87,61.46Z"/><polygon class="cls-18" points="61.74 36 49.74 36 55.74 29 61.74 29 61.74 36"/><polygon class="cls-2" points="61.74 43 49.74 43 55.74 50 61.74 50 61.74 43"/></g></g></g></svg>