<svg xmlns="http://www.w3.org/2000/svg" viewBox="0 0 50 50"><defs><style>.cls-1{fill:#fff;}.cls-2{fill:#ced3d9;}</style></defs><title>Ресурс 7</title><g id="Слой_2" data-name="Слой 2"><g id="Шапка"><circle class="cls-1" cx="25" cy="25" r="25"/><path class="cls-2" d="M44.15,41.06c-2.7-3.7-11-5.76-11-5.76L28.41,49.73a9.24,9.24,0,0,1-1-1.46,24.4,24.4,0,0,1-1.83-4.51,8.94,8.94,0,0,1,1.22-2.37l-1.7-1.57v-.24L25,39.7l-.13-.12v.24l-1.7,1.57a8.94,8.94,0,0,1,1.22,2.37,24.4,24.4,0,0,1-1.83,4.51,9.24,9.24,0,0,1-1,1.46L16.83,35.3s-8.28,2.06-11,5.76a25,25,0,0,0,38.3,0Z"/><polygon class="cls-2" points="24.82 36.61 24.91 36.69 24.91 36.53 24.82 36.61"/><polygon class="cls-2" points="25.18 36.61 25.09 36.53 25.09 36.69 25.18 36.61"/><path class="cls-2" d="M25.09,37.53v-.17l3.21-3v-1.6a8.5,8.5,0,0,0,2.42-1.88,9.35,9.35,0,0,0,.62-2.86c.09-.62.45-.53.89-1.07a13,13,0,0,0,1.43-4.2c.13-.71-.08-1-.34-1.17h-.1c-.36,0-1.16.36-1.43,2.15s-1,2.32-3.84,2.32S25.7,22.41,25,22.34h0c-.68.07-.1,3.75-2.93,3.75s-3.57-.54-3.84-2.32-1.07-2.15-1.43-2.15h-.1c-.26.14-.47.46-.34,1.17A13,13,0,0,0,17.77,27c.44.54.8.45.89,1.07a9.35,9.35,0,0,0,.62,2.86,8.5,8.5,0,0,0,2.42,1.88v1.6l3.21,3v.17l.09-.09Z"/><path class="cls-2" d="M25.64,17.61a2.32,2.32,0,0,1-1.28,0l-6.57-2c-.14.87-.47,3-.47,3.81v.72c.27,0,2-.27,2.59-.27s4.41.44,5.08.45h0c.67,0,4.46-.45,5.08-.45s2.32.27,2.59.27v-.72c0-.77-.33-2.94-.47-3.81Z"/><path class="cls-2" d="M24.63,15.75,12.35,11.92a.54.54,0,0,1,0-1L24.63,7.06a1.17,1.17,0,0,1,.74,0l12.28,3.83a.54.54,0,0,1,0,1L25.37,15.75A1.17,1.17,0,0,1,24.63,15.75Z"/><path class="cls-2" d="M14.91,16.32a1.44,1.44,0,0,0-1-1.36v-3.2H13V15a1.43,1.43,0,0,0-.45,2.47.82.82,0,0,1,.24.94,10.74,10.74,0,0,0-.68,3,1.34,1.34,0,0,0,2.68,0,10.74,10.74,0,0,0-.68-3,.8.8,0,0,1,.23-.94A1.41,1.41,0,0,0,14.91,16.32Zm-2,0a.54.54,0,1,1,.54.53A.54.54,0,0,1,12.94,16.32Z"/></g></g></svg>