<svg xmlns="http://www.w3.org/2000/svg" width="13.562" height="11.5" viewBox="0 0 13.562 11.5">
  <metadata><?xpacket begin="﻿" id="W5M0MpCehiHzreSzNTczkc9d"?>
<x:xmpmeta xmlns:x="adobe:ns:meta/" x:xmptk="Adobe XMP Core 5.6-c138 79.159824, 2016/09/14-01:09:01        ">
   <rdf:RDF xmlns:rdf="http://www.w3.org/1999/02/22-rdf-syntax-ns#">
      <rdf:Description rdf:about=""/>
   </rdf:RDF>
</x:xmpmeta>
                                                                                                    
                                                                                                    
                                                                                                    
                                                                                                    
                                                                                                    
                                                                                                    
                                                                                                    
                                                                                                    
                                                                                                    
                                                                                                    
                                                                                                    
                                                                                                    
                                                                                                    
                                                                                                    
                                                                                                    
                                                                                                    
                                                                                                    
                                                                                                    
                                                                                                    
                                                                                                    
                           
<?xpacket end="w"?></metadata>
<defs>
    <style>
      .cls-1 {
        fill: #e9463e;
        fill-rule: evenodd;
      }
    </style>
  </defs>
  <path id="Forma_1_копия_3" data-name="Forma 1 копия 3" class="cls-1" d="M740.971,6236.43h-0.484a0.237,0.237,0,0,0-.242.24v2.4a1.164,1.164,0,0,1-.355.85,1.184,1.184,0,0,1-.854.35h-6.287a1.188,1.188,0,0,1-.854-0.35,1.164,1.164,0,0,1-.355-0.85v-6.24a1.126,1.126,0,0,1,.355-0.84,1.158,1.158,0,0,1,.854-0.36h5.32a0.252,0.252,0,0,0,.174-0.06,0.26,0.26,0,0,0,.068-0.18v-0.48a0.236,0.236,0,0,0-.068-0.17,0.259,0.259,0,0,0-.174-0.07h-5.32a2.122,2.122,0,0,0-1.538.64,2.065,2.065,0,0,0-.638,1.52v6.24a2.182,2.182,0,0,0,2.176,2.16h6.287a2.184,2.184,0,0,0,2.177-2.16v-2.4A0.236,0.236,0,0,0,740.971,6236.43Zm3-6.57a0.446,0.446,0,0,0-.34-0.14h-3.869a0.444,0.444,0,0,0-.34.14,0.435,0.435,0,0,0-.144.33,0.456,0.456,0,0,0,.144.34l1.33,1.32-4.927,4.89a0.221,0.221,0,0,0-.076.17,0.237,0.237,0,0,0,.076.17l0.861,0.86a0.251,0.251,0,0,0,.348,0l4.927-4.89,1.33,1.32a0.483,0.483,0,0,0,.68,0,0.472,0.472,0,0,0,.143-0.34v-3.84A0.434,0.434,0,0,0,743.971,6229.86Z" transform="translate(-730.563 -6229.72)"/>
</svg>
