<svg xmlns="http://www.w3.org/2000/svg" width="16.938" height="16.81" viewBox="0 0 16.938 16.81">
  <metadata><?xpacket begin="﻿" id="W5M0MpCehiHzreSzNTczkc9d"?>
<x:xmpmeta xmlns:x="adobe:ns:meta/" x:xmptk="Adobe XMP Core 5.6-c138 79.159824, 2016/09/14-01:09:01        ">
   <rdf:RDF xmlns:rdf="http://www.w3.org/1999/02/22-rdf-syntax-ns#">
      <rdf:Description rdf:about=""/>
   </rdf:RDF>
</x:xmpmeta>
                                                                                                    
                                                                                                    
                                                                                                    
                                                                                                    
                                                                                                    
                                                                                                    
                                                                                                    
                                                                                                    
                                                                                                    
                                                                                                    
                                                                                                    
                                                                                                    
                                                                                                    
                                                                                                    
                                                                                                    
                                                                                                    
                                                                                                    
                                                                                                    
                                                                                                    
                                                                                                    
                           
<?xpacket end="w"?></metadata>
<defs>
    <style>
      .cls-1 {
        fill: #9d221a;
        fill-opacity: 0.98;
        fill-rule: evenodd;
      }
    </style>
  </defs>
  <path id="Forma_1" data-name="Forma 1" class="cls-1" d="M451.961,6863.46a8.405,8.405,0,1,0,8.471,8.41A8.437,8.437,0,0,0,451.961,6863.46Zm4.473,12.27-0.678.67a1.227,1.227,0,0,1-.487.19,8.012,8.012,0,0,1-5.73-2.32,7.923,7.923,0,0,1-2.343-5.71,1.252,1.252,0,0,1,.2-0.46l0.679-.67a1.134,1.134,0,0,1,1.058-.25l0.143,0.05a1.32,1.32,0,0,1,.775.81l0.341,1.24a1.225,1.225,0,0,1-.28,1.07l-0.453.45a4.783,4.783,0,0,0,3.382,3.35l0.453-.44a1.2,1.2,0,0,1,1.072-.28l1.253,0.34a1.322,1.322,0,0,1,.819.76l0.047,0.15A1.124,1.124,0,0,1,456.434,6875.73Z" transform="translate(-443.5 -6863.47)"/>
</svg>
