<svg id="Icon" xmlns="http://www.w3.org/2000/svg" width="180" height="110" viewBox="0 0 180 110">
  <metadata><?xpacket begin="﻿" id="W5M0MpCehiHzreSzNTczkc9d"?>
<x:xmpmeta xmlns:x="adobe:ns:meta/" x:xmptk="Adobe XMP Core 5.6-c138 79.159824, 2016/09/14-01:09:01        ">
   <rdf:RDF xmlns:rdf="http://www.w3.org/1999/02/22-rdf-syntax-ns#">
      <rdf:Description rdf:about=""/>
   </rdf:RDF>
</x:xmpmeta>
                                                                                                    
                                                                                                    
                                                                                                    
                                                                                                    
                                                                                                    
                                                                                                    
                                                                                                    
                                                                                                    
                                                                                                    
                                                                                                    
                                                                                                    
                                                                                                    
                                                                                                    
                                                                                                    
                                                                                                    
                                                                                                    
                                                                                                    
                                                                                                    
                                                                                                    
                                                                                                    
                           
<?xpacket end="w"?></metadata>
<defs>
    <style>
      .cls-1 {
        fill: #fff;
      }

      .cls-2, .cls-5 {
        fill: #0994ff;
      }

      .cls-3 {
        fill: #62bffc;
        opacity: 0.8;
      }

      .cls-3, .cls-5, .cls-6, .cls-7 {
        fill-rule: evenodd;
      }

      .cls-4, .cls-6 {
        fill: #6bbfff;
      }

      .cls-7 {
        fill: #bbeaf9;
      }
    </style>
  </defs>
  <rect id="Rounded_Rectangle_9_copy" data-name="Rounded Rectangle 9 copy" class="cls-1" x="20" width="140" height="110" rx="5" ry="5"/>
  <rect id="Rounded_Rectangle_9" data-name="Rounded Rectangle 9" class="cls-2" y="90" width="180" height="20" rx="3" ry="3"/>
  <path id="_copy_3" data-name="| copy 3" class="cls-3" d="M1440,1397h1v10h-1v-10Zm-10,0h1v10h-1v-10Zm-10,0h1v10h-1v-10Zm-10,0h1v10h-1v-10Zm-10,0h1v10h-1v-10Zm-10,0h1v10h-1v-10Zm-10,0h1v10h-1v-10Zm-10,0h1v10h-1v-10Zm-10,0h1v10h-1v-10Zm-10,0h1v10h-1v-10Zm-10,0h1v10h-1v-10Zm-10,0h1v10h-1v-10Zm-10,0h1v10h-1v-10Zm-10,0h1v10h-1v-10Zm-10,0h1v10h-1v-10Zm-10,0h1v10h-1v-10Zm-10,0h1v10h-1v-10Z" transform="translate(-1270 -1307)"/>
  <g>
    <rect id="Rounded_Rectangle_9_copy_2" data-name="Rounded Rectangle 9 copy 2" class="cls-4" x="40" y="70" width="100" height="10"/>
    <path class="cls-2" d="M140,70h5a5,5,0,0,1,5,5v0a5,5,0,0,1-5,5h-5a0,0,0,0,1,0,0V70A0,0,0,0,1,140,70Z"/>
    <path id="Rectangle_10_copy_3" data-name="Rectangle 10 copy 3" class="cls-5" d="M1305,1384.5v-5l5-2.5v10Z" transform="translate(-1270 -1307)"/>
    <path class="cls-6" d="M1305,1384.5l-5-2.5,5-2.5v5Z" transform="translate(-1270 -1307)"/>
    <rect id="Rounded_Rectangle_10" data-name="Rounded Rectangle 10" class="cls-2" x="44" y="73" width="92" height="4" rx="2" ry="2"/>
  </g>
  <path id="Rectangle_14_copy_2" data-name="Rectangle 14 copy 2" class="cls-7" d="M1407,1357h6a2.006,2.006,0,0,1,2,2v6a2.006,2.006,0,0,1-2,2h-6a2.006,2.006,0,0,1-2-2v-6A2.006,2.006,0,0,1,1407,1357Zm-20,0h6a2.006,2.006,0,0,1,2,2v6a2.006,2.006,0,0,1-2,2h-6a2.006,2.006,0,0,1-2-2v-6A2.006,2.006,0,0,1,1387,1357Zm0-20h26a2.006,2.006,0,0,1,2,2v6a2.006,2.006,0,0,1-2,2h-26a2.006,2.006,0,0,1-2-2v-6A2.006,2.006,0,0,1,1387,1337Zm-20,20h6a2.006,2.006,0,0,1,2,2v6a2.006,2.006,0,0,1-2,2h-6a2.006,2.006,0,0,1-2-2v-6A2.006,2.006,0,0,1,1367,1357Zm-20,0h6a2.006,2.006,0,0,1,2,2v6a2.006,2.006,0,0,1-2,2h-6a2.006,2.006,0,0,1-2-2v-6A2.006,2.006,0,0,1,1347,1357Zm0-20h26a2.006,2.006,0,0,1,2,2v6a2.006,2.006,0,0,1-2,2h-26a2.006,2.006,0,0,1-2-2v-6A2.006,2.006,0,0,1,1347,1337Zm-20,20h6a2.006,2.006,0,0,1,2,2v6a2.006,2.006,0,0,1-2,2h-6a2.006,2.006,0,0,1-2-2v-6A2.006,2.006,0,0,1,1327,1357Zm-20,0h6a2.006,2.006,0,0,1,2,2v6a2.006,2.006,0,0,1-2,2h-6a2.006,2.006,0,0,1-2-2v-6A2.006,2.006,0,0,1,1307,1357Zm0-20h26a2.006,2.006,0,0,1,2,2v6a2.006,2.006,0,0,1-2,2h-26a2.006,2.006,0,0,1-2-2v-6A2.006,2.006,0,0,1,1307,1337Zm35-20h36a2.006,2.006,0,0,1,2,2v6a2.006,2.006,0,0,1-2,2h-36a2.006,2.006,0,0,1-2-2v-6A2.006,2.006,0,0,1,1342,1317Zm-23,14h82v2h-82v-2Zm40-4h2v4h-2v-4Zm-40,6h2v4h-2v-4Zm40,0h2v4h-2v-4Zm40,0h2v4h-2v-4Zm10,20h2v4h-2v-4Zm-20,0h2v4h-2v-4Zm-20,0h2v4h-2v-4Zm-20,0h2v4h-2v-4Zm-20,0h2v4h-2v-4Zm-20,0h2v4h-2v-4Zm0-2h22v2h-22v-2Zm40,0h22v2h-22v-2Zm40,0h22v2h-22v-2Zm-70-4h2v4h-2v-4Zm40,0h2v4h-2v-4Zm40,0h2v4h-2v-4Z" transform="translate(-1270 -1307)"/>
</svg>
