<svg id="Icon" xmlns="http://www.w3.org/2000/svg" width="140" height="110" viewBox="0 0 140 110">
  <metadata><?xpacket begin="﻿" id="W5M0MpCehiHzreSzNTczkc9d"?>
<x:xmpmeta xmlns:x="adobe:ns:meta/" x:xmptk="Adobe XMP Core 5.6-c138 79.159824, 2016/09/14-01:09:01        ">
   <rdf:RDF xmlns:rdf="http://www.w3.org/1999/02/22-rdf-syntax-ns#">
      <rdf:Description rdf:about=""/>
   </rdf:RDF>
</x:xmpmeta>
                                                                                                    
                                                                                                    
                                                                                                    
                                                                                                    
                                                                                                    
                                                                                                    
                                                                                                    
                                                                                                    
                                                                                                    
                                                                                                    
                                                                                                    
                                                                                                    
                                                                                                    
                                                                                                    
                                                                                                    
                                                                                                    
                                                                                                    
                                                                                                    
                                                                                                    
                                                                                                    
                           
<?xpacket end="w"?></metadata>
<defs>
    <style>
      .cls-1 {
        fill: #e8fff7;
      }

      .cls-2, .cls-4 {
        fill: #0994ff;
      }

      .cls-2, .cls-6 {
        opacity: 0.2;
      }

      .cls-3, .cls-5 {
        fill: #fff;
      }

      .cls-5 {
        opacity: 0.8;
      }

      .cls-6 {
        fill: #3d404f;
      }
    </style>
  </defs>
  <g id="Mobile">
    <rect id="Rounded_Rectangle_3_copy" data-name="Rounded Rectangle 3 copy" class="cls-1" x="100" y="40" width="40" height="70" rx="5" ry="5"/>
    <rect id="Rounded_Rectangle_4" data-name="Rounded Rectangle 4" class="cls-2" x="103" y="48" width="34" height="54" rx="3" ry="3"/>
  </g>
  <g id="Mobile-2" data-name="Mobile">
    <rect id="Rounded_Rectangle_3_copy-2" data-name="Rounded Rectangle 3 copy" class="cls-1" y="26" width="50" height="84" rx="5" ry="5"/>
    <rect id="Rounded_Rectangle_4-2" data-name="Rounded Rectangle 4" class="cls-2" x="3" y="34" width="44" height="68" rx="3" ry="3"/>
  </g>
  <g id="Mobile-3" data-name="Mobile">
    <rect id="Rounded_Rectangle_3_copy-3" data-name="Rounded Rectangle 3 copy" class="cls-3" x="40" width="70" height="110" rx="5" ry="5"/>
    <rect id="Rounded_Rectangle_4-3" data-name="Rounded Rectangle 4" class="cls-4" x="43" y="8" width="64" height="94" rx="3" ry="3"/>
    <path id="Rounded_Rectangle_5_copy" data-name="Rounded Rectangle 5 copy" class="cls-5" d="M101,45h6a0,0,0,0,1,0,0V95a0,0,0,0,1,0,0h-6a2,2,0,0,1-2-2V47A2,2,0,0,1,101,45Z"/>
    <rect id="Rounded_Rectangle_5_copy_3" data-name="Rounded Rectangle 5 copy 3" class="cls-3" x="56" y="45" width="38" height="50" rx="2" ry="2"/>
    <circle class="cls-3" cx="61" cy="33" r="5"/>
    <rect id="Rounded_Rectangle_5" data-name="Rounded Rectangle 5" class="cls-3" x="70" y="34" width="14" height="3" rx="1.5" ry="1.5"/>
    <rect id="Rounded_Rectangle_5_copy_4" data-name="Rounded Rectangle 5 copy 4" class="cls-3" x="70" y="29" width="20" height="3" rx="1.5" ry="1.5"/>
    <path id="Rounded_Rectangle_5_copy_2" data-name="Rounded Rectangle 5 copy 2" class="cls-5" d="M43,45h6a2,2,0,0,1,2,2V93a2,2,0,0,1-2,2H43a0,0,0,0,1,0,0V45A0,0,0,0,1,43,45Z"/>
    <rect id="Rounded_Rectangle_8_copy" data-name="Rounded Rectangle 8 copy" class="cls-6" x="46" y="11" width="58" height="7" rx="2" ry="2"/>
  </g>
</svg>
