<svg xmlns="http://www.w3.org/2000/svg" width="18" height="16" viewBox="0 0 18 16">
  <metadata><?xpacket begin="﻿" id="W5M0MpCehiHzreSzNTczkc9d"?>
<x:xmpmeta xmlns:x="adobe:ns:meta/" x:xmptk="Adobe XMP Core 5.6-c138 79.159824, 2016/09/14-01:09:01        ">
   <rdf:RDF xmlns:rdf="http://www.w3.org/1999/02/22-rdf-syntax-ns#">
      <rdf:Description rdf:about=""/>
   </rdf:RDF>
</x:xmpmeta>
                                                                                                    
                                                                                                    
                                                                                                    
                                                                                                    
                                                                                                    
                                                                                                    
                                                                                                    
                                                                                                    
                                                                                                    
                                                                                                    
                                                                                                    
                                                                                                    
                                                                                                    
                                                                                                    
                                                                                                    
                                                                                                    
                                                                                                    
                                                                                                    
                                                                                                    
                                                                                                    
                           
<?xpacket end="w"?></metadata>
<defs>
    <style>
      .cls-1 {
        fill: #8b8b9c;
        fill-rule: evenodd;
      }
    </style>
  </defs>
  <path id="Twitter_Icon" class="cls-1" d="M924.592,4730.4a9.115,9.115,0,0,1-2.393.9c-2.111-2.86-7.459-.6-6.474,3.6a10.953,10.953,0,0,1-7.74-4.2c-0.985,1.8-.141,4.65,1.126,5.4a2.706,2.706,0,0,1-1.548-.45,4.052,4.052,0,0,0,2.955,4.06,5.329,5.329,0,0,1-1.548,0,3.85,3.85,0,0,0,3.518,2.85,7.146,7.146,0,0,1-5.488,1.65,9.786,9.786,0,0,0,6.052,1.8c6.192-.3,10.273-5.1,10.414-12.01a3.956,3.956,0,0,0,1.548-1.95,7.693,7.693,0,0,1-1.971.6A4.234,4.234,0,0,0,924.592,4730.4Z" transform="translate(-907 -4730)"/>
</svg>
