<svg xmlns="http://www.w3.org/2000/svg" xmlns:xlink="http://www.w3.org/1999/xlink" viewBox="0 0 50 61"><defs><style>.cls-1,.cls-12{fill:#fff;}.cls-2{mask:url(#mask);}.cls-3{fill:#b6bbbf;}.cls-4{fill:#eeeff0;}.cls-5,.cls-7,.cls-9{fill:#c2c7cc;}.cls-5{opacity:0.1;}.cls-6{fill:#e1e5e8;}.cls-8{fill:#ced4d9;}.cls-9{opacity:0.2;}.cls-10{fill:#d5dbe0;}.cls-11{fill:#f3f4f5;}.cls-12{opacity:0.05;}</style><mask id="mask" x="0" y="0" width="50" height="61" maskUnits="userSpaceOnUse"><circle class="cls-1" cx="25" cy="25" r="25"/></mask></defs><title>Ресурс 9</title><g id="Слой_2" data-name="Слой 2"><g id="Шапка"><circle class="cls-1" cx="25" cy="25" r="25"/><g class="cls-2"><path class="cls-3" d="M33.66,36.79c1.94.46,8.85,3.1,10.11,4.94S45,49.66,45,52.72,30.5,56.38,24.18,56.38,3.32,55.77,4,52.72s2.53-13.44,7.59-14.66S28.6,35.57,33.66,36.79Z"/><polygon class="cls-1" points="28.25 38.48 31.71 39.05 27.09 52.34 21.89 58.69 18.43 56.38 17.85 37.9 20.16 39.05 28.25 38.48"/><path class="cls-4" d="M28.82,29.81v10.4l-7.5,1.15V27.5Z"/><path class="cls-5" d="M23.34,36.72a11.09,11.09,0,0,0,5.48-1.31V31.24l-7.5-2.31v7.45A5.86,5.86,0,0,0,23.34,36.72Z"/><path class="cls-4" d="M15.83,13.62C15.83,17.09,14.1,35,23.34,35s11-8.66,11-10.4-.58-12.12-.58-12.12l-3.46-1.16Z"/><path class="cls-6" d="M23.12,23.69a1.71,1.71,0,0,1-.23,1.65c-.34.49-.82.8-1,1.08a.67.67,0,0,0-.14.4.42.42,0,0,0,.11.35,2.91,2.91,0,0,0,1.26.53,1.83,1.83,0,0,1-1.7.12,1.2,1.2,0,0,1-.61-.93,1.51,1.51,0,0,1,.27-1.05,6.19,6.19,0,0,1,1.23-1A2.52,2.52,0,0,0,23.12,23.69Z"/><ellipse class="cls-3" cx="19.87" cy="23.44" rx="0.58" ry="0.87"/><ellipse class="cls-3" cx="27.67" cy="23.44" rx="0.58" ry="0.87"/><path class="cls-7" d="M29.6,19.44c0,.07-1.71-.22-3.37-.33v-.84a22.07,22.07,0,0,1,3.55.84C29.68,19.17,29.66,19.32,29.6,19.44Z"/><path class="cls-7" d="M18,19.28l.1.48a10.09,10.09,0,0,1,3.22-.35v-.74A14.61,14.61,0,0,0,18,19.28Z"/><path class="cls-8" d="M23.86,29.22c-1.1.07-2.16.11-3.16.1.2,1.18,1.63,2,3.3,1.91s3-1.15,3-2.35C26,29,25,29.14,23.86,29.22Z"/><path class="cls-1" d="M23.86,29.16c-1.11.07-2.17.13-3.16.16.16.54,1.55.88,3.22.76s3-.64,3.09-1.2C26,29,25,29.08,23.86,29.16Z"/><path class="cls-9" d="M33.07,22.57l1-4.08-.17-3.35-2.25-3.37L31,11.54l-.34,1.05h-.05a15.3,15.3,0,0,0-3.34-.78l-11.4,1.82c0,.36,0,.88,0,1.5.71.34,1.58.7,2.64,1.1,3.37,1.27,8.28.07,11.36-1.12h0C30,18,33.07,22.57,33.07,22.57Z"/><path class="cls-8" d="M33.44,11.6s0-1.73-2.88-4-8.09-1.73-8.09-1.73S19.58,3.52,19,4.09s.57,2.31.57,2.31-3.46-1.73-5.19,0,1.15,5.2,1.15,5.2-1.73-.58-2.31,0,.58,1.73,5.2,3.47c3.94,1.47,10-.41,12.75-1.72Z"/><path class="cls-7" d="M33.44,11a2.17,2.17,0,0,0-2.12,1.69c-.06.18-.12.38-.19.62-.57,2.31.58,5.2,1.74,8.67s2.31,2.88,2.31,2.88.58-6.35.58-9.81C35.76,12.38,34.6,11,33.44,11Z"/><path class="cls-4" d="M32.87,23.73c0-1.73,2.89-2.31,3.46-1.16.37.73.58,4.05-1.15,5.2s-2.89-1.15-2.89-1.15Z"/><path class="cls-10" d="M28.25,9.29A30.68,30.68,0,0,1,17.27,7a14,14,0,0,1-2-1.12,2.36,2.36,0,0,0-.86.54c-1.33,1.33.06,3.68.77,4.7C25.49,12,28.25,9.29,28.25,9.29Z"/><path class="cls-8" d="M33.44,11a2.17,2.17,0,0,0-2.12,1.69c-.06.18-.12.38-.19.62a1.18,1.18,0,0,1,0,.2,8.66,8.66,0,0,0,4.6,3.9c0-.86.07-1.67.07-2.36C35.76,12.38,34.6,11,33.44,11Z"/><path class="cls-5" d="M33.25,27a4,4,0,0,1-.17.36c-1.39,2.86-4.23,6.52-9.74,6.52-6.44,0-7.55-9.27-7.63-15.71C15.63,24.61,16.3,35,23.34,35a10.32,10.32,0,0,0,10.22-7,1.55,1.55,0,0,0,1.62-.17,2.85,2.85,0,0,0,1-1.42A2.46,2.46,0,0,1,33.25,27Z"/><path class="cls-11" d="M21.32,40.79l1.15,2.88-1.73,9.24,3.46.58V44.25l2.89-3.46s-1.73-1.74-2.31-1.74H21.89Z"/><path class="cls-12" d="M28.68,36.74c0,1.42-2.63,2.42-3.9,2.89-.7-.47-3.46-1.47-3.46-2.89C21.32,35,19,37.9,19,37.9a4.23,4.23,0,0,0,.57,3.46c1.16,1.74,1.74,1.74,1.74,1.74l2.5-2.51,2.69,3.08a6.81,6.81,0,0,0,2.31-1.73,7.3,7.3,0,0,0,1.74-4.62S28.68,35,28.68,36.74Z"/><path class="cls-1" d="M24.2,39.05s-2.88-1.73-2.88-3.46S19,36.74,19,36.74a4.26,4.26,0,0,0,.57,3.47c1.16,1.73,1.74,1.73,1.74,1.73Z"/><path class="cls-1" d="M23.48,39.05s5.2-1.73,5.2-3.46,1.88.58,1.88.58a7.31,7.31,0,0,1-1.74,4.62,6.81,6.81,0,0,1-2.31,1.73Z"/><path class="cls-8" d="M30.56,36.17s-4.62,15-5.78,17.9a17.52,17.52,0,0,0-1.15,5.77h1.73l5.77-11L30,46.56,32.87,46V36.17Z"/><path class="cls-8" d="M19,36.74s-.58,10.4,0,15.6S20.16,61,20.16,61H19L15,48.29l1.16-1.15-1.73-1.73,2.31-8.67Z"/></g></g></g></svg>