<svg xmlns="http://www.w3.org/2000/svg" viewBox="0 0 167.35 32.18"><defs><style>.cls-1,.cls-2{fill:none;stroke:#e91c5d;stroke-width:1.3px;}.cls-1{stroke-miterlimit:10;}.cls-2{stroke-linejoin:round;}.cls-3{fill:#40444d;}</style></defs><title>лого академия</title><g id="Слой_2" data-name="Слой 2"><g id="Слой_1-2" data-name="Слой 1"><g id="лого_академия" data-name="лого академия"><path class="cls-1" d="M163.94,7.39V11.6c0,1-2,1.79-4.48,1.79S155,12.59,155,11.6v-4"/><polyline class="cls-2" points="166.7 3.89 159.46 0.65 152.21 3.89 159.46 7.13 166.7 3.89 166.7 7.89"/><g id="logo"><path class="cls-3" d="M4.76,25.87c0,1.31,1.5,2,3,2s2.92-.66,2.92-1.81c0-1.83-2.13-1.91-3.52-2-3.5-.22-7-1.61-7-5.6,0-4.15,3.53-6.26,7.43-6.26,3.69,0,7.44,2.11,7.35,6.26H10.3c0-1.31-1.25-1.86-2.59-1.86-1.12,0-2.6.3-2.6,1.75,0,1.28,1.09,1.58,2.92,1.78,4.08.35,7.63,1.31,7.63,5.95,0,4-3.91,6.12-7.82,6.12s-7.92-2-7.84-6.31Z"/><path class="cls-3" d="M18.25,25.43V12.62h5v12.7c0,1.59,1.4,2.27,2.82,2.27s2.76-.68,2.76-2.27V12.62h4.94V25.43C33.77,29.72,30.06,32,26,32S18.25,29.72,18.25,25.43Z"/><path class="cls-3" d="M37.46,31.72V12.59c2.84,0,5.6,0,8.45,0,4.59,0,6.94,3.58,6.85,7.19a6.67,6.67,0,0,1-6.85,7H42.46v4.95Zm8.45-9.29c1.31,0,2.07-1.4,2.07-2.79s-.71-2.7-2.07-2.7H42.38v5.49Z"/><path class="cls-3" d="M67.08,17H60.14V19.7h6.4v4.37h-6.4v3.11h7.19v4.57H55.14V12.62H67.08Z"/><path class="cls-3" d="M86.73,31v.71h-5.3l-3.28-6H75.53v6h-5V12.59c2.84,0,5.6,0,8.41,0a6.56,6.56,0,0,1,6.89,6.78A6.72,6.72,0,0,1,83,24.94Zm-7.82-9.35A2.17,2.17,0,0,0,81,19.26a2.09,2.09,0,0,0-2.08-2.32H75.44v4.72Z"/><path class="cls-3" d="M88.53,21.94a2.71,2.71,0,0,1,5.41,0,2.72,2.72,0,0,1-5.41,0Z"/><path class="cls-3" d="M105.83,32.1c-5.06,0-9.78-3.28-9.78-9.92s4.89-9.94,9.86-9.94a9.46,9.46,0,0,1,9.76,9.94C115.67,28,111.62,32.1,105.83,32.1Zm0-4.73a4.84,4.84,0,0,0,4.8-5.19c0-3.41-2.37-5.19-4.75-5.19s-4.86,1.69-4.86,5.19S103.4,27.37,105.86,27.37Z"/><path class="cls-3" d="M118.51,31.72V12.59c2.84,0,5.6,0,8.44,0,4.59,0,6.94,3.58,6.86,7.19a6.67,6.67,0,0,1-6.86,7h-3.44v4.95ZM127,22.43c1.31,0,2.08-1.4,2.08-2.79s-.71-2.7-2.08-2.7h-3.52v5.49Z"/><path class="cls-3" d="M134.66,17V12.62h14.2V17h-4.67V31.75h-4.83V17Z"/></g></g></g></g></svg>