<svg width="16" height="16" viewBox="0 0 16 16" fill="none" xmlns="http://www.w3.org/2000/svg">
<path d="M8.77941 12.4062H11.0938C11.508 12.4062 11.8438 12.742 11.8438 13.1562C11.8438 13.5705 11.508 13.9062 11.0938 13.9062H6.96875C6.55454 13.9062 6.21875 13.5705 6.21875 13.1562V9.03125C6.21875 8.61704 6.55454 8.28125 6.96875 8.28125C7.38296 8.28125 7.71875 8.61704 7.71875 9.03125V11.3456L12.6259 6.43842C12.9188 6.14553 13.3937 6.14553 13.6866 6.43842C13.9795 6.73131 13.9795 7.20619 13.6866 7.49908L8.77941 12.4062ZM7.22059 3.59375H4.90625C4.49204 3.59375 4.15625 3.25796 4.15625 2.84375C4.15625 2.42954 4.49204 2.09375 4.90625 2.09375H9.03125C9.44546 2.09375 9.78125 2.42954 9.78125 2.84375V6.96875C9.78125 7.38296 9.44546 7.71875 9.03125 7.71875C8.61704 7.71875 8.28125 7.38296 8.28125 6.96875V4.65441L3.37408 9.56158C3.08119 9.85447 2.60631 9.85447 2.31342 9.56158C2.02053 9.26869 2.02053 8.79381 2.31342 8.50092L7.22059 3.59375Z" fill="white"/>
</svg>
