<svg width="78" height="15" viewBox="0 0 78 15" fill="none" xmlns="http://www.w3.org/2000/svg">
<g opacity="0.75">
<path d="M39.8297 4.02635L39.2759 6.33179C38.8451 6.12173 38.4348 6.01666 38.045 6.01666C37.5937 6.01666 37.2552 6.18252 37.0296 6.51424C36.8142 6.84596 36.7065 7.27163 36.7065 7.79135V11.9047H33.9064V3.84391H36.445L36.5219 4.88882C36.5425 4.85565 36.5681 4.81692 36.5988 4.77272C36.6296 4.7174 36.7014 4.62345 36.8142 4.49076C36.9373 4.34704 37.0655 4.22538 37.1989 4.12587C37.3322 4.0153 37.5066 3.92131 37.722 3.84391C37.9476 3.75545 38.1835 3.71122 38.4297 3.71122C38.7168 3.71122 38.9784 3.73886 39.2143 3.79415C39.4503 3.84944 39.6092 3.8992 39.6913 3.94342L39.8297 4.02635ZM45.6466 3.84391V6.09959H43.908V8.62065C43.908 9.02974 43.9542 9.33384 44.0465 9.53287C44.1388 9.72087 44.3388 9.81483 44.6465 9.81483L45.4619 9.74849V11.9212C45.0824 12.0097 44.5798 12.0539 43.9542 12.0539C43.0003 12.0539 42.2874 11.7941 41.8156 11.2744C41.3541 10.7436 41.1233 10.0526 41.1233 9.20115V6.09959L39.9848 6.03325V3.84391H41.1695L41.4464 1.37261H43.908V3.84391H45.6466ZM47.1137 11.208V0.294525H49.9138V3.91025C50.3138 3.77756 50.7035 3.71122 51.0831 3.71122C52.2113 3.71122 53.1293 4.09823 53.837 4.87223C54.555 5.64622 54.914 6.64137 54.914 7.8577C54.914 9.12925 54.5293 10.1466 53.7601 10.9095C53.0011 11.6725 52.001 12.0539 50.76 12.0539C50.124 12.0539 49.4984 11.9876 48.883 11.8549C48.2778 11.7112 47.8316 11.5674 47.5445 11.4237L47.1137 11.208ZM52.0985 7.8577C52.0985 7.27163 51.9805 6.81834 51.7446 6.49765C51.5189 6.17696 51.201 6.01666 50.7907 6.01666C50.6164 6.01666 50.4523 6.04428 50.2984 6.09959C50.1548 6.14379 50.0573 6.18808 50.0061 6.23228L49.9138 6.31521V9.51629C50.1086 9.67112 50.401 9.74849 50.7907 9.74849C51.2112 9.74849 51.5343 9.58819 51.76 9.2675C51.9856 8.94681 52.0985 8.47693 52.0985 7.8577ZM60.867 3.84391V6.09959H59.1285V8.62065C59.1285 9.02974 59.1747 9.33384 59.267 9.53287C59.3593 9.72087 59.5593 9.81483 59.867 9.81483L60.6824 9.74849V11.9212C60.3029 12.0097 59.8003 12.0539 59.1747 12.0539C58.2208 12.0539 57.5079 11.7941 57.0361 11.2744C56.5746 10.7436 56.3438 10.0526 56.3438 9.20115V6.09959L55.2053 6.03325V3.84391H56.39L56.6669 1.37261H59.1285V3.84391H60.867ZM70.0114 7.11133V11.9047H67.2267V7.16109C67.2267 6.80723 67.1549 6.53083 67.0113 6.33179C66.8779 6.12173 66.6882 6.01666 66.442 6.01666C66.2164 6.01666 65.9958 6.07198 65.7804 6.18252C65.5651 6.29307 65.401 6.40369 65.2881 6.51424L65.1343 6.6801V11.9047H62.3342V3.84391H64.9343L65.0112 4.57369C65.083 4.50734 65.1804 4.42441 65.3035 4.3249C65.4266 4.22538 65.6728 4.09823 66.042 3.94342C66.4112 3.77756 66.7703 3.69464 67.119 3.69464C68.1036 3.69464 68.8319 3.99871 69.3037 4.60686C69.7754 5.21498 70.0114 6.04983 70.0114 7.11133Z" fill="white"/>
<path d="M14.5673 3.7112C14.9263 3.7112 15.2494 3.77754 15.5366 3.91023C15.834 4.03186 16.0341 4.15346 16.1366 4.27512L16.3058 4.47415C17.1161 3.95445 17.9213 3.69461 18.7213 3.69461C19.6752 3.69461 20.3983 3.97657 20.8906 4.54049C21.3829 5.10441 21.6291 5.92815 21.6291 7.01179V11.9046H18.9059V7.14448C18.9059 6.39256 18.6598 6.01664 18.1674 6.01664C18.0034 6.01664 17.8341 6.06639 17.6597 6.16591C17.4853 6.2544 17.3572 6.34835 17.2751 6.44787L17.1366 6.59714V11.9046H14.3827V7.14448C14.3827 6.75745 14.3365 6.47549 14.2442 6.2986C14.1519 6.1106 13.9878 6.01664 13.7519 6.01664C13.5673 6.01664 13.3775 6.07742 13.1826 6.19908C12.998 6.30963 12.8544 6.42025 12.7519 6.5308L12.6134 6.69666V11.9046H9.82867V3.84388H12.4288L12.4903 4.59025C12.5621 4.52391 12.6544 4.44098 12.7672 4.34146C12.8903 4.24195 13.1313 4.11481 13.4903 3.95998C13.8596 3.79413 14.2186 3.7112 14.5673 3.7112Z" fill="white"/>
<path d="M3.16968 14.9199V13.4481C2.59428 13.3578 2.04503 13.2112 1.52193 13.0082C1.0093 12.8052 0.637899 12.6247 0.407736 12.4668L0.078186 12.23L1.31792 9.54009C1.41208 9.61904 1.54809 9.7149 1.72594 9.82769C1.90379 9.92919 2.25427 10.0758 2.77736 10.2675C3.31092 10.448 3.83925 10.5382 4.36234 10.5382C4.83313 10.5382 5.20453 10.4536 5.47654 10.2845C5.74855 10.1153 5.88455 9.89536 5.88455 9.62468C5.88455 9.43294 5.74331 9.26941 5.46084 9.13407C5.18883 8.98745 4.84359 8.86902 4.42511 8.7788C4.0171 8.68857 3.56724 8.55887 3.07553 8.38969C2.59428 8.20924 2.14441 8.00623 1.72594 7.78066C1.31792 7.55509 0.97268 7.2111 0.690208 6.74868C0.418198 6.27499 0.282193 5.72235 0.282193 5.09076C0.282193 4.25615 0.543741 3.5287 1.06684 2.90838C1.60039 2.28807 2.30134 1.85385 3.16968 1.60573V0.0154724H5.83747V1.43655C6.39195 1.49294 6.90982 1.58881 7.39107 1.72415C7.87231 1.85949 8.21756 1.98355 8.4268 2.09634L8.74065 2.26551L7.48522 5.00617C6.65873 4.58887 5.79562 4.38022 4.8959 4.38022C3.95433 4.38022 3.48354 4.60578 3.48354 5.05692C3.48354 5.19226 3.562 5.31069 3.71893 5.41219C3.88632 5.5137 4.10079 5.59828 4.36234 5.66596C4.63435 5.72235 4.93775 5.79566 5.27253 5.88588C5.60731 5.97611 5.95255 6.07198 6.30826 6.17348C6.66396 6.27499 7.00921 6.42161 7.34399 6.61334C7.67877 6.80507 7.97693 7.025 8.23848 7.27313C8.51049 7.52125 8.72496 7.84833 8.88189 8.25435C9.04928 8.64909 9.13298 9.10023 9.13298 9.60776C9.13298 10.4762 8.84004 11.2657 8.25417 11.9762C7.67877 12.6755 6.8732 13.1492 5.83747 13.3973V14.9199H3.16968Z" fill="white"/>
<path d="M3.16968 14.9199V13.4481C2.59428 13.3578 2.04503 13.2112 1.52193 13.0082C1.0093 12.8052 0.637899 12.6247 0.407736 12.4668L0.078186 12.23L1.31792 9.54009C1.41208 9.61904 1.54809 9.7149 1.72594 9.82769C1.90379 9.92919 2.25427 10.0758 2.77736 10.2675C3.31092 10.448 3.83925 10.5382 4.36234 10.5382C4.83313 10.5382 5.20453 10.4536 5.47654 10.2845C5.74855 10.1153 5.88455 9.89536 5.88455 9.62468C5.88455 9.43294 5.74331 9.26941 5.46084 9.13407C5.18883 8.98745 4.84359 8.86902 4.42511 8.7788C4.0171 8.68857 3.56724 8.55887 3.07553 8.38969C2.59428 8.20924 2.14441 8.00623 1.72594 7.78066C1.31792 7.55509 0.97268 7.2111 0.690208 6.74868C0.418198 6.27499 0.282193 5.72235 0.282193 5.09076C0.282193 4.25615 0.543741 3.5287 1.06684 2.90838C1.60039 2.28807 2.30134 1.85385 3.16968 1.60573V0.0154724H5.83747V1.43655C6.39195 1.49294 6.90982 1.58881 7.39107 1.72415C7.87231 1.85949 8.21756 1.98355 8.4268 2.09634L8.74065 2.26551L7.48522 5.00617C6.65873 4.58887 5.79562 4.38022 4.8959 4.38022C3.95433 4.38022 3.48354 4.60578 3.48354 5.05692C3.48354 5.19226 3.562 5.31069 3.71893 5.41219C3.88632 5.5137 4.10079 5.59828 4.36234 5.66596C4.63435 5.72235 4.93775 5.79566 5.27253 5.88588C5.60731 5.97611 5.95255 6.07198 6.30826 6.17348C6.66396 6.27499 7.00921 6.42161 7.34399 6.61334C7.67877 6.80507 7.97693 7.025 8.23848 7.27313C8.51049 7.52125 8.72496 7.84833 8.88189 8.25435C9.04928 8.64909 9.13298 9.10023 9.13298 9.60776C9.13298 10.4762 8.84004 11.2657 8.25417 11.9762C7.67877 12.6755 6.8732 13.1492 5.83747 13.3973V14.9199H3.16968Z" fill="url(#paint0_linear)"/>
<path fill-rule="evenodd" clip-rule="evenodd" d="M32.3117 10.7354C32.7875 9.86193 33.0603 8.84439 33.0603 7.75817C33.0603 4.50634 30.615 1.87018 27.5986 1.87018C24.5822 1.87018 22.1368 4.50634 22.1368 7.75817C22.1368 11.01 24.5822 13.6462 27.5986 13.6462C28.6062 13.6462 29.55 13.352 30.3603 12.8391L33.0259 13.6091L32.3117 10.7354Z" fill="white"/>
<path fill-rule="evenodd" clip-rule="evenodd" d="M32.3117 10.7354C32.7875 9.86193 33.0603 8.84439 33.0603 7.75817C33.0603 4.50634 30.615 1.87018 27.5986 1.87018C24.5822 1.87018 22.1368 4.50634 22.1368 7.75817C22.1368 11.01 24.5822 13.6462 27.5986 13.6462C28.6062 13.6462 29.55 13.352 30.3603 12.8391L33.0259 13.6091L32.3117 10.7354Z" fill="url(#paint1_linear)"/>
<path d="M25.0194 8.90313C25.6059 8.90313 26.0814 8.39054 26.0814 7.75823C26.0814 7.12593 25.6059 6.61334 25.0194 6.61334C24.4329 6.61334 23.9574 7.12593 23.9574 7.75823C23.9574 8.39054 24.4329 8.90313 25.0194 8.90313Z" fill="url(#paint2_linear)"/>
<path d="M27.5986 8.90313C28.1851 8.90313 28.6606 8.39054 28.6606 7.75823C28.6606 7.12593 28.1851 6.61334 27.5986 6.61334C27.012 6.61334 26.5366 7.12593 26.5366 7.75823C26.5366 8.39054 27.012 8.90313 27.5986 8.90313Z" fill="url(#paint3_linear)"/>
<path d="M30.1777 8.90313C30.7643 8.90313 31.2397 8.39054 31.2397 7.75823C31.2397 7.12593 30.7643 6.61334 30.1777 6.61334C29.5912 6.61334 29.1157 7.12593 29.1157 7.75823C29.1157 8.39054 29.5912 8.90313 30.1777 8.90313Z" fill="url(#paint4_linear)"/>
<path d="M75.6003 1.37262H73.2925C72.018 1.37262 70.9847 2.48648 70.9847 3.8605V4.99136C70.9847 6.36538 72.018 7.47925 73.2925 7.47925H75.6003C76.8748 7.47925 77.9081 6.36538 77.9081 4.99136V3.8605C77.9081 2.48648 76.8748 1.37262 75.6003 1.37262Z" fill="white"/>
<path d="M75.6003 1.37262H73.2925C72.018 1.37262 70.9847 2.48648 70.9847 3.8605V4.99136C70.9847 6.36538 72.018 7.47925 73.2925 7.47925H75.6003C76.8748 7.47925 77.9081 6.36538 77.9081 4.99136V3.8605C77.9081 2.48648 76.8748 1.37262 75.6003 1.37262Z" fill="url(#paint5_linear)"/>
<path d="M75.6409 3.99268H73.2136C72.981 3.99268 72.7925 4.19588 72.7925 4.44654C72.7925 4.69721 72.981 4.90041 73.2136 4.90041H75.6409C75.8734 4.90041 76.0619 4.69721 76.0619 4.44654C76.0619 4.19588 75.8734 3.99268 75.6409 3.99268Z" fill="url(#paint6_linear)"/>
<path d="M74.8503 5.74404V3.14908C74.8503 2.89717 74.6609 2.69296 74.4273 2.69296C74.1936 2.69296 74.0042 2.89717 74.0042 3.14908V5.74404C74.0042 5.99594 74.1936 6.20015 74.4273 6.20015C74.6609 6.20015 74.8503 5.99594 74.8503 5.74404Z" fill="url(#paint7_linear)"/>
</g>
<defs>
<linearGradient id="paint0_linear" x1="4.60558" y1="0.0154724" x2="4.60558" y2="14.9199" gradientUnits="userSpaceOnUse">
<stop stop-color="#E9F1F9" stop-opacity="0.75"/>
<stop offset="1" stop-color="white"/>
</linearGradient>
<linearGradient id="paint1_linear" x1="27.5986" y1="1.87018" x2="27.5986" y2="13.6462" gradientUnits="userSpaceOnUse">
<stop stop-color="#E9F1F9" stop-opacity="0.75"/>
<stop offset="1" stop-color="white"/>
</linearGradient>
<linearGradient id="paint2_linear" x1="23.9574" y1="7.75824" x2="26.0814" y2="7.75824" gradientUnits="userSpaceOnUse">
<stop stop-color="#984063"/>
<stop offset="1" stop-color="#F6469D"/>
</linearGradient>
<linearGradient id="paint3_linear" x1="26.5366" y1="7.75824" x2="28.6606" y2="7.75824" gradientUnits="userSpaceOnUse">
<stop stop-color="#984063"/>
<stop offset="1" stop-color="#F6469D"/>
</linearGradient>
<linearGradient id="paint4_linear" x1="29.1157" y1="7.75824" x2="31.2397" y2="7.75824" gradientUnits="userSpaceOnUse">
<stop stop-color="#984063"/>
<stop offset="1" stop-color="#F6469D"/>
</linearGradient>
<linearGradient id="paint5_linear" x1="74.4464" y1="1.37262" x2="74.4464" y2="7.47925" gradientUnits="userSpaceOnUse">
<stop stop-color="#E9F1F9" stop-opacity="0.75"/>
<stop offset="1" stop-color="white"/>
</linearGradient>
<linearGradient id="paint6_linear" x1="72.7925" y1="4.44654" x2="76.0619" y2="4.44654" gradientUnits="userSpaceOnUse">
<stop stop-color="#984063"/>
<stop offset="1" stop-color="#F6469D"/>
</linearGradient>
<linearGradient id="paint7_linear" x1="74.4273" y1="2.69296" x2="74.4273" y2="6.20015" gradientUnits="userSpaceOnUse">
<stop stop-color="#984063"/>
<stop offset="1" stop-color="#F6469D"/>
</linearGradient>
</defs>
</svg>
