<svg width="108" height="20" viewBox="0 0 108 20" fill="none" xmlns="http://www.w3.org/2000/svg">
<path d="M55.1489 5.36844L54.382 8.44236C53.7855 8.16228 53.2175 8.02218 52.6778 8.02218C52.0529 8.02218 51.5842 8.24333 51.2718 8.68562C50.9736 9.12791 50.8245 9.69548 50.8245 10.3884V15.8728H46.9474V5.12518H50.4623L50.5688 6.5184C50.5973 6.47417 50.6327 6.42253 50.6753 6.36359C50.718 6.28984 50.8173 6.16456 50.9736 5.98765C51.144 5.79602 51.3216 5.63381 51.5061 5.50113C51.6907 5.3537 51.9322 5.22838 52.2304 5.12518C52.5428 5.00723 52.8695 4.94826 53.2104 4.94826C53.608 4.94826 53.9701 4.98512 54.2968 5.05884C54.6235 5.13255 54.8435 5.1989 54.9572 5.25787L55.1489 5.36844ZM63.203 5.12518V8.13276H60.7958V11.4942C60.7958 12.0396 60.8597 12.4451 60.9875 12.7105C61.1153 12.9611 61.3922 13.0864 61.8183 13.0864L62.9473 12.998V15.895C62.4218 16.0129 61.7259 16.0719 60.8597 16.0719C59.5389 16.0719 58.5519 15.7254 57.8986 15.0325C57.2595 14.3248 56.94 13.4034 56.94 12.2682V8.13276L55.3636 8.0443V5.12518H57.0039L57.3874 1.83011H60.7958V5.12518H63.203ZM65.2344 14.944V0.39267H69.1114V5.21364C69.6653 5.03672 70.2049 4.94826 70.7304 4.94826C72.2925 4.94826 73.5637 5.46427 74.5436 6.49628C75.5377 7.52825 76.0348 8.85513 76.0348 10.4769C76.0348 12.1723 75.5022 13.5287 74.4371 14.546C73.3861 15.5632 72.0014 16.0719 70.2831 16.0719C69.4025 16.0719 68.5363 15.9834 67.6842 15.8065C66.8462 15.6149 66.2285 15.4231 65.8308 15.2315L65.2344 14.944ZM72.1364 10.4769C72.1364 9.69548 71.973 9.09109 71.6464 8.66351C71.3339 8.23592 70.8937 8.02218 70.3257 8.02218C70.0842 8.02218 69.857 8.059 69.644 8.13276C69.4451 8.19169 69.3102 8.25074 69.2392 8.30967L69.1114 8.42025V12.6883C69.3812 12.8948 69.786 12.998 70.3257 12.998C70.9079 12.998 71.3552 12.7842 71.6677 12.3566C71.9801 11.929 72.1364 11.3025 72.1364 10.4769ZM84.2775 5.12518V8.13276H81.8703V11.4942C81.8703 12.0396 81.9342 12.4451 82.062 12.7105C82.1898 12.9611 82.4667 13.0864 82.8928 13.0864L84.0218 12.998V15.895C83.4964 16.0129 82.8004 16.0719 81.9342 16.0719C80.6134 16.0719 79.6264 15.7254 78.9731 15.0325C78.334 14.3248 78.0145 13.4034 78.0145 12.2682V8.13276L76.4381 8.0443V5.12518H78.0784L78.4619 1.83011H81.8703V5.12518H84.2775ZM96.9388 9.48174V15.8728H93.0831V9.54809C93.0831 9.07627 92.9837 8.70773 92.7849 8.44236C92.6003 8.16228 92.3375 8.02218 91.9967 8.02218C91.6843 8.02218 91.3789 8.09594 91.0806 8.24333C90.7824 8.39072 90.5552 8.53823 90.399 8.68562L90.1859 8.90676V15.8728H86.3089V5.12518H89.909L90.0155 6.09822C90.1149 6.00976 90.2498 5.89919 90.4203 5.7665C90.5907 5.63381 90.9315 5.46427 91.4428 5.25787C91.9541 5.03672 92.4511 4.92615 92.934 4.92615C94.2973 4.92615 95.3057 5.33159 95.9589 6.14245C96.6122 6.95328 96.9388 8.06641 96.9388 9.48174Z" fill="#211D2E"/>
<path d="M20.1701 4.94829C20.6672 4.94829 21.1145 5.03675 21.5121 5.21367C21.924 5.37584 22.201 5.53798 22.3429 5.70019L22.5773 5.96556C23.6992 5.27264 24.814 4.92618 25.9218 4.92618C27.2425 4.92618 28.2438 5.30212 28.9254 6.05402C29.6071 6.80591 29.948 7.90423 29.948 9.34908V15.8729H26.1774V9.526C26.1774 8.52344 25.8366 8.02221 25.1549 8.02221C24.9277 8.02221 24.6934 8.08856 24.4519 8.22124C24.2104 8.33922 24.033 8.4645 23.9193 8.59719L23.7276 8.79622V15.8729H19.9145V9.526C19.9145 9.00996 19.8505 8.63401 19.7227 8.39816C19.5949 8.14749 19.3677 8.02221 19.0411 8.02221C18.7854 8.02221 18.5227 8.10326 18.2529 8.26547C17.9972 8.41287 17.7984 8.56037 17.6564 8.70776L17.4647 8.92891V15.8729H13.6089V5.12521H17.209L17.2942 6.12036C17.3936 6.0319 17.5214 5.92133 17.6777 5.78865C17.8481 5.65596 18.1818 5.48645 18.6789 5.28001C19.1902 5.05886 19.6873 4.94829 20.1701 4.94829Z" fill="#211D2E"/>
<path d="M4.38889 19.8932V17.9308C3.59217 17.8105 2.83167 17.615 2.10738 17.3443C1.39758 17.0736 0.88334 16.833 0.564653 16.6225L0.108353 16.3067L1.82491 12.7202C1.95528 12.8254 2.1436 12.9533 2.38986 13.1036C2.63611 13.239 3.12139 13.4345 3.84567 13.6901C4.58444 13.9307 5.31597 14.051 6.04026 14.051C6.69212 14.051 7.20636 13.9382 7.58299 13.7127C7.95962 13.4871 8.14794 13.1939 8.14794 12.833C8.14794 12.5773 7.95238 12.3593 7.56126 12.1788C7.18463 11.9833 6.70661 11.8254 6.12718 11.7051C5.56223 11.5848 4.93935 11.4119 4.25852 11.1863C3.59217 10.9457 2.96929 10.675 2.38986 10.3743C1.82491 10.0735 1.34688 9.61486 0.955768 8.99831C0.579139 8.36671 0.390824 7.62986 0.390824 6.78774C0.390824 5.67493 0.752968 4.70499 1.47725 3.87791C2.21603 3.05082 3.18657 2.47186 4.38889 2.14103V0.0206909H8.08275V1.91546C8.85049 1.99065 9.56754 2.11847 10.2339 2.29893C10.9002 2.47938 11.3783 2.6448 11.668 2.79518L12.1025 3.02075L10.3643 6.67495C9.21988 6.11855 8.02481 5.84035 6.77903 5.84035C5.47532 5.84035 4.82346 6.14111 4.82346 6.74262C4.82346 6.92308 4.9321 7.08098 5.14939 7.21632C5.38116 7.35166 5.67812 7.46444 6.04026 7.55467C6.41689 7.62986 6.83698 7.7276 7.30052 7.84791C7.76406 7.96821 8.24209 8.09603 8.73461 8.23137C9.22712 8.36671 9.70515 8.56221 10.1687 8.81785C10.6322 9.07349 11.0451 9.36673 11.4072 9.69757C11.7839 10.0284 12.0808 10.4645 12.2981 11.0059C12.5299 11.5322 12.6458 12.1337 12.6458 12.8104C12.6458 13.9683 12.2402 15.021 11.429 15.9684C10.6322 16.9007 9.51684 17.5323 8.08275 17.8631V19.8932H4.38889Z" fill="url(#paint0_linear)"/>
<path fill-rule="evenodd" clip-rule="evenodd" d="M44.7392 14.3139C45.398 13.1493 45.7758 11.7925 45.7758 10.3443C45.7758 6.00848 42.39 2.49359 38.2134 2.49359C34.0368 2.49359 30.651 6.00848 30.651 10.3443C30.651 14.68 34.0368 18.1949 38.2134 18.1949C39.6085 18.1949 40.9153 17.8027 42.0373 17.1188L45.7282 18.1455L44.7392 14.3139Z" fill="url(#paint1_radial)"/>
<path d="M34.6422 11.8708C35.4543 11.8708 36.1127 11.1873 36.1127 10.3442C36.1127 9.50117 35.4543 8.81772 34.6422 8.81772C33.8301 8.81772 33.1717 9.50117 33.1717 10.3442C33.1717 11.1873 33.8301 11.8708 34.6422 11.8708Z" fill="white"/>
<path d="M38.2134 11.8708C39.0255 11.8708 39.6838 11.1873 39.6838 10.3442C39.6838 9.50117 39.0255 8.81772 38.2134 8.81772C37.4012 8.81772 36.7429 9.50117 36.7429 10.3442C36.7429 11.1873 37.4012 11.8708 38.2134 11.8708Z" fill="white"/>
<path d="M41.7845 11.8708C42.5967 11.8708 43.255 11.1873 43.255 10.3442C43.255 9.50117 42.5967 8.81772 41.7845 8.81772C40.9724 8.81772 40.3141 9.50117 40.3141 10.3442C40.3141 11.1873 40.9724 11.8708 41.7845 11.8708Z" fill="white"/>
<path d="M104.677 1.83014H101.482C99.7172 1.83014 98.2866 3.31529 98.2866 5.14732V6.65513C98.2866 8.48716 99.7172 9.97231 101.482 9.97231H104.677C106.442 9.97231 107.873 8.48716 107.873 6.65513V5.14732C107.873 3.31529 106.442 1.83014 104.677 1.83014Z" fill="url(#paint2_radial)"/>
<path d="M104.733 5.32355H101.373C101.051 5.32355 100.79 5.59449 100.79 5.92871C100.79 6.26293 101.051 6.53386 101.373 6.53386H104.733C105.055 6.53386 105.316 6.26293 105.316 5.92871C105.316 5.59449 105.055 5.32355 104.733 5.32355Z" fill="white"/>
<path d="M103.639 7.65871V4.19876C103.639 3.86288 103.377 3.59061 103.053 3.59061C102.729 3.59061 102.467 3.86288 102.467 4.19876V7.65871C102.467 7.99458 102.729 8.26686 103.053 8.26686C103.377 8.26686 103.639 7.99458 103.639 7.65871Z" fill="white"/>
<defs>
<linearGradient id="paint0_linear" x1="-0.130662" y1="11.7816" x2="10.2011" y2="11.7816" gradientUnits="userSpaceOnUse">
<stop stop-color="#42C1B8"/>
<stop offset="1" stop-color="#3BA49D"/>
</linearGradient>
<radialGradient id="paint1_radial" cx="0" cy="0" r="1" gradientUnits="userSpaceOnUse" gradientTransform="translate(37.4571 6.88996) rotate(73.7854) scale(12.9996 12.5982)">
<stop stop-color="#F6469D"/>
<stop offset="1" stop-color="#984063"/>
</radialGradient>
<radialGradient id="paint2_radial" cx="0" cy="0" r="1" gradientUnits="userSpaceOnUse" gradientTransform="translate(102.6 4.10995) rotate(70.4335) scale(6.86973 7.83534)">
<stop stop-color="#F6469D"/>
<stop offset="1" stop-color="#984063"/>
</radialGradient>
</defs>
</svg>
