<svg width="0" height="0" class="hidden">

	<!-- Favourite icon -->
	<symbol xmlns="http://www.w3.org/2000/svg" viewBox="0 0 510 510" id="favourite-icon">
		<path d="M255 489.6l-35.7-35.7C86.7 336.6 0 257.55 0 160.65 0 81.6 61.2 20.4 140.25 20.4c43.35 0 86.7 20.4 114.75 53.55C283.05 40.8 326.4 20.4 369.75 20.4 448.8 20.4 510 81.6 510 160.65c0 96.9-86.7 175.95-219.3 293.25L255 489.6z">
		</path>
	</symbol>

	<!-- Message icon -->
	<symbol viewBox="0 0 35 33" xmlns="http://www.w3.org/2000/svg" id="message-icon">
		<path d="M30.188 0H4.812C2.159 0 0 2.212 0 4.931v15.916c0 2.713 2.15 4.921 4.795 4.93V33l10.127-7.222h15.266c2.653 0 4.812-2.212 4.812-4.931V4.93C35 2.211 32.841 0 30.188 0zm2.761 20.847c0 1.56-1.238 2.83-2.76 2.83h-15.91l-7.433 5.3v-5.3H4.812c-1.523 0-2.761-1.27-2.761-2.83V4.93c0-1.56 1.238-2.83 2.76-2.83h25.377c1.523 0 2.761 1.27 2.761 2.83v15.916z"></path>
		<path d="M8 8h19v2H8V8zm0 4h19v2H8v-2zm0 4h19v2H8v-2z"></path>
	</symbol>

	<!-- Phone icon -->
	<symbol xmlns="http://www.w3.org/2000/svg" viewBox="0 0 473.806 473.806" id="phone-icon">
		<path d="M374.456 293.506c-9.7-10.1-21.4-15.5-33.8-15.5-12.3 0-24.1 5.3-34.2 15.4l-31.6 31.5c-2.6-1.4-5.2-2.7-7.7-4-3.6-1.8-7-3.5-9.9-5.3-29.6-18.8-56.5-43.3-82.3-75-12.5-15.8-20.9-29.1-27-42.6 8.2-7.5 15.8-15.3 23.2-22.8 2.8-2.8 5.6-5.7 8.4-8.5 21-21 21-48.2 0-69.2l-27.3-27.3c-3.1-3.1-6.3-6.3-9.3-9.5-6-6.2-12.3-12.6-18.8-18.6-9.7-9.6-21.3-14.7-33.5-14.7s-24 5.1-34 14.7l-.2.2-34 34.3c-12.8 12.8-20.1 28.4-21.7 46.5-2.4 29.2 6.2 56.4 12.8 74.2 16.2 43.7 40.4 84.2 76.5 127.6 43.8 52.3 96.5 93.6 156.7 122.7 23 10.9 53.7 23.8 88 26 2.1.1 4.3.2 6.3.2 23.1 0 42.5-8.3 57.7-24.8.1-.2.3-.3.4-.5 5.2-6.3 11.2-12 17.5-18.1 4.3-4.1 8.7-8.4 13-12.9 9.9-10.3 15.1-22.3 15.1-34.6 0-12.4-5.3-24.3-15.4-34.3l-54.9-55.1zm35.8 105.3c-.1 0-.1.1 0 0-3.9 4.2-7.9 8-12.2 12.2-6.5 6.2-13.1 12.7-19.3 20-10.1 10.8-22 15.9-37.6 15.9-1.5 0-3.1 0-4.6-.1-29.7-1.9-57.3-13.5-78-23.4-56.6-27.4-106.3-66.3-147.6-115.6-34.1-41.1-56.9-79.1-72-119.9-9.3-24.9-12.7-44.3-11.2-62.6 1-11.7 5.5-21.4 13.8-29.7l34.1-34.1c4.9-4.6 10.1-7.1 15.2-7.1 6.3 0 11.4 3.8 14.6 7l.3.3c6.1 5.7 11.9 11.6 18 17.9 3.1 3.2 6.3 6.4 9.5 9.7l27.3 27.3c10.6 10.6 10.6 20.4 0 31-2.9 2.9-5.7 5.8-8.6 8.6-8.4 8.6-16.4 16.6-25.1 24.4-.2.2-.4.3-.5.5-8.6 8.6-7 17-5.2 22.7l.3.9c7.1 17.2 17.1 33.4 32.3 52.7l.1.1c27.6 34 56.7 60.5 88.8 80.8 4.1 2.6 8.3 4.7 12.3 6.7 3.6 1.8 7 3.5 9.9 5.3.4.2.8.5 1.2.7 3.4 1.7 6.6 2.5 9.9 2.5 8.3 0 13.5-5.2 15.2-6.9l34.2-34.2c3.4-3.4 8.8-7.5 15.1-7.5 6.2 0 11.3 3.9 14.4 7.3l.2.2 55.1 55.1c10.3 10.2 10.3 20.7.1 31.3zm-154.2-286.1c26.2 4.4 50 16.8 69 35.8s31.3 42.8 35.8 69c1.1 6.6 6.8 11.2 13.3 11.2.8 0 1.5-.1 2.3-.2 7.4-1.2 12.3-8.2 11.1-15.6-5.4-31.7-20.4-60.6-43.3-83.5s-51.8-37.9-83.5-43.3c-7.4-1.2-14.3 3.7-15.6 11s3.5 14.4 10.9 15.6zm217.2 96.3c-8.9-52.2-33.5-99.7-71.3-137.5s-85.3-62.4-137.5-71.3c-7.3-1.3-14.2 3.7-15.5 11-1.2 7.4 3.7 14.3 11.1 15.6 46.6 7.9 89.1 30 122.9 63.7 33.8 33.8 55.8 76.3 63.7 122.9 1.1 6.6 6.8 11.2 13.3 11.2.8 0 1.5-.1 2.3-.2 7.3-1.1 12.3-8.1 11-15.4z">
		</path>
	</symbol>

	<!-- Mark icon -->
	<symbol xmlns="http://www.w3.org/2000/svg" viewBox="0 0 512 512" id="mark-icon">
		<path d="M256 0C156.748 0 76 80.748 76 180c0 33.534 9.289 66.26 26.869 94.652l142.885 230.257A15 15 0 0 0 258.499 512h.119a14.997 14.997 0 0 0 12.75-7.292L410.611 272.22C427.221 244.428 436 212.539 436 180 436 80.748 355.252 0 256 0zm128.866 256.818L258.272 468.186l-129.905-209.34C113.734 235.214 105.8 207.95 105.8 180c0-82.71 67.49-150.2 150.2-150.2S406.1 97.29 406.1 180c0 27.121-7.411 53.688-21.234 76.818z"></path>
		<path d="M256 90c-49.626 0-90 40.374-90 90 0 49.309 39.717 90 90 90 50.903 0 90-41.233 90-90 0-49.626-40.374-90-90-90zm0 150.2c-33.257 0-60.2-27.033-60.2-60.2 0-33.084 27.116-60.2 60.2-60.2s60.1 27.116 60.1 60.2c0 32.683-26.316 60.2-60.1 60.2z"></path>
	</symbol>

	<!-- Back icon -->
	<symbol viewBox="0 0 13 18" xmlns="http://www.w3.org/2000/svg" id="back-icon">
		<path fill-rule="evenodd" clip-rule="evenodd" d="M10.33 1.26L.968 8.41c-.528.402-.528 1.073 0 1.477l9.364 7.146c.574.439 1.48.439 2.055 0 .607-.464.607-1.237 0-1.702L4.543 9.344c-.142-.108-.142-.287 0-.395l7.843-5.987c.607-.464.607-1.237 0-1.701a1.709 1.709 0 0 0-1.027-.328c-.371 0-.74.11-1.028.328z" fill-opacity=".66">
		</path>
	</symbol>

	<!-- Info icon -->
	<symbol viewBox="0 0 22 18" xmlns="http://www.w3.org/2000/svg" id="info-icon">
		<path fill-rule="evenodd" clip-rule="evenodd" d="M10.875 6.242c.76 0 1.375-.49 1.375-1.094 0-.603-.616-1.093-1.375-1.093-.76 0-1.375.49-1.375 1.093 0 .604.616 1.094 1.375 1.094zM10 7.235h2v6.361h1v.398H9v-.398h1V7.633H9v-.398h1zm1 9.94c5.523 0 10-3.56 10-7.952 0-4.391-4.477-7.95-10-7.95S1 4.831 1 9.222s4.477 7.951 10 7.951zm0 .794c-6.075 0-11-3.915-11-8.746C0 4.393 4.925.477 11 .477s11 3.916 11 8.746-4.925 8.746-11 8.746z" fill-opacity=".66">
		</path>
	</symbol>

	<!-- VK icon -->
	<symbol xmlns="http://www.w3.org/2000/svg" viewBox="0 0 548.358 548.358" id="vk-icon">
		<path d="M545.451 400.298c-.664-1.431-1.283-2.618-1.858-3.569-9.514-17.135-27.695-38.167-54.532-63.102l-.567-.571-.284-.28-.287-.287h-.288c-12.18-11.611-19.893-19.418-23.123-23.415-5.91-7.614-7.234-15.321-4.004-23.13 2.282-5.9 10.854-18.36 25.696-37.397 7.807-10.089 13.99-18.175 18.556-24.267 32.931-43.78 47.208-71.756 42.828-83.939l-1.701-2.847c-1.143-1.714-4.093-3.282-8.846-4.712-4.764-1.427-10.853-1.663-18.278-.712l-82.224.568c-1.332-.472-3.234-.428-5.712.144l-3.713.859-1.431.715-1.136.859c-.952.568-1.999 1.567-3.142 2.995-1.137 1.423-2.088 3.093-2.848 4.996-8.952 23.031-19.13 44.444-30.553 64.238-7.043 11.803-13.511 22.032-19.418 30.693-5.899 8.658-10.848 15.037-14.842 19.126-4 4.093-7.61 7.372-10.852 9.849-3.237 2.478-5.708 3.525-7.419 3.142-1.715-.383-3.33-.763-4.859-1.143-2.663-1.714-4.805-4.045-6.42-6.995-1.622-2.95-2.714-6.663-3.285-11.136-.568-4.476-.904-8.326-1-11.563-.089-3.233-.048-7.806.145-13.706.198-5.903.287-9.897.287-11.991 0-7.234.141-15.085.424-23.555.288-8.47.521-15.181.716-20.125.194-4.949.284-10.185.284-15.705s-.336-9.849-1-12.991a44.442 44.442 0 0 0-2.99-9.137c-1.335-2.95-3.289-5.232-5.853-6.852-2.569-1.618-5.763-2.902-9.564-3.856-10.089-2.283-22.936-3.518-38.547-3.71-35.401-.38-58.148 1.906-68.236 6.855-3.997 2.091-7.614 4.948-10.848 8.562-3.427 4.189-3.905 6.475-1.431 6.851 11.422 1.711 19.508 5.804 24.267 12.275l1.715 3.429c1.334 2.474 2.666 6.854 3.999 13.134 1.331 6.28 2.19 13.227 2.568 20.837.95 13.897.95 25.793 0 35.689-.953 9.9-1.853 17.607-2.712 23.127-.859 5.52-2.143 9.993-3.855 13.418-1.715 3.426-2.856 5.52-3.428 6.28-.571.76-1.047 1.239-1.425 1.427a21.387 21.387 0 0 1-7.71 1.431c-2.667 0-5.901-1.334-9.707-4-3.805-2.666-7.754-6.328-11.847-10.992-4.093-4.665-8.709-11.184-13.85-19.558-5.137-8.374-10.467-18.271-15.987-29.691l-4.567-8.282c-2.855-5.328-6.755-13.086-11.704-23.267-4.952-10.185-9.329-20.037-13.134-29.554-1.521-3.997-3.806-7.04-6.851-9.134l-1.429-.859c-.95-.76-2.475-1.567-4.567-2.427a30.301 30.301 0 0 0-6.567-1.854l-78.229.568c-7.994 0-13.418 1.811-16.274 5.428l-1.143 1.711c-.571.953-.859 2.475-.859 4.57 0 2.094.571 4.664 1.714 7.707 11.42 26.84 23.839 52.725 37.257 77.659 13.418 24.934 25.078 45.019 34.973 60.237 9.897 15.229 19.985 29.602 30.264 43.112 10.279 13.515 17.083 22.176 20.412 25.981 3.333 3.812 5.951 6.662 7.854 8.565l7.139 6.851c4.568 4.569 11.276 10.041 20.127 16.416 8.853 6.379 18.654 12.659 29.408 18.85 10.756 6.181 23.269 11.225 37.546 15.126 14.275 3.905 28.169 5.472 41.684 4.716h32.834c6.659-.575 11.704-2.669 15.133-6.283l1.136-1.431c.764-1.136 1.479-2.901 2.139-5.276.668-2.379 1-5 1-7.851-.195-8.183.428-15.558 1.852-22.124 1.423-6.564 3.045-11.513 4.859-14.846 1.813-3.33 3.859-6.14 6.136-8.418 2.282-2.283 3.908-3.666 4.862-4.142.948-.479 1.705-.804 2.276-.999 4.568-1.522 9.944-.048 16.136 4.429 6.187 4.473 11.99 9.996 17.418 16.56 5.425 6.57 11.943 13.941 19.555 22.124 7.617 8.186 14.277 14.271 19.985 18.274l5.708 3.426c3.812 2.286 8.761 4.38 14.853 6.283 6.081 1.902 11.409 2.378 15.984 1.427l73.087-1.14c7.229 0 12.854-1.197 16.844-3.572 3.998-2.379 6.373-5 7.139-7.851.764-2.854.805-6.092.145-9.712-.677-3.611-1.344-6.136-2.008-7.563z">
		</path>
	</symbol>

	<!-- Telegram icon -->
	<symbol xmlns="http://www.w3.org/2000/svg" viewBox="0 0 511.999 511.999" id="tg-icon">
		<path d="M165.323 267.452L395.89 125.446c4.144-2.545 8.407 3.058 4.849 6.359L210.454 308.684a39.448 39.448 0 0 0-12.225 23.602l-6.482 48.036c-.858 6.414-9.868 7.05-11.638.843L155.18 293.57c-2.855-9.992 1.306-20.663 10.143-26.118z" fill="#c3c3c7"></path>
		<path d="M9.043 246.86l117.975 44.032 45.664 146.854c2.922 9.405 14.423 12.882 22.057 6.641l65.761-53.61a19.618 19.618 0 0 1 23.916-.667l118.61 86.113c8.166 5.936 19.736 1.461 21.784-8.407l86.888-417.947c2.236-10.779-8.356-19.772-18.62-15.802L8.905 220.845c-11.948 4.608-11.844 21.524.138 26.015zm156.28 20.592L395.89 125.446c4.144-2.545 8.407 3.058 4.849 6.359L210.454 308.684a39.448 39.448 0 0 0-12.225 23.602l-6.482 48.036c-.858 6.414-9.868 7.05-11.638.843L155.18 293.57c-2.855-9.992 1.306-20.663 10.143-26.118z"
	  fill="#dedee0"></path>
	</symbol>

	<!-- Facebook icon -->
	<symbol xmlns="http://www.w3.org/2000/svg" viewBox="0 0 430.113 430.114" id="fb-icon">
		<path d="M158.081 83.3v59.218h-43.385v72.412h43.385v215.183h89.122V214.936h59.805s5.601-34.721 8.316-72.685H247.54V92.74c0-7.4 9.717-17.354 19.321-17.354h48.557V.001h-66.021C155.878-.004 158.081 72.48 158.081 83.3z">
		</path>
	</symbol>

	<!-- OK icon -->
	<symbol xmlns="http://www.w3.org/2000/svg" viewBox="0 0 512.479 512.479" id="ok-icon">
		<g>
			<path d="M256.239 277.333c76.583 0 138.667-62.083 138.667-138.667S332.823 0 256.239 0 117.573 62.083 117.573 138.667c.094 76.544 62.122 138.572 138.666 138.666zm0-213.333c41.237 0 74.667 33.429 74.667 74.667s-33.429 74.667-74.667 74.667-74.667-33.429-74.667-74.667S215.002 64 256.239 64z"></path>
			<path d="M392.069 343.04a53.72 53.72 0 0 0 24.171-44.8 38.698 38.698 0 0 0-21.696-35.307 40.534 40.534 0 0 0-42.667 4.011c-56.983 41.543-134.27 41.543-191.253 0a40.747 40.747 0 0 0-42.667-4.011 38.74 38.74 0 0 0-21.717 35.285 53.78 53.78 0 0 0 24.171 44.8 246.275 246.275 0 0 0 62.507 29.867 212.318 212.318 0 0 0 11.627 3.243l-64.469 63.04c-16.912 16.409-17.321 43.42-.912 60.333 16.409 16.912 43.42 17.321 60.333.912.352-.342.698-.689 1.038-1.043l65.707-68.011 65.835 68.139c16.395 16.925 43.407 17.355 60.332.96 16.925-16.395 17.355-43.407.96-60.332a42.943 42.943 0 0 0-1.047-1.044l-64.363-62.976a270.92 270.92 0 0 0 11.669-3.264 245.352 245.352 0 0 0 62.441-29.802z"></path>
		</g>
	</symbol>
	
	<!-- Whatsapp icon -->
	<symbol xmlns="http://www.w3.org/2000/svg" viewBox="0 0 90 90" id="wa-icon">
		<path d="M90 43.841c0 24.213-19.779 43.841-44.182 43.841a44.256 44.256 0 0 1-21.357-5.455L0 90l7.975-23.522a43.38 43.38 0 0 1-6.34-22.637C1.635 19.628 21.416 0 45.818 0 70.223 0 90 19.628 90 43.841zM45.818 6.982c-20.484 0-37.146 16.535-37.146 36.859 0 8.065 2.629 15.534 7.076 21.61L11.107 79.14l14.275-4.537A37.122 37.122 0 0 0 45.819 80.7c20.481 0 37.146-16.533 37.146-36.857S66.301 6.982 45.818 6.982zm22.311 46.956c-.273-.447-.994-.717-2.076-1.254-1.084-.537-6.41-3.138-7.4-3.495-.993-.358-1.717-.538-2.438.537-.721 1.076-2.797 3.495-3.43 4.212-.632.719-1.263.809-2.347.271-1.082-.537-4.571-1.673-8.708-5.333-3.219-2.848-5.393-6.364-6.025-7.441-.631-1.075-.066-1.656.475-2.191.488-.482 1.084-1.255 1.625-1.882.543-.628.723-1.075 1.082-1.793.363-.717.182-1.344-.09-1.883-.27-.537-2.438-5.825-3.34-7.977-.902-2.15-1.803-1.792-2.436-1.792-.631 0-1.354-.09-2.076-.09s-1.896.269-2.889 1.344c-.992 1.076-3.789 3.676-3.789 8.963 0 5.288 3.879 10.397 4.422 11.113.541.716 7.49 11.92 18.5 16.223C58.2 65.771 58.2 64.336 60.186 64.156c1.984-.179 6.406-2.599 7.312-5.107.9-2.512.9-4.663.631-5.111z">
		</path>
	</symbol>

	<!-- Viber icon -->
	<symbol viewBox="-22 0 512 512" xmlns="http://www.w3.org/2000/svg" id="vb-icon">
		<path d="M468.484 180.707c.004-48.086-18.843-93.414-53.066-127.637C381.195 18.848 335.868 0 287.778 0H180.702C132.621 0 87.29 18.848 53.07 53.066 18.848 87.293 0 132.621 0 180.707v84.164c0 37.242 11.36 73.063 32.852 103.598 18.96 26.937 44.46 47.98 74.191 61.32v48.344c0 24.996 13.996 33.867 25.98 33.867 8.563 0 17.125-4.227 25.461-12.559l53.86-53.859 75.437-.004c48.086 0 93.414-18.848 127.637-53.066 34.223-34.223 53.07-79.555 53.07-127.64zM287.781 415.578l-81.648.004c-3.98 0-7.793 1.578-10.606 4.39l-58.254 58.255c-.074.078-.152.152-.23.226v-58.676a15 15 0 0 0-9.652-14.015c-58.25-22.227-97.387-78.848-97.387-140.89v-84.165c0-40.074 15.726-77.871 44.281-106.43C102.84 45.727 140.633 30 180.707 30h107.07c40.075 0 77.871 15.727 106.426 44.281 28.559 28.559 44.285 66.356 44.281 106.426l.004 84.164c-.004 83.102-67.61 150.707-150.707 150.707zm0 0"></path>
		<path d="M274.133 245.336c-5.856-5.86-15.352-5.86-21.211 0l-12.117 12.113-46.953-46.949 12.117-12.113a15.003 15.003 0 0 0 0-21.215l-56.805-56.805a14.996 14.996 0 0 0-21.21 0l-39.766 39.766c-21.504 21.504-21.504 56.5.003 78.015l124.965 124.973c10.39 10.387 24.246 16.106 39.008 16.106 14.766 0 28.621-5.72 39.012-16.106l39.765-39.762a15.012 15.012 0 0 0 4.395-10.609c0-3.977-1.582-7.793-4.395-10.605zm-4.172 96.566c-4.723 4.723-11.043 7.325-17.797 7.325-6.754 0-13.074-2.602-17.797-7.325l-124.96-124.968c-9.813-9.813-9.817-25.782-.005-35.59l29.157-29.16 35.59 35.593-12.118 12.114a15.003 15.003 0 0 0-4.394 10.605c0 3.98 1.582 7.793 4.394 10.61l68.164 68.164c5.86 5.855 15.356 5.859 21.215 0l12.117-12.114 35.59 35.59zM237.883 66.355c-8.285 0-15 6.715-15 15 0 8.282 6.715 15 15 15 34.328 0 66.605 13.368 90.879 37.645 24.277 24.273 37.644 56.547 37.644 90.879 0 8.281 6.715 15 15 15 8.281 0 15-6.715 15-15 0-42.344-16.488-82.152-46.43-112.094-29.94-29.941-69.75-46.43-112.093-46.43zm0 0"></path>
		<path d="M302.14 224.875c0 8.281 6.72 15 15 15 8.286 0 15-6.719 15-15 0-51.973-42.285-94.254-94.257-94.254-8.285 0-15 6.715-15 15s6.715 15 15 15c35.433 0 64.258 28.824 64.258 64.254zm0 0"></path>
	</symbol>

	<!-- Exchange icon -->
	<symbol viewBox="0 0 16 16" xmlns="http://www.w3.org/2000/svg" id="exchange-icon">
		<path d="M8.78 12.406h2.314a.75.75 0 0 1 0 1.5H6.969a.75.75 0 0 1-.75-.75V9.031a.75.75 0 0 1 1.5 0v2.315l4.907-4.908a.75.75 0 0 1 1.06 1.061L8.78 12.406zM7.22 3.594H4.907a.75.75 0 0 1 0-1.5h4.125a.75.75 0 0 1 .75.75v4.125a.75.75 0 0 1-1.5 0V4.654L3.374 9.562A.75.75 0 0 1 2.314 7.5L7.22 3.594z">
		</path>
	</symbol>

</svg>