<svg xmlns="http://www.w3.org/2000/svg" viewBox="0 0 21 21"><defs><style>.cls-1{fill:#464646;}</style></defs><title>fb-icon</title><g id="Слой_2" data-name="Слой 2"><g id="Слой_1-2" data-name="Слой 1"><path class="cls-1" d="M17.67,9.66h-2.9c-.18,0-.23-.06-.23-.23,0-.64,0-1.28,0-1.92A2.38,2.38,0,0,1,14.61,7a1,1,0,0,1,.8-.8,3.6,3.6,0,0,1,.69-.08c.5,0,1,0,1.5,0,.14,0,.2,0,.2-.19q0-1.27,0-2.54c0-.12,0-.19-.16-.2a11.51,11.51,0,0,0-3.57,0A3.6,3.6,0,0,0,11.26,6.4a11.09,11.09,0,0,0-.08,1.18c0,.61,0,1.23,0,1.84,0,.18,0,.24-.24.24H8.69c-.2,0-.26.06-.26.25q0,1.37,0,2.75c0,.19.06.26.25.25H11c.17,0,.22.06.22.22q0,3.83,0,7.65c0,.18-.06.22-.23.22H1.15A1.11,1.11,0,0,1,0,19.84c0-1.11,0-2.21,0-3.32Q0,8.87,0,1.22A1.12,1.12,0,0,1,.85,0a1.41,1.41,0,0,1,.33,0H19.82A1.09,1.09,0,0,1,21,1.18q0,9.32,0,18.64A1.1,1.1,0,0,1,19.82,21h-5c-.19,0-.27,0-.27-.25q0-3.79,0-7.59c0-.21.07-.26.27-.26.73,0,1.45,0,2.18,0,.21,0,.31,0,.34-.28.11-.92.23-1.83.35-2.74A2.1,2.1,0,0,0,17.67,9.66Z"/></g></g></svg>