<svg xmlns="http://www.w3.org/2000/svg" viewBox="0 0 21 21"><defs><style>.cls-1{fill:#464646;}</style></defs><title>inst-icon</title><g id="Слой_2" data-name="Слой 2"><g id="Слой_1-2" data-name="Слой 1"><path class="cls-1" d="M0,10.49C0,8.8,0,7.1,0,5.41A5.45,5.45,0,0,1,5.48,0h10.1a5.45,5.45,0,0,1,5.13,3.71A5.53,5.53,0,0,1,21,5.48q0,5,0,10.07A5.46,5.46,0,0,1,15.54,21H5.45A5.46,5.46,0,0,1,.29,17.28,5.39,5.39,0,0,1,0,15.56Q0,13,0,10.49Zm1.8,0q0,2.52,0,5a3.65,3.65,0,0,0,3.65,3.67H15.57a3.72,3.72,0,0,0,.74-.08,3.64,3.64,0,0,0,2.91-3.56q0-5.06,0-10.13a3.72,3.72,0,0,0-.09-.81A3.64,3.64,0,0,0,15.57,1.8H5.45A3.54,3.54,0,0,0,4.27,2,3.65,3.65,0,0,0,1.8,5.48Q1.8,8,1.8,10.51Z"/><path class="cls-1" d="M10.5,15.73a5.23,5.23,0,1,1,5.23-5.21A5.23,5.23,0,0,1,10.5,15.73ZM6.88,10.51a3.63,3.63,0,1,0,3.64-3.63A3.64,3.64,0,0,0,6.88,10.51Z"/><circle class="cls-1" cx="16.31" cy="4.7" r="1.2" transform="matrix(0.01, -1, 1, 0.01, 11.53, 20.98)"/></g></g></svg>