<svg xmlns="http://www.w3.org/2000/svg" xmlns:xlink="http://www.w3.org/1999/xlink" viewBox="0 0 154 121.85"><defs><style>.cls-1{fill:url(#Безымянный_градиент_145);}</style><linearGradient id="Безымянный_градиент_145" x1="131.12" y1="33.7" x2="-7.93" y2="104.55" gradientUnits="userSpaceOnUse"><stop offset="0.12" stop-color="#f22a3c"/><stop offset="0.2" stop-color="#ee2c41"/><stop offset="0.28" stop-color="#e1334f"/><stop offset="0.37" stop-color="#cc3e67"/><stop offset="0.47" stop-color="#ae4d89"/><stop offset="0.47" stop-color="#ac4e8b"/><stop offset="0.66" stop-color="#5146bc"/><stop offset="0.72" stop-color="#3043ce"/></linearGradient></defs><title>logo</title><g id="Слой_2" data-name="Слой 2"><g id="Слой_1-2" data-name="Слой 1"><path class="cls-1" d="M42.67,40.21c3.14-1.15,4.19,3.43,1.6,4.27a2.71,2.71,0,0,1-.83.14,2.28,2.28,0,0,1-.78-4.41m6.94-1.62c2.66-1.66,4.88,2.4,2.26,3.93a2.32,2.32,0,0,1-1.18.34,2.28,2.28,0,0,1-1.08-4.26M38.87,33.72c2.8-1,4,3.46,1.41,4.31a2.68,2.68,0,0,1-.83.14,2.26,2.26,0,0,1-.58-4.45m12-2.91c3.16-.92,4.1,3.43,1.5,4.33a2.7,2.7,0,0,1-.87.15c-2.37,0-3.13-3.76-.63-4.49m-7.4-2.68c3-1.37,4.48,3,1.86,4.11a2.39,2.39,0,0,1-1,.22,2.27,2.27,0,0,1-.88-4.33M26.75,15.41c.37,3.26,1.41,3.93,2.3,6.49-1.42-.16-7.1-3.81-13.84.23a14,14,0,0,0-1.66,22.81,13.67,13.67,0,0,0,10.12,3c1.21-.11,2.5-.67,3.53-.71-.34,1-5.46,4.75-4.25,12.72C24.88,72.48,41.77,76,48.41,64.66a13.62,13.62,0,0,0,1.32-3.1c.27-1,.4-3.17.75-3.77.45.37,1.22,2.48,2.93,4.4A13.72,13.72,0,0,0,67.21,66c1.59-.48,1.34-.81,2.13.53,1.29,6.43,1.31,9.92-1.06,16.17A35.83,35.83,0,0,1,61,94.32c-5.26,5.57-15.23,13.21-22.22,15.48l-.08-.61c1.62-.17,6.28-5.84,7.34-7.36,5.35-7.68,3.37-16.15-1.87-19.88-6.32-4.5-16.33-.49-18.35,6.83-1.4,5.09,1.24,10.5,5.9,10.92,5,.41,7.52-5.82,4.1-7.91-1.42-.87-5.47-.3-4.63-2.49.68-1.76,4-1.76,5.5-1.19,8.73,3.29,5.23,24.25-22.49,28.84-2.22.37-4.52.64-6.76.8-1.18.08-6,.09-6.75.59a1.72,1.72,0,0,0,0,2.69c1.25,1,8.51.83,10.14.72A88.27,88.27,0,0,0,49,109.47C58,104,67.46,94.78,75.71,87.79,84,81.23,98.22,72.45,108.32,71.24a26.48,26.48,0,0,1,9.2.61c4.63,1.78,8.84,4.17,10.33,9.35,3.09,10.72-8.1,20-20.5,17.1a18.94,18.94,0,0,1-6.77-3.19c-1.22-.93-4.56-5-4.8-5.07-1.3,3.75,3.44,11.53,5.89,14.4,21.78,25.52,61.31,1.92,50.52-28.75-7.24-20.58-29.52-23-47.7-16.26C96.65,62.31,90,66.77,83.3,72.23a83.76,83.76,0,0,0-9.49,9.63l-.43-.16a33.36,33.36,0,0,0,1.32-9.15c0-2-.55-7.29-1.84-8.66,0-2.57,1.55-1.53,3.35-6.25a14.09,14.09,0,0,0,.45-8.48,13.84,13.84,0,0,0-6.22-8.37c-.79-.47-2.84-1.08-3.27-1.68.67-.37,2.39-.66,3.35-1a13.54,13.54,0,0,0,7-6.35,14,14,0,0,0-.61-14,13.68,13.68,0,0,0-21.94-1.53c-2.44,3,.22-1.12-1.48-6.47a14,14,0,0,0-3.19-5.4A13.5,13.5,0,0,0,40.48,0,13.82,13.82,0,0,0,26.75,15.41"/></g></g></svg>