<svg xmlns="http://www.w3.org/2000/svg" viewBox="0 0 38.04 30"><defs><style>.cls-1{fill:#464646;}</style></defs><title>Ресурс 7</title><g id="Слой_2" data-name="Слой 2"><g id="Слой_1-2" data-name="Слой 1"><path class="cls-1" d="M0,26.66a17,17,0,0,0,11.31-3.17A8.06,8.06,0,0,1,4,18.17H7.35l0-.13A8,8,0,0,1,3,15.37a7.29,7.29,0,0,1-1.72-4.83,8.67,8.67,0,0,0,3.39.89A7.8,7.8,0,0,1,1.57,6.81a7.28,7.28,0,0,1,.9-5.42,22.76,22.76,0,0,0,16.1,7.9c0-.4-.08-.76-.11-1.13a7.61,7.61,0,0,1,6.1-8A7.93,7.93,0,0,1,31.7,2.07a.76.76,0,0,0,.83.21L36.47.84c.13,0,.25-.12.37-.18s.06,0,.14,0a8.34,8.34,0,0,1-3,4c.44-.07.88-.13,1.31-.23s.9-.23,1.34-.36.87-.29,1.44-.49c-.15.24-.22.38-.32.5A15.11,15.11,0,0,1,34.5,7.26a.69.69,0,0,0-.32.65,21.35,21.35,0,0,1-6.68,16,20.76,20.76,0,0,1-10.91,5.61,23.83,23.83,0,0,1-6.72.37,22.9,22.9,0,0,1-9.57-3A3.39,3.39,0,0,1,0,26.66Z"/></g></g></svg>