<svg width="809" height="298" viewBox="0 0 809 298" fill="none" xmlns="http://www.w3.org/2000/svg">
<path d="M230.95 238.729V293.061H13.1736V249.843L124.326 144.884C136.127 133.634 144.086 124.029 148.203 116.072C152.32 107.84 154.378 99.7449 154.378 91.7873C154.378 80.2624 150.399 71.4816 142.44 65.4447C134.755 59.1335 123.365 55.9779 108.271 55.9779C95.646 55.9779 84.2563 58.4475 74.1016 63.3867C63.9469 68.0516 55.439 75.186 48.5777 84.79L0 53.5083C11.2525 36.7698 26.7589 23.7357 46.5193 14.4061C66.2798 4.80202 88.9219 0 114.446 0C135.853 0 154.516 3.56721 170.434 10.7016C186.626 17.5617 199.114 27.4401 207.896 40.337C216.953 52.9595 221.481 67.9144 221.481 85.2017C221.481 100.843 218.188 115.523 211.601 129.243C205.014 142.963 192.253 158.604 173.315 176.166L107.036 238.729H230.95Z" fill="#121212"/>
<path d="M381.167 298C357.289 298 336.02 292.1 317.357 280.301C298.694 268.502 284.011 251.489 273.308 229.262C262.878 206.762 257.664 180.007 257.664 149C257.664 117.993 262.878 91.3757 273.308 69.1492C284.011 46.6482 298.694 29.4981 317.357 17.6989C336.02 5.89963 357.289 0 381.167 0C405.044 0 426.314 5.89963 444.976 17.6989C463.639 29.4981 478.185 46.6482 488.614 69.1492C499.317 91.3757 504.669 117.993 504.669 149C504.669 180.007 499.317 206.762 488.614 229.262C478.185 251.489 463.639 268.502 444.976 280.301C426.314 292.1 405.044 298 381.167 298ZM381.167 241.61C398.731 241.61 412.454 234.064 422.334 218.972C432.489 203.88 437.566 180.556 437.566 149C437.566 117.444 432.489 94.1197 422.334 79.0276C412.454 63.9355 398.731 56.3895 381.167 56.3895C363.876 56.3895 350.154 63.9355 339.999 79.0276C330.119 94.1197 325.179 117.444 325.179 149C325.179 180.556 330.119 203.88 339.999 218.972C350.154 234.064 363.876 241.61 381.167 241.61Z" fill="#121212"/>
<path d="M645.813 4.93921V293.061H579.121V58.4475H521.487V4.93921H645.813Z" fill="#121212"/>
<path d="M797.145 0C837.49 0 869.052 12.3481 891.831 37.0442C914.61 61.4659 926 96.7265 926 142.826C926 175.48 919.825 203.469 907.475 226.793C895.399 250.117 878.246 267.816 856.015 279.889C833.785 291.963 808.123 298 779.032 298C763.663 298 748.979 296.354 734.982 293.061C720.986 289.494 709.047 284.554 699.167 278.243L723.867 229.262C737.864 238.866 755.841 243.669 777.797 243.669C802.223 243.669 821.572 236.534 835.843 222.265C850.114 207.722 857.799 186.867 858.897 159.702C841.606 176.989 817.729 185.633 787.265 185.633C768.877 185.633 752.136 181.928 737.041 174.519C721.946 167.11 710.007 156.683 701.225 143.238C692.443 129.517 688.051 113.739 688.051 95.9033C688.051 76.6952 692.854 59.8195 702.46 45.2762C712.066 30.733 725.102 19.6197 741.569 11.9365C758.311 3.97882 776.836 0 797.145 0ZM802.086 135.829C816.631 135.829 828.433 131.85 837.49 123.892C846.821 115.66 851.487 105.233 851.487 92.6105C851.487 79.988 846.958 69.698 837.901 61.7403C829.119 53.7827 816.906 49.8039 801.262 49.8039C786.991 49.8039 775.327 53.6455 766.27 61.3287C757.487 69.012 753.096 79.4392 753.096 92.6105C753.096 105.782 757.487 116.346 766.27 124.304C775.327 131.987 787.265 135.829 802.086 135.829Z" fill="#121212"/>
</svg>
