<svg width="131" height="43" viewBox="0 0 131 43" fill="none" xmlns="http://www.w3.org/2000/svg">
<path fill-rule="evenodd" clip-rule="evenodd" d="M20.3464 0.0201702C20.937 0.0201702 21.5073 0.0403405 22.0776 0.100851C16.5378 0.766469 11.4258 3.69115 7.92267 8.37065C5.80453 11.2147 4.39922 14.5629 3.84932 18.1129L3.78822 18.5768L3.74749 18.9197L3.68639 19.3634L3.64565 19.8072C3.64565 19.8072 3.58455 21.3199 3.58455 21.441C3.58455 26.2011 5.11206 30.7798 7.90231 34.5314C11.385 39.1706 16.436 42.0953 21.935 42.7811C21.4055 42.8214 20.8556 42.8416 20.326 42.8416C9.10395 42.8416 0 33.2607 0 21.4208C0 9.60103 9.10395 0 20.326 0L20.3464 0.0201702Z" fill="#CE0505"/>
<path fill-rule="evenodd" clip-rule="evenodd" d="M43.9931 28.6221C41.1418 36.6095 33.6672 42.3177 24.9095 42.3177C16.1518 42.3177 8.67715 36.6095 5.82581 28.6221L44.0135 28.6221H43.9931Z" fill="#CE0505"/>
<path d="M17.5979 21.0381V16.7419V15.6729L18.2496 16.4797C20.5511 19.364 22.8729 22.2484 25.1743 25.1327L28.2293 20.9171L31.5695 16.3183L32.2416 15.4106V16.5603V21.0381L45.0523 21.0381V21.4214C45.0319 21.4214 45.0523 21.9256 45.0523 21.966C45.0523 22.1475 45.0319 22.329 45.0319 22.5106L45.0116 22.8736L31.875 22.8736H30.8567H30.4901V22.4904V21.4214V20.8768C29.879 21.7038 29.1051 22.7728 28.3108 23.8418C27.211 25.3344 26.1112 26.8472 25.4798 27.7145L25.1947 28.0977L24.8892 27.7145L19.3698 20.7356V21.4012V22.4904V22.8736H19.0032H17.9849H11.2842H6.84424H4.78719L4.76683 22.5106C4.76683 22.3492 4.74646 22.1677 4.74646 21.966C4.74646 21.7844 4.74646 21.6029 4.74646 21.4214V21.018H17.6183L17.5979 21.0381Z" fill="#CE0505"/>
<path fill-rule="evenodd" clip-rule="evenodd" d="M24.9095 0.585937C35.1336 0.585937 43.6061 8.35148 45.0318 18.4568C41.6509 18.4568 38.2701 18.4568 34.8892 18.4568C34.8484 14.7656 34.7873 11.0745 34.7466 7.38331C31.549 11.5384 28.3514 15.6733 25.1742 19.8283C21.6915 15.6531 18.2292 11.4779 14.7464 7.30262C14.7464 11.1148 14.7464 14.9471 14.7464 18.7593C11.4267 18.7593 8.08651 18.7593 4.76672 18.7593V18.7391C5.96836 8.49267 14.6039 0.585937 24.9298 0.585937H24.9095Z" fill="#CE0505"/>
<path d="M129.778 11.0542V18.618H129.187C128.373 14.6445 126.275 12.6678 122.914 12.6678C121.957 12.6678 121.183 12.8695 120.552 13.2931C119.941 13.7167 119.635 14.4226 119.635 15.411C119.635 16.8027 120.613 18.134 122.568 19.3643C124.381 20.4737 126.214 21.5629 128.047 22.6521C130.022 24.1245 131 25.7785 131 27.6543C131 29.9739 130.328 31.8094 128.984 33.1406C127.64 34.4718 125.868 35.1375 123.688 35.1375C122.365 35.1375 121.163 34.9358 120.083 34.5323C119.88 34.4718 119.595 34.3306 119.167 34.1491C118.76 33.9676 118.434 33.8667 118.23 33.8667C117.477 33.8667 116.927 34.2903 116.58 35.1576H115.99V26.4441H116.58C117.049 28.7031 117.904 30.4378 119.106 31.6883C120.328 32.9187 121.713 33.544 123.261 33.544C124.36 33.544 125.318 33.2415 126.132 32.6565C126.947 32.0514 127.354 31.3454 127.354 30.5386C127.354 29.0864 126.377 27.7753 124.422 26.5853C122.589 25.5163 120.756 24.4472 118.943 23.3782C116.967 21.8453 115.99 19.9493 115.99 17.67C115.99 15.7539 116.601 14.1806 117.823 12.9502C119.045 11.7198 120.552 11.1147 122.324 11.1147C123.831 11.1147 125.033 11.2962 125.888 11.6795C126.153 11.8005 126.54 12.0224 127.09 12.3653C127.477 12.6073 127.823 12.7283 128.088 12.7283C128.434 12.7283 128.699 12.5468 128.882 12.1837C129.065 11.8207 129.167 11.4576 129.167 11.0945H129.758L129.778 11.0542Z" fill="#CE0505"/>
<path d="M86.4987 30.4375V15.693C86.4987 14.2811 86.3765 13.3735 86.1117 13.0306C85.7247 12.486 84.8082 12.2238 83.3826 12.2238V11.6187H92.3439L98.1892 26.4639L103.872 11.6187H112.548V12.2238C111.122 12.2238 110.226 12.486 109.859 13.0104C109.574 13.3936 109.432 14.3013 109.432 15.7132V30.4577C109.432 31.9301 109.554 32.8377 109.819 33.221C110.185 33.7454 111.102 34.0076 112.548 34.0076V34.6127H101.244V34.0076C102.67 34.0076 103.566 33.7454 103.933 33.221C104.218 32.8176 104.36 31.8897 104.36 30.4577V14.7652L96.6413 34.6127H96.0507L88.0669 14.7652V30.4577C88.0669 31.9301 88.1891 32.8377 88.4539 33.221C88.8205 33.7454 89.737 34.0076 91.183 34.0076V34.6127H83.3826V34.0076C84.8082 34.0076 85.7044 33.7454 86.071 33.221C86.3561 32.8176 86.4987 31.8897 86.4987 30.4577V30.4375Z" fill="#CE0505"/>
<path d="M53.8712 30.4375V15.693C53.8712 14.2811 53.749 13.3735 53.4843 13.0306C53.0973 12.486 52.1808 12.2238 50.7551 12.2238V11.6187H59.7165L65.5618 26.4639L71.2441 11.6187H79.9203V12.2238C78.4947 12.2238 77.5985 12.486 77.2319 13.0104C76.9468 13.3936 76.8042 14.3013 76.8042 15.7132V30.4577C76.8042 31.9301 76.9264 32.8377 77.1912 33.221C77.5578 33.7454 78.4743 34.0076 79.9203 34.0076V34.6127H68.6168V34.0076C70.0425 34.0076 70.9386 33.7454 71.3052 33.221C71.5903 32.8176 71.7329 31.8897 71.7329 30.4577V14.7652L64.0139 34.6127H63.4233L55.4395 14.7652V30.4577C55.4395 31.9301 55.5617 32.8377 55.8265 33.221C56.1931 33.7454 57.1096 34.0076 58.5556 34.0076V34.6127H50.7551V34.0076C52.1808 34.0076 53.0769 33.7454 53.4435 33.221C53.7287 32.8176 53.8712 31.8897 53.8712 30.4577V30.4375Z" fill="#CE0505"/>
</svg>
