<svg width="438" height="130" viewBox="0 0 438 130" fill="none" xmlns="http://www.w3.org/2000/svg">
<path d="M114.48 127.845L114.3 52.4309L77.2786 114.558H64.1592L27.3171 54.047V127.845H0V2.15469H24.0822L71.1682 80.2624L117.535 2.15469H141.438L141.797 127.845H114.48Z" fill="#070707"/>
<path d="M286.125 127.845L285.945 52.4309L248.923 114.558H235.804L198.961 54.047V127.845H171.644V2.15469H195.727L242.813 80.2624L289.18 2.15469H313.082L313.442 127.845H286.125Z" fill="#070707"/>
<path d="M384.624 130C374.679 130 365.035 128.683 355.689 126.05C346.464 123.297 339.035 119.765 333.404 115.456L343.289 93.5497C348.68 97.5 355.09 100.672 362.519 103.066C369.947 105.46 377.375 106.657 384.804 106.657C393.071 106.657 399.181 105.46 403.135 103.066C407.089 100.552 409.065 97.2606 409.065 93.1906C409.065 90.198 407.867 87.744 405.471 85.8287C403.195 83.7937 400.199 82.1777 396.485 80.9807C392.891 79.7836 387.979 78.4668 381.748 77.0304C372.163 74.756 364.316 72.4816 358.205 70.2072C352.095 67.9328 346.823 64.2818 342.39 59.2541C338.077 54.2265 335.92 47.523 335.92 39.1436C335.92 31.8416 337.897 25.2578 341.851 19.3923C345.805 13.407 351.736 8.67863 359.643 5.20718C367.671 1.73573 377.435 0 388.937 0C396.964 0 404.812 0.957641 412.48 2.87292C420.148 4.78821 426.857 7.54144 432.608 11.1326L423.623 33.2182C412.001 26.6344 400.379 23.3425 388.757 23.3425C380.61 23.3425 374.56 24.6593 370.606 27.2928C366.772 29.9263 364.855 33.3978 364.855 37.7072C364.855 42.0166 367.071 45.2486 371.504 47.4033C376.057 49.4383 382.947 51.4733 392.172 53.5083C401.757 55.7827 409.605 58.0571 415.715 60.3315C421.825 62.6059 427.037 66.1971 431.35 71.105C435.783 76.0129 438 82.6565 438 91.0359C438 98.2182 435.963 104.802 431.89 110.787C427.936 116.653 421.945 121.321 413.918 124.793C405.89 128.264 396.126 130 384.624 130Z" fill="#070707"/>
</svg>
