<svg width="0" height="0" class="hidden">

	<!-- Logo -->
	<symbol viewBox="0 0 131 43" xmlns="http://www.w3.org/2000/svg" id="logo">
		<path fill-rule="evenodd" clip-rule="evenodd" d="M20.346.02c.591 0 1.161.02 1.732.08-5.54.666-10.652 3.591-14.155 8.27a21.942 21.942 0 0 0-4.074 9.743l-.06.464-.042.343-.06.443-.041.444s-.061 1.513-.061 1.634a21.91 21.91 0 0 0 4.317 13.09c3.483 4.64 8.534 7.564 14.033 8.25-.53.04-1.08.06-1.609.06C9.104 42.842 0 33.262 0 21.422 0 9.6 9.104 0 20.326 0l.02.02z"></path>
		<path fill-rule="evenodd" clip-rule="evenodd" d="M43.993 28.622C41.142 36.61 33.667 42.318 24.91 42.318c-8.757 0-16.232-5.709-19.083-13.696h38.188-.02z"></path>
		<path d="M17.598 21.038v-5.366l.652.808c2.301 2.884 4.623 5.768 6.924 8.653l3.055-4.216 3.34-4.599.673-.907v5.627h12.81v.383c-.02 0 0 .505 0 .545 0 .181-.02.363-.02.545l-.02.363H30.49v-1.997c-.611.827-1.385 1.896-2.18 2.965a777.006 777.006 0 0 0-2.83 3.873l-.285.383-.306-.383-5.52-6.98v2.14H4.788l-.02-.363c0-.162-.02-.343-.02-.545v-.949h12.871l-.02.02z"></path>
		<path fill-rule="evenodd" clip-rule="evenodd" d="M24.91.586c10.224 0 18.696 7.765 20.122 17.87H34.889c-.04-3.69-.102-7.381-.142-11.073-3.198 4.155-6.396 8.29-9.573 12.445-3.482-4.175-6.945-8.35-10.428-12.525v11.456h-9.98v-.02C5.969 8.493 14.605.586 24.93.586h-.02z"></path>
		<path d="M129.778 11.054v7.564h-.591c-.814-3.973-2.912-5.95-6.273-5.95-.957 0-1.731.202-2.362.625-.611.424-.917 1.13-.917 2.118 0 1.392.978 2.723 2.933 3.953 1.813 1.11 3.646 2.199 5.479 3.288 1.975 1.473 2.953 3.127 2.953 5.002 0 2.32-.672 4.155-2.016 5.487-1.344 1.33-3.116 1.997-5.296 1.997-1.323 0-2.525-.202-3.605-.606-.203-.06-.488-.201-.916-.383-.407-.181-.733-.282-.937-.282-.753 0-1.303.423-1.65 1.29h-.59v-8.713h.59c.469 2.26 1.324 3.994 2.526 5.244 1.222 1.23 2.607 1.856 4.155 1.856 1.099 0 2.057-.302 2.871-.887.815-.606 1.222-1.312 1.222-2.118 0-1.453-.977-2.764-2.932-3.954a1329.757 1329.757 0 0 1-5.479-3.207c-1.976-1.533-2.953-3.429-2.953-5.708 0-1.916.611-3.49 1.833-4.72 1.222-1.23 2.729-1.835 4.501-1.835 1.507 0 2.709.181 3.564.565.265.12.652.342 1.202.685.387.242.733.363.998.363.346 0 .611-.181.794-.544.183-.363.285-.726.285-1.09h.591l.02-.04zM86.499 30.438V15.693c0-1.412-.123-2.32-.387-2.662-.387-.545-1.304-.807-2.73-.807v-.605h8.962l5.845 14.845 5.683-14.845h8.676v.605c-1.426 0-2.322.262-2.689.786-.285.384-.427 1.291-.427 2.703v14.745c0 1.472.122 2.38.387 2.763.366.524 1.283.787 2.729.787v.605h-11.304v-.605c1.426 0 2.322-.263 2.689-.787.285-.403.427-1.331.427-2.763V14.765l-7.719 19.848h-.59l-7.984-19.848v15.693c0 1.472.122 2.38.387 2.763.367.524 1.283.787 2.729.787v.605h-7.8v-.605c1.425 0 2.321-.263 2.688-.787.285-.403.428-1.331.428-2.763v-.02zm-32.628 0V15.693c0-1.412-.122-2.32-.387-2.662-.387-.545-1.303-.807-2.729-.807v-.605h8.962l5.845 14.845 5.682-14.845h8.676v.605c-1.425 0-2.322.262-2.688.786-.285.384-.428 1.291-.428 2.703v14.745c0 1.472.122 2.38.387 2.763.367.524 1.283.787 2.73.787v.605H68.616v-.605c1.425 0 2.322-.263 2.688-.787.285-.403.428-1.331.428-2.763V14.765l-7.72 19.848h-.59L55.44 14.765v15.693c0 1.472.122 2.38.387 2.763.366.524 1.283.787 2.729.787v.605h-7.8v-.605c1.425 0 2.32-.263 2.688-.787.285-.403.427-1.331.427-2.763v-.02z"></path>
	</symbol>

	<!-- Instagram icon -->
	<symbol viewBox="0 0 12 12" xmlns="http://www.w3.org/2000/svg" id="inst-icon">
		<path fill-rule="evenodd" clip-rule="evenodd" d="M8.115 0H3.689C1.652 0 0 1.68 0 3.75v4.5C0 10.32 1.652 12 3.689 12h4.426c2.037 0 3.688-1.68 3.688-3.75v-4.5c0-2.07-1.651-3.75-3.688-3.75zm2.582 8.25c0 1.447-1.158 2.625-2.582 2.625H3.689c-1.424 0-2.582-1.178-2.582-2.625v-4.5c0-1.447 1.158-2.625 2.582-2.625h4.426c1.424 0 2.582 1.178 2.582 2.625v4.5zM5.902 3C4.272 3 2.95 4.343 2.95 6S4.272 9 5.9 9c1.63 0 2.951-1.343 2.951-3s-1.32-3-2.95-3zm0 4.875c-1.017 0-1.845-.841-1.845-1.875s.828-1.875 1.845-1.875c1.016 0 1.844.84 1.844 1.875 0 1.034-.828 1.875-1.844 1.875zm3.565-5.1c0 .22-.176.4-.393.4a.397.397 0 0 1-.393-.4c0-.22.176-.4.393-.4.217 0 .393.18.393.4z">
		</path>
	</symbol>

	<!-- Youtube icon -->
	<symbol viewBox="0 0 15 10" xmlns="http://www.w3.org/2000/svg" id="yt-icon">
		<path d="M14.69 1.565C14.519.953 14.012.47 13.37.305 12.195 0 7.499 0 7.499 0S2.806 0 1.632.294C1 .46.48.953.309 1.564 0 2.683 0 5 0 5s0 2.33.309 3.435c.173.612.68 1.094 1.322 1.26C2.817 10 7.5 10 7.5 10s4.695 0 5.869-.294a1.837 1.837 0 0 0 1.322-1.259C15 7.329 15 5.012 15 5.012s.012-2.33-.31-3.447zM6.006 7.14V2.86L9.909 5 6.005 7.141z">
		</path>
	</symbol>

	<!-- Facebook icon -->
	<symbol viewBox="0 0 6 12" xmlns="http://www.w3.org/2000/svg" id="fb-icon">
		<path d="M5.774.002L4.334 0c-1.616 0-2.66 1.16-2.66 2.953v1.362H.225c-.125 0-.226.11-.226.245v1.973c0 .135.101.244.226.244h1.447v4.978c0 .135.102.245.227.245h1.887c.125 0 .227-.11.227-.245V6.777h1.692c.125 0 .226-.11.226-.244V4.56a.255.255 0 0 0-.066-.173.218.218 0 0 0-.16-.072H4.014V3.16c0-.555.122-.837.79-.837h.97c.125 0 .226-.11.226-.245V.247c0-.135-.101-.244-.226-.245z">
		</path>
	</symbol>
</svg>