<svg width="0" height="0" class="hidden">

	<!-- Instagram icon -->
	<symbol viewBox="0 0 12 12" xmlns="http://www.w3.org/2000/svg" id="inst-icon">
		<path fill-rule="evenodd" clip-rule="evenodd" d="M8.115 0H3.689C1.652 0 0 1.68 0 3.75v4.5C0 10.32 1.652 12 3.689 12h4.426c2.037 0 3.688-1.68 3.688-3.75v-4.5c0-2.07-1.651-3.75-3.688-3.75zm2.582 8.25c0 1.447-1.158 2.625-2.582 2.625H3.689c-1.424 0-2.582-1.178-2.582-2.625v-4.5c0-1.447 1.158-2.625 2.582-2.625h4.426c1.424 0 2.582 1.178 2.582 2.625v4.5zM5.902 3C4.272 3 2.95 4.343 2.95 6S4.272 9 5.9 9c1.63 0 2.951-1.343 2.951-3s-1.32-3-2.95-3zm0 4.875c-1.017 0-1.845-.841-1.845-1.875s.828-1.875 1.845-1.875c1.016 0 1.844.84 1.844 1.875 0 1.034-.828 1.875-1.844 1.875zm3.565-5.1c0 .22-.176.4-.393.4a.397.397 0 0 1-.393-.4c0-.22.176-.4.393-.4.217 0 .393.18.393.4z">
		</path>
	</symbol>

	<!-- Youtube icon -->
	<symbol viewBox="0 0 15 10" xmlns="http://www.w3.org/2000/svg" id="yt-icon">
		<path d="M14.69 1.565C14.519.953 14.012.47 13.37.305 12.195 0 7.499 0 7.499 0S2.806 0 1.632.294C1 .46.48.953.309 1.564 0 2.683 0 5 0 5s0 2.33.309 3.435c.173.612.68 1.094 1.322 1.26C2.817 10 7.5 10 7.5 10s4.695 0 5.869-.294a1.837 1.837 0 0 0 1.322-1.259C15 7.329 15 5.012 15 5.012s.012-2.33-.31-3.447zM6.006 7.14V2.86L9.909 5 6.005 7.141z">
		</path>
	</symbol>

	<!-- Facebook icon -->
	<symbol viewBox="0 0 6 12" xmlns="http://www.w3.org/2000/svg" id="fb-icon">
		<path d="M5.774.002L4.334 0c-1.616 0-2.66 1.16-2.66 2.953v1.362H.225c-.125 0-.226.11-.226.245v1.973c0 .135.101.244.226.244h1.447v4.978c0 .135.102.245.227.245h1.887c.125 0 .227-.11.227-.245V6.777h1.692c.125 0 .226-.11.226-.244V4.56a.255.255 0 0 0-.066-.173.218.218 0 0 0-.16-.072H4.014V3.16c0-.555.122-.837.79-.837h.97c.125 0 .226-.11.226-.245V.247c0-.135-.101-.244-.226-.245z">
		</path>
	</symbol>
</svg>