<svg xmlns="http://www.w3.org/2000/svg" xmlns:xlink="http://www.w3.org/1999/xlink" width="75" height="71" viewBox="0 0 75 71"><defs><path id="z2ppa" d="M1522.82 7176.4v-4.15c0-1.02.15-2.08.15-2.08h-.05s-.39 1.14-.9 1.92l-2.8 4.26v.05zm-8.23 1.01l7.16-11.31h5.55v10.3h2.21v3.76h-2.2v4.49h-4.5v-4.5h-8.22v-2.74zm-14.94 5.24c0-6.85 8.01-8.07 8.01-10.74 0-1.3-1.04-1.84-2-1.84-1.76 0-2.74 1.97-2.74 1.97l-3.38-2.26s1.71-4 6.54-4c3.04 0 6.33 1.75 6.33 5.69 0 5.78-7.47 6.9-7.6 9.29h7.89v3.89h-12.85c-.13-.73-.2-1.38-.2-2zm21.86 30.1c-3.9 3.9-18.47.2-32.87-14.2-14.39-14.39-18.1-28.95-14.18-32.86 3.38-3.38 7.51-9.3 13.7-1.6 6.2 7.7 3.15 9.86-.34 13.36-2.44 2.44 2.65 8.61 7.99 13.95 5.33 5.33 11.5 10.43 13.94 7.99 3.5-3.5 5.65-6.54 13.36-.35 7.7 6.2 1.79 10.32-1.6 13.7zm-6.93-68.75c18.43 0 33.42 15 33.42 33.42a33.45 33.45 0 0 1-17.65 29.46 8.35 8.35 0 0 0-.54-5.4 28.53 28.53 0 0 0 13.07-20.63l-5.8-3.43 5.8-3.43a28.56 28.56 0 0 0-24.87-24.87l-3.43 5.8-3.43-5.8a28.52 28.52 0 0 0-20.26 12.5 16.35 16.35 0 0 0-3.66-3.37 33.4 33.4 0 0 1 27.35-14.25z"/></defs><g><g transform="translate(-1473 -7144)"><g><use fill="#f6e5d1" xlink:href="#z2ppa"/></g></g></g></svg>