<svg xmlns="http://www.w3.org/2000/svg" xmlns:xlink="http://www.w3.org/1999/xlink" width="74" height="67" viewBox="0 0 74 67"><defs><path id="wbpxa" d="M927.04 7170.18v26.5c0 .37.15.73.42 1 .27.26.62.41 1 .41H987c.38 0 .73-.15 1-.42.27-.26.42-.62.42-1v-26.49l-27.35 10.39v1.74c0 .71-.58 1.3-1.3 1.3h-4.09a1.3 1.3 0 0 1-1.3-1.3v-1.74zm1.42-11.97c-.38 0-.73.15-1 .42s-.42.62-.42 1v6.96l30.69 11.55 30.7-11.55v-6.96c0-.38-.16-.73-.43-1a1.4 1.4 0 0 0-1-.42h-58.54z"/><path id="wbpxb" d="M951.63 7139.25h12.2a7.45 7.45 0 0 1 7.46 7.47v2.54c0 .71-.58 1.29-1.3 1.29h-.85a1.3 1.3 0 0 1-1.3-1.3v-2.53a4 4 0 0 0-4.01-4.02h-12.2a4 4 0 0 0-4.02 4.02v2.54c0 .71-.58 1.29-1.3 1.29h-.84a1.3 1.3 0 0 1-1.3-1.3v-2.53a7.44 7.44 0 0 1 7.46-7.47zm-23.17 12.92h4.37c0-2.32 3.44-1.92 3.44-.27v.27h42.92c0-2.32 3.44-1.92 3.44-.27v.27c3.83 0 6.93-.52 9.64 2.2a7.44 7.44 0 0 1 2.19 5.26v37.04c0 4.1-3.35 7.46-7.46 7.46h-4.37c0 2.32-3.44 1.93-3.44.28v-.28h-42.92c0 2.32-3.44 1.93-3.44.28v-.28c-3.83 0-6.93.52-9.64-2.19a7.44 7.44 0 0 1-2.19-5.27v-37.04c0-4.1 3.35-7.46 7.46-7.46zm0 3.44a4.03 4.03 0 0 0-4.02 4.02v37.04c0 2.2 1.81 4.02 4.02 4.02H987c2.2 0 4.02-1.81 4.02-4.02v-37.04c0-2.2-1.81-4.02-4.02-4.02h-58.54z"/></defs><g><g transform="translate(-921 -7139)"><g><use fill="#f6e5d1" xlink:href="#wbpxa"/></g><g><use fill="#f6e5d1" xlink:href="#wbpxb"/></g></g></g></svg>