<svg xmlns="http://www.w3.org/2000/svg" xmlns:xlink="http://www.w3.org/1999/xlink" width="82" height="94" viewBox="0 0 82 94"><defs><path id="hcx5a" d="M973 5646.05h-8.05c-1.2 0-2.2.98-2.2 2.2v60.36h-9.5v-30.37c0-1.2-1-2.2-2.2-2.2H943c-1.2 0-2.2 1-2.2 2.2v30.37h-9.5v-39.52c0-1.2-1-2.19-2.2-2.19h-8.05c-1.21 0-2.2.99-2.2 2.2v43.9h78.3v-49.76c0-1.2-.99-2.2-2.2-2.2h-8.05c-1.2 0-2.2 1-2.2 2.2v45.37h-9.5v-60.37c0-1.2-1-2.2-2.2-2.2"/><path id="hcx5b" d="M986.08 5636.06a7.65 7.65 0 0 1 10.28.53 7.66 7.66 0 0 1 0 10.86 7.66 7.66 0 0 1-10.86 0 7.66 7.66 0 0 1-1.89-7.77l-9.79-6.7a7.65 7.65 0 0 1-7.43 1.28l-13.25 18.11a7.65 7.65 0 0 1-.68 10.08 7.66 7.66 0 0 1-10.87 0 7.66 7.66 0 0 1-2.2-6.24l-8.36-3.48c-.17.2-.34.4-.53.58a7.66 7.66 0 0 1-10.86 0 7.66 7.66 0 0 1 0-10.87 7.66 7.66 0 0 1 10.86 0 7.66 7.66 0 0 1 2.21 6.25l8.36 3.48a7.65 7.65 0 0 1 8.54-2.38l13.25-18.12a7.66 7.66 0 0 1 .68-10.08 7.65 7.65 0 0 1 10.87 0 7.66 7.66 0 0 1 1.88 7.78l9.8 6.69zm-64.3 11.82a3.29 3.29 0 1 0 6.57 0 3.29 3.29 0 0 0-6.57 0zm21.95 9.14a3.29 3.29 0 1 0 6.57.01 3.29 3.29 0 0 0-6.57 0zm21.95-30a3.29 3.29 0 1 0 6.58.01 3.29 3.29 0 0 0-6.58 0zm21.96 15a3.29 3.29 0 1 0 6.57.01 3.29 3.29 0 0 0-6.57 0z"/></defs><g><g transform="translate(-917 -5619)"><g><use fill="#2c2d2b" xlink:href="#hcx5a"/></g><g><use fill="#5c5d59" xlink:href="#hcx5b"/></g></g></g></svg>