<svg xmlns="http://www.w3.org/2000/svg" xmlns:xlink="http://www.w3.org/1999/xlink" width="61" height="72" viewBox="0 0 61 72"><defs><path id="j8wka" d="M432.73 7166.42h-9.92l-2.23 4.22 2.23 4.25h9.93zM376 7154.95a9.03 9.03 0 0 1 9.05-9.04l14.74-.01-1.69 3.61h-11.84v42.27l43.46.01v-13.3h-8a1.8 1.8 0 0 1-1.6-.97l-3.17-6.02a1.8 1.8 0 0 1 0-1.7l3.11-5.92a1.8 1.8 0 0 1 1.66-1.08h8.01v-13.29h-7.65l.18-.4c.5-1.08.71-2.16.68-3.2h8.6c1 0 1.8.81 1.8 1.8v15.09h1.2c1 0 1.82.8 1.82 1.8v12.08c0 1-.81 1.81-1.81 1.81h-1.21v15.1a1.8 1.8 0 0 1-.96 1.6 7.58 7.58 0 0 0-2.52 5.64 7.7 7.7 0 0 0 2.8 5.9 1.8 1.8 0 0 1-1.24 3.15l-46.36.02a9.03 9.03 0 0 1-9.06-9.06zm50.54 13.28a2.41 2.41 0 1 1 0 4.83 2.41 2.41 0 0 1 0-4.83zm1.13 27.17zm-42.61 0a5.41 5.41 0 0 0-5.44 5.44 5.42 5.42 0 0 0 5.44 5.44h42.64a11.16 11.16 0 0 1-1.3-7.25h-41.35c-.49 0-.93.18-1.28.52a1.2 1.2 0 0 1-1.7-1.7c.79-.8 1.85-1.23 2.98-1.23h42.04c.17-.4.36-.83.58-1.22zm-5.44-35.47a8.4 8.4 0 0 1 4.23-1.9v-8.38a5.43 5.43 0 0 0-4.23 5.3zm4.23.55a6.04 6.04 0 0 0-4.23 3.29v19.13a8.42 8.42 0 0 1 4.23-1.89zm0 22.98a6.01 6.01 0 0 0-4.23 3.28v6.85a9 9 0 0 1 4.23-1.74z"/><path id="j8wkb" d="M419.53 7147.84l-13.83 29.66c-.15.31-.37.56-.64.74l-10.21 7.78a1.8 1.8 0 0 1-2.9-1.4l-.64-12.9c-.02-.3.05-.6.17-.85l13.82-29.66c1.1-2.38 3.76-2.9 6.56-2.28a13.53 13.53 0 0 1 5.2 2.43c2.26 1.75 3.57 4.11 2.47 6.48zm-24.19 32.32l.77.36 6.49-4.95.08-.16-3.15-2.75-2.62-.4 13.01-27.9 5.95 2.76.38-.81c.24-.53-.42-1.33-1.4-2.1a9.77 9.77 0 0 0-3.76-1.75c-1.22-.26-2.26-.24-2.5.28L394.94 7172z"/></defs><g><g transform="translate(-376 -7138)"><g><use fill="#f6e5d1" xlink:href="#j8wka"/></g><g><use fill="#f6e5d1" xlink:href="#j8wkb"/></g></g></g></svg>