<svg xmlns="http://www.w3.org/2000/svg" xmlns:xlink="http://www.w3.org/1999/xlink" width="100" height="100" viewBox="0 0 100 100"><defs><path id="8moja" d="M426 5625h-5v-1a2 2 0 0 0-2-2h-8a2 2 0 0 0-2 2v1h-5a4 4 0 0 0-4 4v6h30v-6a4 4 0 0 0-4-4z"/><path id="8mojb" d="M455.51 5703.1a4 4 0 0 1-5.66 0l-7.56-7.56a4 4 0 1 1 5.66-5.65l4.73 4.73 11.23-11.23a4 4 0 1 1 5.65 5.66zM455 5672a20 20 0 1 0 0 40 20 20 0 0 0 0-40z"/><path id="8mojc" d="M387 5661h10v-10h-10zm12 2h-14v-14h14z"/><path id="8mojd" d="M406 5658v-4h20v4z"/><path id="8moje" d="M387 5701h10v-10h-10zm12 2h-14v-14h14z"/><path id="8mojf" d="M406 5698v-4h20v4z"/><path id="8mojg" d="M387 5681h10v-10h-10zm12 2h-14v-14h14z"/><path id="8mojh" d="M406 5678v-4h20v4z"/><path id="8moji" d="M451 5637v31.34a24 24 0 0 1 4-.34v-31a8 8 0 0 0-8-8h-13v4h13a4 4 0 0 1 4 4z"/><path id="8mojj" d="M450.66 5715.6a4 4 0 0 1-3.66 2.4h-64a4 4 0 0 1-4-4v-77a4 4 0 0 1 4-4h13v-4h-13a8 8 0 0 0-8 8v77a8 8 0 0 0 8 8h64a8 8 0 0 0 7.74-6 23.84 23.84 0 0 1-4.08-.4z"/><path id="8mojk" d="M453 5700.42l-2-1.89v.06l2 1.9z"/></defs><g><g transform="translate(-375 -5622)"><g><use xlink:href="#8moja"/></g><g><use xlink:href="#8mojb"/></g><g><g><use xlink:href="#8mojc"/></g></g><g><g><use xlink:href="#8mojd"/></g></g><g><g><use xlink:href="#8moje"/></g></g><g><g><use xlink:href="#8mojf"/></g></g><g><g><use xlink:href="#8mojg"/></g></g><g><g><use xlink:href="#8mojh"/></g></g><g><g><use xlink:href="#8moji"/></g><g><use xlink:href="#8mojj"/></g><g><use xlink:href="#8mojk"/></g></g></g></g></svg>