<svg xmlns="http://www.w3.org/2000/svg" xmlns:xlink="http://www.w3.org/1999/xlink" width="22" height="17" viewBox="0 0 22 17"><defs><path id="z6g4a" d="M340.02 41.27H327.4a1.58 1.58 0 0 0 0 3.16h12.63a1.58 1.58 0 0 0 0-3.16z"/><path id="z6g4b" d="M340.02 34.98H327.4a1.58 1.58 0 0 0 0 3.16h12.63a1.58 1.58 0 0 0 0-3.16z"/><path id="z6g4c" d="M327.39 31.85h12.63a1.58 1.58 0 0 0 0-3.16H327.4a1.58 1.58 0 0 0 0 3.16z"/><path id="z6g4d" d="M320.68 30.29a1.6 1.6 0 1 1 3.2 0 1.6 1.6 0 0 1-3.2 0z"/><path id="z6g4e" d="M320.68 36.56a1.6 1.6 0 1 1 3.2 0 1.6 1.6 0 0 1-3.2 0z"/><path id="z6g4f" d="M320.68 42.85a1.6 1.6 0 1 1 3.2 0 1.6 1.6 0 0 1-3.2 0z"/></defs><g><g transform="translate(-320 -28)"><g><use fill="#fff" xlink:href="#z6g4a"/></g><g><use fill="#fff" xlink:href="#z6g4b"/></g><g><use fill="#fff" xlink:href="#z6g4c"/></g><g><use fill="#fff" xlink:href="#z6g4d"/></g><g><use fill="#fff" xlink:href="#z6g4e"/></g><g><use fill="#fff" xlink:href="#z6g4f"/></g></g></g></svg>