<svg xmlns="http://www.w3.org/2000/svg" xmlns:xlink="http://www.w3.org/1999/xlink" width="104" height="95" viewBox="0 0 104 95"><defs><path id="h393a" d="M1546.1 5683.5v-31.67l-4.93 3.45v28.22h-3.28v-25.93l-4.93 3.46v22.47h-3.28v-22.85l-4.92-7.57v30.42h-3.29v-35.47l-4.92-7.58v43.05h-3.28v-43.26l-4.93 7.24v36.02h-3.28v-31.19l-4.92 7.24v23.95h-3.29v-19.12l-4.92 7.24v11.88h-3.28v-11.56l-4.93-3.73v15.3h-3.28v-17.79l-4.92-3.73v21.51h-3.29v-19.95l-4.92 6.5v13.45h-3.28v-14.54l8.45-11.13c.6-.88 1.65-1.03 2.45-.4 2.5 2 5.71 4.22 8.21 6.23l6.77 5.12 23.56-34.65a1.63 1.63 0 0 1 2.88.02l15.42 23.72 17.6-12.33v37.96h-3.28"/><path id="h393b" d="M1500.19 5695.86h13.02v12.72h14a2.46 2.46 0 1 1 0 4.93h-41.02a2.46 2.46 0 0 1 0-4.93h14zm-42.73-76.38h98.48c1.36 0 2.46 1.1 2.46 2.46v68.18c0 1.36-1.1 2.46-2.46 2.46h-98.48a2.46 2.46 0 0 1-2.46-2.46v-68.18c0-1.36 1.1-2.46 2.46-2.46zm96.02 68.18v-63.26h-93.56v63.26h93.56z"/></defs><g><g transform="translate(-1455 -5619)"><g><use fill="#5c5d59" xlink:href="#h393a"/></g><g><use fill="#2c2d2b" xlink:href="#h393b"/></g></g></g></svg>