<svg xmlns="http://www.w3.org/2000/svg" xmlns:xlink="http://www.w3.org/1999/xlink" viewBox="0 0 111.48 74.94"><defs><style>.cls-1{isolation:isolate;}.cls-2{fill:url(#Безымянный_градиент_42);}.cls-3{fill:#ea4b46;opacity:0.4;}.cls-3,.cls-8{mix-blend-mode:multiply;}.cls-4{fill:url(#Безымянный_градиент_42-2);}.cls-5{fill:#4d3c32;}.cls-6{fill:#362a23;}.cls-7{fill:#544237;}.cls-8{fill:#eb5a46;}.cls-9{fill:url(#Безымянный_градиент_81);}.cls-10{font-size:20px;font-family:YandexSansText-Bold, Yandex Sans Text;font-weight:700;}.cls-10,.cls-11{fill:#fff;}.cls-12{fill:url(#Безымянный_градиент_32);}</style><radialGradient id="Безымянный_градиент_42" cx="45.43" cy="30.14" r="32.48" gradientUnits="userSpaceOnUse"><stop offset="0" stop-color="#f27646"/><stop offset="0.36" stop-color="#f06047"/><stop offset="0.71" stop-color="#ee5147"/><stop offset="1" stop-color="#ee4c47"/></radialGradient><radialGradient id="Безымянный_градиент_42-2" cx="45.43" cy="54.44" r="31.49" gradientTransform="translate(0 -3.15) scale(1 1.09)" xlink:href="#Безымянный_градиент_42"/><linearGradient id="Безымянный_градиент_81" x1="105.74" y1="27.31" x2="83.12" y2="4.69" gradientUnits="userSpaceOnUse"><stop offset="0" stop-color="#93ba12"/><stop offset="0.52" stop-color="#87af05"/><stop offset="1" stop-color="#83ab00"/></linearGradient><linearGradient id="Безымянный_градиент_32" x1="88.43" y1="49.25" x2="111.48" y2="49.25" gradientUnits="userSpaceOnUse"><stop offset="0" stop-color="#f7bf33"/><stop offset="0.31" stop-color="#f7ba33"/><stop offset="0.67" stop-color="#f7ac33"/><stop offset="1" stop-color="#f79833"/></linearGradient></defs><title>имг 2</title><g class="cls-1"><g id="Слой_2" data-name="Слой 2"><g id="Категории"><g id="имг_2" data-name="имг 2"><path class="cls-2" d="M87.8,36.94H3.06A2.6,2.6,0,0,1,.7,34.37L0,26.5a2.71,2.71,0,0,1,2.36-3.16H88.48a2.71,2.71,0,0,1,2.36,3.16l-.68,7.87A2.6,2.6,0,0,1,87.8,36.94Z"/><polygon class="cls-3" points="4.89 41.69 85.97 41.69 86.37 36.94 4.48 36.94 4.89 41.69"/><path class="cls-4" d="M4.48,36.94l2.6,33.28a4.93,4.93,0,0,0,4.73,4.72H79a4.91,4.91,0,0,0,4.73-4.72l2.6-33.28Zm21.89,26.4a2.38,2.38,0,1,1-4.75,0V49.17a2.38,2.38,0,1,1,4.75,0Zm11.57,0a2.38,2.38,0,1,1-4.75,0V49.17a2.38,2.38,0,1,1,4.75,0Zm11.57,0a2.38,2.38,0,1,1-4.75,0V49.17a2.38,2.38,0,1,1,4.75,0Zm11.57,0a2.38,2.38,0,1,1-4.75,0V49.17a2.38,2.38,0,1,1,4.75,0Zm11.57,0a2.38,2.38,0,1,1-4.75,0V49.17a2.38,2.38,0,1,1,4.75,0Z"/><polygon class="cls-3" points="4.89 41.69 85.97 41.69 86.37 36.94 4.48 36.94 4.89 41.69"/><circle class="cls-5" cx="68.56" cy="29.68" r="3.97"/><path class="cls-6" d="M70.59,33.09a4,4,0,0,1-4.06-6.83C68.41,25.14,72.48,32,70.59,33.09Z"/><rect class="cls-7" x="58.78" y="0.03" width="3.97" height="33.12" rx="1.9" ry="1.9" transform="translate(0.07 33.43) rotate(-30.78)"/><circle class="cls-5" cx="25.71" cy="29.68" r="3.97"/><path class="cls-6" d="M23.68,33.09a4,4,0,0,0,4.06-6.83C25.86,25.14,21.79,32,23.68,33.09Z"/><rect class="cls-7" x="31.52" y="0.03" width="3.97" height="33.12" rx="1.9" ry="1.9" transform="translate(53.8 47.99) rotate(-149.22)"/><path class="cls-8" d="M88.48,23.34H78.36A16,16,0,0,0,90.22,33.68l.62-7.18A2.71,2.71,0,0,0,88.48,23.34Z"/><circle class="cls-9" cx="94.43" cy="16" r="16"/><text class="cls-10" transform="translate(90.4 23.33)">?</text><path class="cls-11" d="M106.93,32.5c9,14,0,27-14,27"/><path class="cls-12" d="M111.08,41.27a23.08,23.08,0,0,0-4.15-8.77,22.33,22.33,0,0,1,2.66,9,14.29,14.29,0,0,1-2.08,8.5,13.71,13.71,0,0,1-6.4,5.35,16.62,16.62,0,0,1-5.68,1.22V52l-7,7,7,7V62.19a22,22,0,0,0,7.78-2.89,17.41,17.41,0,0,0,7-7.95A16.57,16.57,0,0,0,111.08,41.27Z"/></g></g></g></g></svg>