<svg xmlns="http://www.w3.org/2000/svg" xmlns:xlink="http://www.w3.org/1999/xlink" viewBox="0 0 105.89 70"><defs><style>.cls-1{isolation:isolate;}.cls-2{fill:url(#Безымянный_градиент_2);}.cls-3{opacity:0.2;mix-blend-mode:multiply;fill:url(#Безымянный_градиент_2-2);}.cls-4{fill:#5698ec;}.cls-5,.cls-6{fill:#fff;}.cls-5{opacity:0.3;}.cls-7{fill:#fcd833;}</style><linearGradient id="Безымянный_градиент_2" x1="112.29" y1="-87.1" x2="201.6" y2="-87.1" gradientTransform="matrix(1.06, -0.27, 0.25, 0.97, -89.37, 160.02)" gradientUnits="userSpaceOnUse"><stop offset="0" stop-color="#297bfb"/><stop offset="0.13" stop-color="#3e72fb"/><stop offset="0.37" stop-color="#5d64fc"/><stop offset="0.6" stop-color="#7459fd"/><stop offset="0.81" stop-color="#8253fd"/><stop offset="1" stop-color="#8751fd"/></linearGradient><linearGradient id="Безымянный_градиент_2-2" x1="4.22" y1="40.86" x2="99.88" y2="40.86" gradientTransform="matrix(1, 0, 0, 1, 0, 0)" xlink:href="#Безымянный_градиент_2"/></defs><title>имг 8</title><g class="cls-1"><g id="Слой_2" data-name="Слой 2"><g id="Категории"><g id="имг_8" data-name="имг 8"><path class="cls-2" d="M97.7,48.66,23.59,67.43a9.75,9.75,0,0,0-11.84-7.05L4.22,30.65a9.75,9.75,0,0,0,7.06-11.84L85.38.05A1.65,1.65,0,0,1,87.27,1c1.64,4.14,5.79,7.17,10.11,6.78A1.64,1.64,0,0,1,99.07,9l6.76,26a1.59,1.59,0,0,1-.91,1.89,9.75,9.75,0,0,0-6,10.08A1.59,1.59,0,0,1,97.7,48.66Z"/><path class="cls-3" d="M90.14,15.78H23.24L11.74,18.7a8.71,8.71,0,0,1-.32.85,9.73,9.73,0,0,1-7.2,11.1l7.53,29.73a9.74,9.74,0,0,1,11.32,5.56h6.42L99.16,48.29a9.75,9.75,0,0,1,.72-6.71v-16A9.74,9.74,0,0,1,90.14,15.78Z"/><path class="cls-4" d="M96.12,30.3c-4.31-.69-7.73-4.68-8.33-9.1a1.6,1.6,0,0,0-1.6-1.36H11.25a1.61,1.61,0,0,0-1.6,1.36c-.59,4.42-4,8.41-8.33,9.1A1.61,1.61,0,0,0,0,31.91v26a1.62,1.62,0,0,0,1.32,1.61c4.32.69,7.74,4.67,8.33,9.09A1.61,1.61,0,0,0,11.25,70H86.19a1.59,1.59,0,0,0,1.6-1.36c.6-4.42,4-8.4,8.33-9.09a1.62,1.62,0,0,0,1.33-1.61v-26A1.61,1.61,0,0,0,96.12,30.3ZM63.57,65.13a1.22,1.22,0,0,1-2.44,0V61.88a1.22,1.22,0,1,1,2.44,0Zm0-10a1.22,1.22,0,0,1-2.44,0V48.31a1.22,1.22,0,0,1,2.44,0Zm0-13.57a1.22,1.22,0,0,1-2.44,0V34.75a1.22,1.22,0,0,1,2.44,0Zm0-13.57a1.22,1.22,0,0,1-2.44,0V24.72a1.22,1.22,0,1,1,2.44,0Z"/><rect class="cls-5" x="14.1" y="49.47" width="23.08" height="2.49" rx="1.25" ry="1.25"/><rect class="cls-5" x="14.1" y="54.03" width="11.85" height="2.49" rx="1.25" ry="1.25"/><rect class="cls-6" x="14.1" y="40.9" width="36.88" height="3.85" rx="1.92" ry="1.92"/><rect class="cls-6" x="14.1" y="33.59" width="36.88" height="3.85" rx="1.92" ry="1.92"/><circle class="cls-7" cx="78.94" cy="44.34" r="9"/></g></g></g></g></svg>