<svg xmlns="http://www.w3.org/2000/svg" xmlns:xlink="http://www.w3.org/1999/xlink" viewBox="0 0 88 71"><defs><style>.cls-1{fill:url(#Безымянный_градиент_32);}.cls-2{fill:url(#Безымянный_градиент_40);}.cls-3{fill:url(#Безымянный_градиент_40-2);}.cls-4{fill:#2c0600;opacity:0.25;}.cls-5{fill:#fff;}.cls-6,.cls-8,.cls-9{fill:none;}.cls-6,.cls-8{stroke:#fff;stroke-miterlimit:10;}.cls-6{stroke-width:3px;}.cls-7{fill:#9fc913;}.cls-9{stroke:#e91c5d;stroke-linecap:round;stroke-linejoin:round;}</style><linearGradient id="Безымянный_градиент_32" x1="84.14" y1="77.29" x2="6.47" y2="-4.04" gradientUnits="userSpaceOnUse"><stop offset="0" stop-color="#f7bf33"/><stop offset="0.31" stop-color="#f7ba33"/><stop offset="0.67" stop-color="#f7ac33"/><stop offset="1" stop-color="#f79833"/></linearGradient><linearGradient id="Безымянный_градиент_40" x1="52.25" y1="13.75" x2="37.75" y2="-0.75" gradientUnits="userSpaceOnUse"><stop offset="0" stop-color="#fff"/><stop offset="0.45" stop-color="#fff" stop-opacity="0.79"/><stop offset="0.81" stop-color="#fff" stop-opacity="0.65"/><stop offset="1" stop-color="#fff" stop-opacity="0.6"/></linearGradient><linearGradient id="Безымянный_градиент_40-2" x1="-165.25" y1="44.25" x2="-176.75" y2="32.75" gradientTransform="translate(-126 106) rotate(180)" xlink:href="#Безымянный_градиент_40"/></defs><title>имг 4</title><g id="Слой_2" data-name="Слой 2"><g id="Категории"><g id="имг_4" data-name="имг 4"><rect class="cls-1" x="9.26" y="0.53" width="70" height="70" rx="4" ry="4"/><polygon class="cls-2" points="53 13 50.34 11 47.67 13 45.01 11 42.34 13 39.67 11 37 13 37 0 53 0 53 13"/><polygon class="cls-3" points="37 64 39.66 66 42.33 64 44.99 66 47.66 64 50.33 66 53 64 53 71 37 71 37 64"/><rect class="cls-4" x="16" y="49.5" width="9.33" height="7" rx="1" ry="1"/><rect class="cls-4" x="27.67" y="49.5" width="9.33" height="7" rx="1" ry="1"/><circle class="cls-5" cx="79" cy="36" r="9"/><circle class="cls-5" cx="45" cy="36" r="9"/><line class="cls-6" x1="45" y1="36" x2="79" y2="36"/><circle class="cls-5" cx="9" cy="36" r="9"/><line class="cls-6" x1="10" y1="36" x2="44" y2="36"/><circle class="cls-7" cx="9" cy="36" r="6"/><polyline class="cls-8" points="6.33 36 8.33 37.8 11.67 34"/><circle class="cls-7" cx="45" cy="36" r="6"/><polyline class="cls-8" points="42.33 36 44.33 37.8 47.67 34"/><path class="cls-9" d="M73.25,36a5.76,5.76,0,0,1,9.82-4.07"/><path class="cls-9" d="M84.75,36a5.75,5.75,0,0,1-9.57,4.3"/><polyline class="cls-9" points="83.2 30.47 83.35 32.23 81.59 32.39"/><polyline class="cls-9" points="75.33 41.66 75.18 39.9 76.94 39.74"/></g></g></g></svg>