<svg xmlns="http://www.w3.org/2000/svg" xmlns:xlink="http://www.w3.org/1999/xlink" viewBox="0 0 105.64 70"><defs><style>.cls-1{fill:#ea4b46;}.cls-2{fill:url(#Безымянный_градиент_2);}.cls-3{fill:#f5bc5a;}.cls-4{fill:#e6a02b;}.cls-5,.cls-6{fill:#fff;}.cls-5{opacity:0.1;}.cls-7{fill:#ffca19;}.cls-8{fill:#e84c3d;}</style><linearGradient id="Безымянный_градиент_2" y1="30.88" x2="98.44" y2="30.88" gradientUnits="userSpaceOnUse"><stop offset="0" stop-color="#297bfb"/><stop offset="0.13" stop-color="#3e72fb"/><stop offset="0.37" stop-color="#5d64fc"/><stop offset="0.6" stop-color="#7459fd"/><stop offset="0.81" stop-color="#8253fd"/><stop offset="1" stop-color="#8751fd"/></linearGradient></defs><title>имг 3</title><g id="Слой_2" data-name="Слой 2"><g id="Категории"><g id="имг_3" data-name="имг 3"><rect class="cls-1" x="7.21" y="8.24" width="98.44" height="61.76" rx="8" ry="8"/><rect class="cls-2" width="98.44" height="61.76" rx="8" ry="8"/><rect class="cls-3" x="11.58" y="10.62" width="14.89" height="11.58" rx="2" ry="2"/><rect class="cls-4" x="19.44" y="15.58" width="5.38" height="1.65" rx="0.83" ry="0.83"/><rect class="cls-4" x="19.44" y="12.27" width="5.38" height="2.48" rx="0.83" ry="0.83"/><rect class="cls-4" x="13.24" y="12.27" width="5.38" height="2.48" rx="0.83" ry="0.83"/><rect class="cls-4" x="19.44" y="18.06" width="5.38" height="2.48" rx="0.83" ry="0.83"/><rect class="cls-4" x="13.24" y="15.58" width="5.38" height="1.65" rx="0.83" ry="0.83"/><rect class="cls-4" x="13.24" y="18.06" width="5.38" height="2.48" rx="0.83" ry="0.83"/><rect class="cls-5" x="11.58" y="41.5" width="35.71" height="3.86" rx="1.88" ry="1.88"/><path class="cls-5" d="M13.46,47.29H28a1.87,1.87,0,0,1,1.87,1.87v.11A1.88,1.88,0,0,1,28,51.15H13.46a1.87,1.87,0,0,1-1.87-1.87v-.11a1.87,1.87,0,0,1,1.87-1.87Z"/><rect class="cls-6" x="11.58" y="25.74" width="16.42" height="7.08" rx="3" ry="3"/><rect class="cls-6" x="31.2" y="25.74" width="16.42" height="7.08" rx="3" ry="3"/><rect class="cls-6" x="50.82" y="25.74" width="16.42" height="7.08" rx="3" ry="3"/><rect class="cls-6" x="70.44" y="25.74" width="16.42" height="7.08" rx="3" ry="3"/><circle class="cls-7" cx="81.07" cy="48.25" r="5.79"/><circle class="cls-8" cx="73.35" cy="48.25" r="5.79"/></g></g></g></svg>