<svg xmlns="http://www.w3.org/2000/svg" xmlns:xlink="http://www.w3.org/1999/xlink" viewBox="0 0 102.86 72"><defs><style>.cls-1{fill:url(#Безымянный_градиент_42);}.cls-2{fill:url(#Безымянный_градиент_2);}.cls-3{fill:#e91c5d;}.cls-4{fill:#444446;}.cls-5{fill:#d7d7d7;}.cls-6{fill:#afafaf;}.cls-7{fill:url(#Безымянный_градиент_32);}.cls-8{fill:#bfbfbf;}.cls-9{fill:#fff;opacity:0.5;}</style><radialGradient id="Безымянный_градиент_42" cx="96.18" cy="57.54" r="31.72" gradientTransform="translate(0 -31.83) scale(1 1.55)" gradientUnits="userSpaceOnUse"><stop offset="0" stop-color="#f27646"/><stop offset="0.36" stop-color="#f06047"/><stop offset="0.71" stop-color="#ee5147"/><stop offset="1" stop-color="#ee4c47"/></radialGradient><linearGradient id="Безымянный_градиент_2" x1="106.59" y1="23.95" x2="167.86" y2="23.95" gradientTransform="matrix(1, 0, 0, -1, -106.59, 47.9)" gradientUnits="userSpaceOnUse"><stop offset="0" stop-color="#297bfb"/><stop offset="0.13" stop-color="#3e72fb"/><stop offset="0.37" stop-color="#5d64fc"/><stop offset="0.6" stop-color="#7459fd"/><stop offset="0.81" stop-color="#8253fd"/><stop offset="1" stop-color="#8751fd"/></linearGradient><linearGradient id="Безымянный_градиент_32" x1="67.23" y1="46.01" x2="70.57" y2="46.01" gradientTransform="matrix(1, 0, 0, -1, 30.07, 92.01)" gradientUnits="userSpaceOnUse"><stop offset="0" stop-color="#f7bf33"/><stop offset="0.31" stop-color="#f7ba33"/><stop offset="0.67" stop-color="#f7ac33"/><stop offset="1" stop-color="#f79833"/></linearGradient></defs><title>имг 5</title><g id="Слой_2" data-name="Слой 2"><g id="Категории"><g id="имг_5" data-name="имг 5"><path class="cls-1" d="M99.55,33.94l-7.2-15.67A3.74,3.74,0,0,0,89,16.11H65.73a1.49,1.49,0,0,0-1.49,1.49V56.73a12.81,12.81,0,0,1,24.1,5.06H99.89V35.49A3.64,3.64,0,0,0,99.55,33.94ZM70,35.68V21.08a.74.74,0,0,1,.75-.74H87.21a1.1,1.1,0,0,1,1,.65l6.57,14.27a1,1,0,0,1-.91,1.42H71A1,1,0,0,1,70,35.68Z"/><rect class="cls-2" width="61.27" height="47.9" rx="3" ry="3" transform="translate(61.27 47.9) rotate(-180)"/><rect class="cls-3" x="1.86" y="53.62" width="2.23" height="5.94" transform="translate(5.94 113.18) rotate(-180)"/><path class="cls-4" d="M64.24,51.39v5.34a12.71,12.71,0,0,0-1.44,5.06H33.38a12.79,12.79,0,0,0-6.78-10.4Z"/><path class="cls-4" d="M14.62,51.39a12.79,12.79,0,0,0-6.78,10.4H3V51.39Z"/><circle class="cls-4" cx="20.61" cy="62.72" r="9.28"/><circle class="cls-5" cx="20.61" cy="62.72" r="6.31"/><circle class="cls-6" cx="20.61" cy="62.72" r="1.86"/><path class="cls-4" d="M81.56,51.39h19.82a1.48,1.48,0,0,1,1.48,1.49V60.3a1.49,1.49,0,0,1-1.48,1.49h-13A12.79,12.79,0,0,0,81.56,51.39Z"/><circle class="cls-4" cx="75.57" cy="62.72" r="9.28"/><circle class="cls-5" cx="75.57" cy="62.72" r="6.31"/><circle class="cls-6" cx="75.57" cy="62.72" r="1.86"/><path class="cls-7" d="M98.29,43.59h.34a2,2,0,0,1,2,2v.83a2,2,0,0,1-2,2h-.34a1,1,0,0,1-1-1V44.59A1,1,0,0,1,98.29,43.59Z" transform="translate(197.93 92.01) rotate(-180)"/><rect class="cls-5" x="41.59" y="54.36" width="15.6" height="9.66" transform="translate(98.78 118.38) rotate(-180)"/><rect class="cls-8" x="45.31" y="53.99" width="1.49" height="10.4" transform="translate(92.1 118.38) rotate(-180)"/><rect class="cls-8" x="51.99" y="53.99" width="1.49" height="10.4" transform="translate(105.46 118.38) rotate(-180)"/><rect class="cls-9" x="47.04" y="36.21" width="6.44" height="4.83" rx="1" ry="1" transform="translate(100.51 77.24) rotate(-180)"/><rect class="cls-9" x="38.99" y="36.21" width="6.44" height="4.83" rx="1" ry="1" transform="translate(84.42 77.24) rotate(-180)"/></g></g></g></svg>