<svg xmlns="http://www.w3.org/2000/svg" xmlns:xlink="http://www.w3.org/1999/xlink" width="18" height="23" viewBox="0 0 18 23"><defs><path id="4slqa" d="M1257.37 52.12c-.64-1.26-6.14-1.965-6.248-2.937-.188-1.687.625-1.468 1.187-2.937.29-.758.687-1.124.687-1.124s.179.02.49-.117c.51-.227.822-3.257-.302-3.07-.14.023-.217-.237-.298-.645.104-.593.127-1.2-.012-1.908-.166-.837-.639-1.653-1.372-2.01a1.225 1.225 0 0 0-.959-.208l-.004.001a.98.98 0 0 0-.46-.188c-.308-.045-.55-.232-.844-.313-.41-.112-.889-.082-1.304-.035-.718.082-1.476.364-2.018.856-.128.116-.25.253-.362.4l-.015.02-.038.05c-.168.208-.31.456-.412.758-.114.338-.182.741-.19 1.15-.015.121-.025.24-.021.354.014.426-.017 1.01.109 1.468-.055.17-.117.265-.203.25-1.124-.187-.812 2.843-.302 3.07.311.138.49.117.49.117s.396.366.687 1.125c.562 1.468 1.375 1.25 1.187 2.936-.108.972-5.609 1.678-6.248 2.937-1 1.968-.437 6.623-.437 6.623h17.65s.562-4.655-.438-6.624z"/></defs><g><g transform="translate(-1240 -36)"><use fill="#fff" xlink:href="#4slqa"/></g></g></svg>